<svg width="22" height="26" viewBox="0 0 22 26" fill="none" xmlns="http://www.w3.org/2000/svg">
<path d="M21.8041 0.79065C21.6808 0.653821 21.5138 0.576965 21.3396 0.576965C21.1654 0.576965 20.9983 0.653821 20.8751 0.79065L15.7771 6.45422L17.7956 2.4273C17.8795 2.26028 17.9024 2.06377 17.8595 1.87849C17.8166 1.69321 17.7113 1.53337 17.5653 1.43208C17.4932 1.382 17.4126 1.34897 17.3285 1.33505C17.2445 1.32114 17.1587 1.32663 17.0766 1.35119C16.9946 1.37575 16.9179 1.41886 16.8515 1.47781C16.7851 1.53676 16.7303 1.6103 16.6906 1.69383L12.4518 10.1849C12.3907 10.3137 12.3654 10.4599 12.3793 10.6048C12.3718 10.7268 12.396 10.8487 12.4492 10.9557C12.4999 11.0452 12.5685 11.1204 12.6498 11.1753C12.7311 11.2302 12.8228 11.2634 12.9176 11.2721C13.0581 11.2937 13.2012 11.2655 13.3265 11.1916L20.9812 6.43984C21.055 6.39809 21.1205 6.34021 21.1738 6.26967C21.227 6.19913 21.2669 6.11737 21.2911 6.02929C21.3152 5.94121 21.3232 5.84861 21.3144 5.75704C21.3056 5.66548 21.2803 5.57682 21.2399 5.49639C21.1487 5.33718 21.0055 5.22358 20.8403 5.17958C20.6752 5.13557 20.5012 5.1646 20.3549 5.26053L16.6311 7.56162L21.8067 1.80888C21.8679 1.74125 21.9166 1.66081 21.9497 1.5722C21.9829 1.48359 22 1.38855 22 1.29258C22 1.1966 21.9829 1.10157 21.9497 1.01296C21.9166 0.924346 21.8679 0.843906 21.8067 0.776268L21.8041 0.79065ZM14.5841 8.8301L14.6307 8.73518C14.6438 8.74605 14.6576 8.75568 14.6721 8.76394L14.5841 8.8301Z" fill="#82C60A"/>
<path d="M17.5291 8.77545L16.0747 7.15606L14.6204 5.54243C13.65 4.4638 12.6408 3.42543 10.2496 6.08318C9.22747 7.21071 0.532509 21.1955 0.532509 21.1955C0.532509 21.1955 -0.665636 23.1025 0.532509 24.4343C1.73065 25.766 3.44635 24.4343 3.44635 24.4343C3.44635 24.4343 16.0282 14.7698 17.0452 13.6394C19.4363 10.9816 18.5021 9.85983 17.5291 8.77545Z" fill="#FF860D"/>
<path d="M5.93831 13.0181C5.88505 12.9608 5.82277 12.915 5.75457 12.8829L5.01188 14.0507L6.43516 15.6355C6.49599 15.7041 6.56837 15.7587 6.64818 15.7961C6.72798 15.8336 6.81364 15.8532 6.90027 15.8539C6.9869 15.8546 7.07279 15.8363 7.15306 15.8C7.23332 15.7638 7.30638 15.7103 7.36806 15.6427C7.42974 15.5751 7.47883 15.4947 7.51254 15.406C7.54624 15.3173 7.5639 15.222 7.5645 15.1258C7.5651 15.0295 7.54863 14.934 7.51604 14.8448C7.48344 14.7556 7.43536 14.6744 7.37453 14.6058L5.93831 13.0181ZM5.24996 18.3681C5.1244 18.2454 4.9615 18.1805 4.79441 18.1866C4.62732 18.1927 4.46861 18.2693 4.35056 18.4009C4.23252 18.5325 4.16401 18.7091 4.15899 18.8949C4.15397 19.0806 4.2128 19.2615 4.32353 19.4007L5.06105 20.2233C5.12052 20.2981 5.19315 20.3585 5.27445 20.4009C5.35575 20.4433 5.44401 20.4667 5.53376 20.4697C5.62352 20.4727 5.71287 20.4552 5.79632 20.4184C5.87976 20.3815 5.95553 20.326 6.01893 20.2553C6.08234 20.1846 6.13205 20.1003 6.16499 20.0074C6.19792 19.9146 6.2134 19.8152 6.21045 19.7155C6.2075 19.6157 6.1862 19.5177 6.14785 19.4274C6.1095 19.3372 6.05492 19.2566 5.98747 19.1907L5.24996 18.3681ZM11.2019 15.3105C11.0788 15.4475 11.0096 15.6332 11.0096 15.8268C11.0096 16.0204 11.0788 16.2061 11.2019 16.3431L12.2913 17.5569L13.3756 16.694L12.1309 15.3076C12.0701 15.24 11.9979 15.1863 11.9184 15.1497C11.8389 15.113 11.7537 15.0942 11.6677 15.0942C11.5816 15.0942 11.4964 15.113 11.4169 15.1497C11.3375 15.1863 11.2653 15.24 11.2044 15.3076L11.2019 15.3105ZM17.6765 10.7889L14.8791 7.66803C14.8196 7.59325 14.747 7.53281 14.6657 7.49044C14.5844 7.44806 14.4961 7.42465 14.4064 7.42166C14.3166 7.41866 14.2273 7.43613 14.1438 7.473C14.0604 7.50987 13.9846 7.56536 13.9212 7.63603C13.8578 7.70671 13.8081 7.79107 13.7752 7.88393C13.7422 7.97678 13.7267 8.07615 13.7297 8.1759C13.7326 8.27566 13.7539 8.37369 13.7923 8.46394C13.8306 8.55419 13.8852 8.63475 13.9527 8.70064L16.7501 11.8157C16.8098 11.8879 16.882 11.946 16.9624 11.9864C17.0427 12.0267 17.1297 12.0487 17.2178 12.0508C17.306 12.0529 17.3937 12.0352 17.4756 11.9988C17.5575 11.9623 17.6319 11.9078 17.6944 11.8385C17.7568 11.7693 17.8061 11.6868 17.8391 11.5958C17.8722 11.5049 17.8883 11.4075 17.8867 11.3095C17.885 11.2114 17.8655 11.1148 17.8294 11.0253C17.7933 10.9359 17.7413 10.8554 17.6765 10.7889ZM12.1775 11.8157C12.2387 11.7481 12.2873 11.6677 12.3205 11.579C12.3537 11.4904 12.3708 11.3954 12.3708 11.2994C12.3708 11.2035 12.3537 11.1084 12.3205 11.0198C12.2873 10.9312 12.2387 10.8508 12.1775 10.7831L9.37747 7.67091C9.3274 7.61827 9.26965 7.57547 9.20668 7.54435C8.97895 7.88376 8.72276 8.27207 8.44587 8.69489L11.2562 11.8157C11.3171 11.8838 11.3894 11.9379 11.4691 11.9748C11.5489 12.0116 11.6344 12.0306 11.7207 12.0306C11.8071 12.0306 11.8926 12.0116 11.9723 11.9748C12.052 11.9379 12.1244 11.8838 12.1852 11.8157" fill="#E56107"/>
</svg>
