<svg width="19" height="26" viewBox="0 0 19 26" fill="none" xmlns="http://www.w3.org/2000/svg">
<path d="M7.60217 5.56031C7.45765 5.73938 7.38342 5.97434 7.39573 6.21368C7.40804 6.45303 7.5059 6.67722 7.66785 6.83711C7.81631 6.98598 8.00906 7.06973 8.20969 7.07254C8.32564 7.07352 8.44046 7.04739 8.54658 6.99589C8.65271 6.94438 8.74775 6.86866 8.82543 6.77372L8.94858 6.61978C8.5463 6.16702 8.16864 5.71425 7.80741 5.30676L7.60217 5.56031Z" fill="#683B32"/>
<path d="M12.5116 0.869893C12.431 0.789586 12.3368 0.727709 12.2344 0.687846C12.132 0.647983 12.0234 0.630927 11.915 0.637664C11.8066 0.644402 11.7004 0.6748 11.6027 0.727097C11.505 0.779394 11.4177 0.852552 11.3458 0.942333L7.80737 5.30684C8.1686 5.72337 8.54626 6.21234 8.94854 6.61981L12.5773 2.1557C12.6501 2.06683 12.7062 1.96291 12.7423 1.84996C12.7785 1.737 12.7939 1.61726 12.7878 1.49767C12.7817 1.37808 12.7542 1.26102 12.7067 1.15326C12.6593 1.0455 12.593 0.949182 12.5116 0.869893Z" fill="#683B32"/>
<path d="M7.97158 5.49701H7.92232C7.65139 5.64189 1.12459 8.74775 0.131197 14.2713C-0.862191 19.7948 4.10475 25.4089 4.31821 25.6444C4.39492 25.7283 4.4859 25.7947 4.58592 25.8398C4.68595 25.8848 4.79306 25.9077 4.9011 25.907C5.01096 25.9047 5.1195 25.8801 5.22129 25.8345C5.49221 25.7078 12.019 22.6381 13.0124 17.0783C13.0794 16.7203 13.1206 16.357 13.1356 15.9917C13.4014 14.0411 13.1296 12.0473 12.3556 10.269C10.7629 8.63909 9.22768 6.93675 7.97158 5.49701Z" fill="#844C3E"/>
<path d="M12.3556 10.2961C11.6537 8.76581 10.6425 7.43369 9.40007 6.40247C9.04705 5.95877 8.82538 5.70523 8.82538 5.70523C8.71836 5.59196 8.58551 5.51278 8.44095 5.4761C8.2964 5.43943 8.14553 5.44664 8.00439 5.49697C9.22766 6.93672 10.7629 8.63907 12.3556 10.2961Z" fill="#844C3E"/>
<path d="M8.60379 6.33905C8.50669 6.26149 8.39536 6.20833 8.27764 6.1833C8.15992 6.15827 8.03866 6.16198 7.92237 6.19417C7.90349 6.18918 7.88379 6.18918 7.86491 6.19417C7.80444 6.21686 7.74658 6.24725 7.6925 6.28472C7.63035 6.32922 7.57494 6.38422 7.5283 6.44771H7.48725V6.50204L7.43799 6.56543C3.53013 12.3697 2.45464 18.346 4.19512 24.3585C4.20195 24.4778 4.23013 24.5945 4.27804 24.7017C4.32595 24.8089 4.39264 24.9046 4.47425 24.9833C4.62297 25.1236 4.81222 25.2006 5.00789 25.2006C5.05982 25.2049 5.11195 25.2049 5.16388 25.2006H5.28703L5.41838 25.1282C5.48531 25.0873 5.54621 25.0354 5.599 24.9742C9.38372 20.1117 10.4838 14.1082 8.88292 7.09967C8.89398 6.95761 8.87446 6.81466 8.82595 6.68249C8.77745 6.55031 8.70133 6.43264 8.60379 6.33905Z" fill="#A96555"/>
<path d="M18.7347 16.5621C18.7623 16.5086 18.7817 16.4505 18.7922 16.3901C18.8332 16.1456 19.8266 10.3685 17.0763 7.33509C14.326 4.30167 9.08816 5.38827 8.86649 5.43355C8.74914 5.45956 8.63837 5.51357 8.54193 5.59177C8.44549 5.66998 8.36573 5.7705 8.30823 5.8863C11.6167 9.63835 15.0967 13.2016 18.7347 16.5621Z" fill="#4FB15C"/>
<path d="M8.30813 5.88635C8.26583 5.96817 8.23536 6.05677 8.21782 6.14895C8.16857 6.39343 7.18339 12.1705 9.93368 15.2039C11.5182 16.9515 13.9154 17.3319 15.6805 17.3319C16.506 17.3369 17.3302 17.2611 18.1435 17.1055C18.2748 17.0751 18.3973 17.0097 18.5003 16.9149C18.6034 16.8202 18.6838 16.6991 18.7346 16.5622C15.0966 13.2017 11.6166 9.63841 8.30813 5.88635Z" fill="#39B54A"/>
<path d="M18.7347 16.5621C18.7623 16.5086 18.7817 16.4505 18.7922 16.3901C18.8332 16.1456 19.8266 10.3685 17.0763 7.33509C14.326 4.30167 9.08816 5.38827 8.86649 5.43355C8.74914 5.45956 8.63837 5.51357 8.54193 5.59177C8.44549 5.66998 8.36573 5.7705 8.30823 5.8863C11.6167 9.63835 15.0967 13.2016 18.7347 16.5621Z" fill="#308C34"/>
</svg>
