<svg width="24" height="26" viewBox="0 0 24 26" fill="none" xmlns="http://www.w3.org/2000/svg">
<path d="M24 13.3338C23.9996 12.8642 23.8686 12.4049 23.623 12.0121C23.3774 11.6193 23.0279 11.31 22.6172 11.122C22.9281 10.784 23.138 10.3582 23.2214 9.89697C23.3048 9.43571 23.2579 8.959 23.0866 8.52523C22.9152 8.09147 22.6268 7.71949 22.2568 7.4549C21.8867 7.1903 21.451 7.04457 21.003 7.03557C21.1671 6.59836 21.2058 6.12047 21.1143 5.66056C21.0229 5.20064 20.8053 4.77869 20.4882 4.4465C20.1712 4.11431 19.7685 3.88632 19.3296 3.7905C18.8906 3.69469 18.4346 3.73523 18.0173 3.90714C18.0087 3.43777 17.8696 2.98123 17.6171 2.59345C17.3646 2.20567 17.0096 1.9035 16.5956 1.72396C16.1816 1.54443 15.7266 1.49534 15.2864 1.58269C14.8462 1.67005 14.4399 1.89006 14.1172 2.21577C13.9397 1.78178 13.6445 1.41192 13.2683 1.152C12.8921 0.892082 12.4514 0.75354 12.0007 0.75354C11.5501 0.75354 11.1093 0.892082 10.7331 1.152C10.3569 1.41192 10.0617 1.78178 9.8842 2.21577C9.56108 1.89391 9.15574 1.67724 8.71738 1.59208C8.27902 1.50691 7.82649 1.55691 7.41473 1.736C7.00296 1.9151 6.64967 2.21558 6.39773 2.60098C6.14579 2.98638 6.00603 3.44013 5.99544 3.90714C5.57817 3.73523 5.12209 3.69469 4.68315 3.7905C4.24422 3.88632 3.84152 4.11431 3.52448 4.4465C3.20745 4.77869 2.98986 5.20064 2.89841 5.66056C2.80697 6.12047 2.84566 6.59836 3.00972 7.03557C2.56177 7.04457 2.12606 7.1903 1.75597 7.4549C1.38588 7.71949 1.09749 8.09147 0.926153 8.52523C0.754811 8.959 0.707954 9.43571 0.791325 9.89697C0.874695 10.3582 1.08467 10.784 1.39552 11.122C0.981333 11.3081 0.628339 11.6174 0.38028 12.0116C0.132221 12.4058 0 12.8676 0 13.3397C0 13.8119 0.132221 14.2737 0.38028 14.6679C0.628339 15.0621 0.981333 15.3714 1.39552 15.5574C1.08834 15.896 0.881562 16.3207 0.800283 16.78C0.719004 17.2393 0.766721 17.7135 0.937642 18.145C1.10856 18.5764 1.39534 18.9466 1.76316 19.2106C2.13098 19.4746 2.56402 19.621 3.00972 19.6321C2.84566 20.0693 2.80697 20.5472 2.89841 21.0071C2.98986 21.467 3.20745 21.889 3.52448 22.2212C3.84152 22.5534 4.24422 22.7813 4.68315 22.8772C5.12209 22.973 5.57817 22.9324 5.99544 22.7605C6.00403 23.2299 6.14311 23.6864 6.39563 24.0742C6.64816 24.462 7.00316 24.7642 7.41714 24.9437C7.83111 25.1232 8.28608 25.1723 8.72629 25.085C9.1665 24.9976 9.57283 24.7776 9.89548 24.4519C10.073 24.8859 10.3682 25.2557 10.7444 25.5157C11.1206 25.7756 11.5614 25.9141 12.012 25.9141C12.4626 25.9141 12.9034 25.7756 13.2796 25.5157C13.6558 25.2557 13.951 24.8859 14.1285 24.4519C14.4516 24.7738 14.857 24.9904 15.2953 25.0756C15.7337 25.1607 16.1862 25.1108 16.598 24.9317C17.0098 24.7526 17.3631 24.4521 17.615 24.0667C17.8669 23.6813 18.0067 23.2275 18.0173 22.7605C18.4346 22.9324 18.8906 22.973 19.3296 22.8772C19.7685 22.7813 20.1712 22.5534 20.4882 22.2212C20.8053 21.889 21.0229 21.467 21.1143 21.0071C21.2058 20.5472 21.1671 20.0693 21.003 19.6321C21.451 19.6231 21.8867 19.4774 22.2568 19.2128C22.6268 18.9482 22.9152 18.5762 23.0866 18.1424C23.2579 17.7087 23.3048 17.2319 23.2214 16.7707C23.138 16.3094 22.9281 15.8837 22.6172 15.5456C23.0279 15.3577 23.3774 15.0484 23.623 14.6555C23.8686 14.2627 23.9996 13.8034 24 13.3338Z" fill="#EAA74E"/>
<path opacity="0.5" fill-rule="evenodd" clip-rule="evenodd" d="M12.0064 12.364C12.1886 12.3646 12.3667 12.4217 12.518 12.5282C12.6693 12.6347 12.7871 12.7857 12.8566 12.9623C12.9261 13.1388 12.9442 13.333 12.9085 13.5203C12.8728 13.7076 12.7849 13.8796 12.6561 14.0146C12.5272 14.1497 12.363 14.2417 12.1843 14.2791C12.0055 14.3165 11.8202 14.2976 11.6517 14.2248C11.4832 14.152 11.339 14.0285 11.2374 13.87C11.1358 13.7114 11.0813 13.5249 11.0807 13.3339C11.0804 13.2064 11.1041 13.0801 11.1504 12.9623C11.1968 12.8444 11.265 12.7374 11.351 12.6472C11.437 12.5571 11.5392 12.4856 11.6517 12.437C11.7642 12.3884 11.8847 12.3636 12.0064 12.364ZM5.08676 12.364C5.26903 12.3646 5.44705 12.4217 5.59837 12.5282C5.74969 12.6347 5.86753 12.7857 5.93703 12.9623C6.00652 13.1388 6.02456 13.333 5.98886 13.5203C5.95317 13.7076 5.86534 13.8796 5.73645 14.0146C5.60756 14.1497 5.4434 14.2417 5.26465 14.2791C5.08591 14.3165 4.9006 14.2976 4.7321 14.2248C4.56359 14.152 4.41944 14.0285 4.31783 13.87C4.21622 13.7114 4.16169 13.5249 4.16113 13.3339C4.16113 13.0767 4.25865 12.83 4.43224 12.6481C4.60583 12.4662 4.84127 12.364 5.08676 12.364ZM18.9147 12.364C19.0974 12.3623 19.2766 12.4174 19.4294 12.5224C19.5822 12.6275 19.7017 12.7777 19.773 12.954C19.8442 13.1304 19.8639 13.3249 19.8294 13.513C19.795 13.701 19.7081 13.8742 19.5797 14.0104C19.4512 14.1466 19.2871 14.2398 19.108 14.2782C18.929 14.3166 18.7431 14.2984 18.5739 14.2259C18.4048 14.1534 18.26 14.03 18.1578 13.8712C18.0557 13.7124 18.0009 13.5254 18.0003 13.3339C18.0011 13.0779 18.0981 12.8326 18.2703 12.651C18.4425 12.4695 18.676 12.3663 18.9203 12.364H18.9147ZM9.34519 6.57435C9.43621 6.74003 9.47832 6.93026 9.46619 7.12101C9.45406 7.31176 9.38824 7.49446 9.27704 7.64602C9.16584 7.79758 9.01427 7.91121 8.84146 7.97253C8.66865 8.03386 8.48238 8.04014 8.30617 7.99057C8.12996 7.94101 7.97172 7.83782 7.85146 7.69406C7.7312 7.55029 7.65431 7.3724 7.63051 7.18287C7.60671 6.99333 7.63706 6.80066 7.71773 6.62919C7.7984 6.45772 7.92578 6.31516 8.08375 6.21952C8.18879 6.15592 8.30476 6.11465 8.42503 6.09807C8.54531 6.08149 8.66752 6.08991 8.78469 6.12287C8.90185 6.15583 9.01166 6.21267 9.10784 6.29014C9.20402 6.3676 9.28467 6.46418 9.34519 6.57435ZM16.2648 19.1265C16.3567 19.2918 16.3998 19.4819 16.3885 19.6728C16.3773 19.8637 16.3123 20.0468 16.2017 20.199C16.0912 20.3512 15.94 20.4656 15.7674 20.5277C15.5948 20.5899 15.4084 20.597 15.2319 20.5482C15.0555 20.4994 14.8967 20.3968 14.7759 20.2535C14.655 20.1101 14.5775 19.9325 14.553 19.7429C14.5285 19.5534 14.5583 19.3605 14.6384 19.1887C14.7186 19.0168 14.8456 18.8738 15.0034 18.7776C15.108 18.7134 15.2236 18.6714 15.3438 18.6542C15.4639 18.637 15.5861 18.6448 15.7033 18.6772C15.8205 18.7097 15.9305 18.766 16.0269 18.8431C16.1232 18.9202 16.2041 19.0165 16.2648 19.1265ZM14.6704 6.57435C14.6087 6.68385 14.5683 6.80509 14.5517 6.93104C14.5351 7.05699 14.5425 7.18515 14.5734 7.30808C14.6044 7.43102 14.6584 7.5463 14.7322 7.64724C14.8059 7.74817 14.8981 7.83276 15.0034 7.89609C15.1086 7.96494 15.2261 8.01084 15.3487 8.03103C15.4713 8.05122 15.5965 8.0453 15.7168 8.01361C15.8372 7.98193 15.9502 7.92513 16.0491 7.84662C16.1481 7.76811 16.2309 7.6695 16.2926 7.55668C16.3543 7.44387 16.3937 7.31917 16.4083 7.19005C16.423 7.06093 16.4126 6.93004 16.3779 6.80521C16.3432 6.68037 16.2847 6.56416 16.2062 6.46353C16.1276 6.36289 16.0304 6.2799 15.9205 6.21952C15.8164 6.1558 15.7013 6.11442 15.5818 6.09778C15.4623 6.08114 15.3409 6.08957 15.2245 6.1226C15.1082 6.15562 14.9993 6.21257 14.9041 6.29013C14.809 6.36768 14.7295 6.4643 14.6704 6.57435ZM7.74511 19.1265C7.65232 19.2922 7.60859 19.483 7.61944 19.6748C7.6303 19.8665 7.69525 20.0506 7.80608 20.2036C7.9169 20.3567 8.0686 20.4718 8.24193 20.5343C8.41527 20.5969 8.60244 20.6041 8.7797 20.5551C8.95696 20.5061 9.11633 20.403 9.23761 20.2589C9.35888 20.1149 9.4366 19.9363 9.4609 19.7459C9.4852 19.5555 9.45499 19.3618 9.3741 19.1894C9.29321 19.017 9.16529 18.8737 9.00655 18.7776C8.90195 18.7134 8.78626 18.6714 8.66613 18.6542C8.54601 18.637 8.42382 18.6448 8.30659 18.6772C8.18936 18.7097 8.07941 18.766 7.98305 18.8431C7.88669 18.9202 7.80582 19.0165 7.74511 19.1265Z" fill="#D69031"/>
</svg>
