<svg width="20" height="30" viewBox="0 0 20 30" fill="none" xmlns="http://www.w3.org/2000/svg">
<path d="M19.9799 12.5263C20.0856 11.9033 19.7619 11.3911 19.2533 11.3911H0.881245C0.382472 11.3911 0.0620684 11.8894 0.154556 12.4951L3.1505 28.1321H16.9873L19.9601 12.6093C19.9634 12.5816 19.9733 12.554 19.9799 12.5263Z" fill="#DBDBDB"/>
<path d="M11.012 0.433563C10.8128 0.433551 10.6179 0.494021 10.4508 0.607656C10.2838 0.72129 10.1517 0.88322 10.0706 1.07385C9.99453 0.895949 9.87404 0.742856 9.72184 0.630718C9.56964 0.518581 9.39139 0.451555 9.20587 0.436711C9.02035 0.421866 8.83445 0.459752 8.66777 0.546373C8.50108 0.632994 8.3598 0.76514 8.25881 0.928876C8.15782 1.09261 8.10088 1.28187 8.09397 1.47668C8.08707 1.6715 8.13047 1.86466 8.2196 2.03579C8.30872 2.20692 8.44027 2.34967 8.60036 2.44901C8.76046 2.54834 8.94317 2.60056 9.12923 2.60017V9.25919H11.012V2.60017C11.2862 2.60017 11.5492 2.48603 11.7431 2.28288C11.937 2.07972 12.0459 1.80417 12.0459 1.51687C12.0459 1.22956 11.937 0.954013 11.7431 0.750855C11.5492 0.547696 11.2862 0.433563 11.012 0.433563Z" fill="#F4E0C1"/>
<path d="M11.0318 6.255H9.11271C7.16056 7.38676 5.69397 11.6819 5.69397 13.8485C5.69397 15.0629 6.15438 16.2276 6.97393 17.0863C7.79347 17.945 8.90501 18.4274 10.064 18.4274C11.223 18.4274 12.3346 17.945 13.1541 17.0863C13.9736 16.2276 14.4341 15.0629 14.4341 13.8485C14.4407 11.6819 12.984 7.38676 11.0318 6.255Z" fill="#B86533"/>
<path d="M11.0319 6.255H10.074V18.4274C11.2324 18.4265 12.3431 17.9437 13.1619 17.0851C13.9808 16.2264 14.4407 15.0623 14.4407 13.8485C14.4407 11.6819 12.984 7.38676 11.0319 6.255Z" fill="#A35A2D"/>
<path d="M15.273 3.02924C15.0738 3.02922 14.8789 3.08969 14.7118 3.20333C14.5447 3.31696 14.4127 3.47889 14.3316 3.66953C14.2555 3.49162 14.135 3.33853 13.9828 3.22639C13.8306 3.11425 13.6524 3.04723 13.4669 3.03238C13.2813 3.01754 13.0954 3.05542 12.9288 3.14205C12.7621 3.22867 12.6208 3.36081 12.5198 3.52455C12.4188 3.68828 12.3619 3.87754 12.355 4.07236C12.3481 4.26718 12.3915 4.46033 12.4806 4.63146C12.5697 4.80259 12.7013 4.94535 12.8613 5.04468C13.0214 5.14401 13.2042 5.19624 13.3902 5.19584V11.8341H15.273V5.182C15.5254 5.15196 15.7584 5.02563 15.9275 4.82711C16.0967 4.62858 16.1902 4.37176 16.1902 4.10562C16.1902 3.83948 16.0967 3.58265 15.9275 3.38413C15.7584 3.1856 15.5254 3.05927 15.273 3.02924Z" fill="#F4E0C1"/>
<path d="M15.2995 8.84039H13.3804C11.4282 9.96868 9.96826 14.2499 9.96826 16.4338C9.96826 17.6482 10.4287 18.8129 11.2482 19.6716C12.0678 20.5303 13.1793 21.0128 14.3383 21.0128C15.4973 21.0128 16.6089 20.5303 17.4284 19.6716C18.248 18.8129 18.7084 17.6482 18.7084 16.4338C18.7117 14.2499 17.255 9.96868 15.2995 8.84039Z" fill="#B86533"/>
<path d="M15.2995 8.84039H14.3416V21.0267C14.9165 21.0267 15.4859 20.9078 16.017 20.6768C16.548 20.4458 17.0303 20.1073 17.4363 19.6806C17.8423 19.254 18.1639 18.7476 18.3827 18.1904C18.6016 17.6333 18.7133 17.0364 18.7116 16.4339C18.7116 14.25 17.2549 9.96869 15.2995 8.84039Z" fill="#A35A2D"/>
<path d="M6.64522 3.02929C6.44544 3.02636 6.24916 3.08434 6.08027 3.19618C5.91137 3.30801 5.77714 3.46888 5.69391 3.65919C5.61782 3.48129 5.49733 3.32819 5.34513 3.21606C5.19294 3.10392 5.01468 3.03689 4.82916 3.02205C4.64364 3.00721 4.45774 3.04509 4.29106 3.13171C4.12437 3.21833 3.98309 3.35048 3.8821 3.51421C3.78111 3.67795 3.72417 3.8672 3.71726 4.06202C3.71036 4.25683 3.75376 4.44999 3.84289 4.62112C3.93201 4.79225 4.06356 4.93501 4.22365 5.03434C4.38375 5.13367 4.56646 5.18589 4.75252 5.1855V11.8341H6.63531V5.18204C6.90951 5.18204 7.17248 5.0679 7.36637 4.86475C7.56026 4.66159 7.66919 4.38605 7.66919 4.09874C7.66919 3.81143 7.56026 3.53589 7.36637 3.33273C7.17248 3.12957 6.90951 3.01544 6.63531 3.01544L6.64522 3.02929Z" fill="#F4E0C1"/>
<path d="M6.66181 8.84039H4.74269C2.79054 9.96868 1.33386 14.2499 1.33386 16.4338C1.33386 17.0352 1.4469 17.6306 1.66651 18.1861C1.88613 18.7417 2.20802 19.2464 2.61382 19.6716C3.01961 20.0968 3.50136 20.4341 4.03156 20.6642C4.56176 20.8943 5.13002 21.0128 5.7039 21.0128C6.27779 21.0128 6.84605 20.8943 7.37625 20.6642C7.90644 20.4341 8.38819 20.0968 8.79399 19.6716C9.19978 19.2464 9.52168 18.7417 9.74129 18.1861C9.96091 17.6306 10.0739 17.0352 10.0739 16.4338C10.0739 14.2499 8.61396 9.96868 6.66181 8.84039Z" fill="#B86533"/>
<path d="M6.66179 8.84039H5.69397V21.0267C6.2698 21.028 6.84021 20.9101 7.37242 20.6798C7.90462 20.4494 8.38813 20.1111 8.79515 19.6843C9.20217 19.2575 9.52468 18.7506 9.74413 18.1928C9.96359 17.635 10.0757 17.0372 10.0739 16.4339C10.0739 14.25 8.61394 9.96869 6.66179 8.84039Z" fill="#A35A2D"/>
<path d="M19.8181 14.243C19.9238 13.62 19.6001 13.1078 19.0914 13.1078C18.8204 13.1384 18.5672 13.2641 18.3729 13.4646C18.1786 13.665 18.0547 13.9283 18.0212 14.2119C18.0939 13.6027 17.757 13.1078 17.2582 13.1078C16.9903 13.1373 16.7406 13.2637 16.5519 13.4651C16.3632 13.6666 16.2474 13.9306 16.2243 14.2119C16.2772 13.6027 15.9271 13.1078 15.4283 13.1078C15.1647 13.138 14.92 13.2658 14.7383 13.4682C14.5567 13.6706 14.4499 13.9343 14.4373 14.2119C14.4563 14.0814 14.4495 13.9482 14.4173 13.8207C14.3851 13.6931 14.3282 13.5738 14.2501 13.4703C14.1721 13.3667 14.0745 13.2811 13.9635 13.2187C13.8525 13.1564 13.7305 13.1186 13.605 13.1078C13.342 13.1343 13.0978 13.2616 12.9191 13.4655C12.7404 13.6693 12.64 13.9351 12.6371 14.2119C12.6513 14.0795 12.6399 13.9455 12.6038 13.8178C12.5677 13.6901 12.5075 13.5713 12.4269 13.4684C12.3462 13.3655 12.2467 13.2805 12.1341 13.2186C12.0216 13.1567 11.8984 13.119 11.7717 13.1078C11.5116 13.1332 11.2704 13.2615 11.0974 13.4666C10.9243 13.6717 10.8324 13.9382 10.8402 14.2119C10.8577 13.9413 10.7735 13.6744 10.6056 13.4681C10.4377 13.2618 10.1995 13.1325 9.94179 13.1078C9.80984 13.1139 9.6804 13.1476 9.56106 13.207C9.44173 13.2663 9.33492 13.35 9.24691 13.4532C9.15889 13.5563 9.09146 13.6769 9.04855 13.8078C9.00565 13.9387 8.98816 14.0772 8.99709 14.2153C9.00408 13.9413 8.91139 13.6748 8.73781 13.4698C8.56423 13.2648 8.32274 13.1366 8.0623 13.1112C7.93565 13.1224 7.81242 13.1601 7.69989 13.2221C7.58737 13.284 7.48783 13.3689 7.40715 13.4719C7.32648 13.5748 7.26631 13.6936 7.23019 13.8213C7.19408 13.949 7.18275 14.083 7.19689 14.2153C7.19402 13.9386 7.09359 13.6727 6.91493 13.4689C6.73626 13.2651 6.49198 13.1377 6.22907 13.1112C6.10366 13.122 5.98171 13.1598 5.87087 13.2222C5.76002 13.2846 5.66264 13.3703 5.58483 13.4739C5.50702 13.5775 5.45044 13.6969 5.41864 13.8244C5.38683 13.952 5.38048 14.0851 5.39998 14.2153C5.38673 13.938 5.27977 13.6747 5.09823 13.4724C4.91668 13.2701 4.6724 13.1421 4.40905 13.1112C3.91027 13.1112 3.56014 13.6096 3.61299 14.2153C3.58917 13.9338 3.47267 13.6697 3.28346 13.4683C3.09424 13.2669 2.84408 13.1407 2.57581 13.1112C2.07704 13.1112 1.74342 13.6096 1.81279 14.2153C1.77935 13.9318 1.65543 13.6685 1.46115 13.468C1.26687 13.2676 1.01364 13.1419 0.742572 13.1112C0.2438 13.1112 -0.0766034 13.6096 0.0158842 14.2153L2.9887 29.8522H16.8255L19.7983 14.3295C19.8016 14.3018 19.8115 14.2742 19.8181 14.243Z" fill="#E6E6E6"/>
<path d="M10.0706 16.5549C6.51976 16.5549 3.73853 18.5 3.73853 20.985C3.73853 23.4701 6.51976 25.4152 10.0706 25.4152C13.6215 25.4152 16.4027 23.4666 16.4027 20.985C16.4027 18.5035 13.6215 16.5549 10.0706 16.5549Z" fill="#FF860D"/>
<path d="M10.0706 17.9117C7.60978 17.9117 5.69397 19.265 5.69397 20.9851C5.69397 22.7052 7.61969 24.0551 10.0805 24.0551C12.5413 24.0551 14.4671 22.7052 14.4671 20.9851C14.4671 19.265 12.5281 17.9117 10.0706 17.9117Z" fill="#F04B3E"/>
</svg>
