<svg width="407" height="205" viewBox="0 0 407 205" fill="none" xmlns="http://www.w3.org/2000/svg">
<path d="M40.5316 16.0507C72.2999 -30.189 175.998 113.917 244.005 105.139C309.108 96.7352 351.263 29.9219 415.226 63.5379C514.586 115.757 370.721 325.523 276.772 351.678C171.259 381.053 -12.5266 93.2786 40.5316 16.0507Z" fill="#7E19FF" fill-opacity="0.6"/>
<path d="M162.462 331.36C151.556 277.044 203.7 251.998 240.169 206.045C275.082 162.053 280.909 112.194 342.976 101.615C439.392 85.1816 483.08 220.033 442.001 294.452C395.865 378.032 180.678 422.077 162.462 331.36Z" fill="#6F12E7" fill-opacity="0.8"/>
<path d="M177.869 365.704C166.963 311.388 219.106 286.342 255.576 240.389C290.489 196.397 296.316 146.538 358.383 135.959C454.799 119.526 498.487 254.377 457.408 328.796C411.272 412.376 196.085 456.421 177.869 365.704Z" stroke="#ACFF86" stroke-opacity="0.6"/>
</svg>
