<svg width="554" height="473" viewBox="0 0 554 473" fill="none" xmlns="http://www.w3.org/2000/svg">
<path d="M238.24 472.806L217.013 397.161L219.196 216.9L199.061 211.081L83.95 203.687C83.95 203.687 47.3182 207.566 32.3987 237.145C26.819 248.297 15.781 285.877 15.781 285.877L50.5933 295.333L62.1165 396.434L49.1377 472.927L238.24 472.806Z" fill="#E8505B"/>
<g opacity="0.3">
<g opacity="0.3">
<path opacity="0.3" d="M166.675 245.509C159.882 286.604 150.664 329.518 153.817 371.098C154.909 384.918 157.456 399.586 167.281 409.405C173.589 415.709 182.08 419.224 190.449 422.497C195.665 424.558 201.366 426.619 206.703 425.043C214.345 422.861 218.347 414.254 219.318 406.374C220.288 398.495 219.318 390.373 221.501 382.736" fill="black"/>
</g>
</g>
<path d="M144.841 320.669C145.69 318.487 146.175 316.062 146.175 313.516C147.752 312.183 153.453 310.849 153.453 310.849L153.089 308.667C150.784 309.152 146.175 308.546 145.569 308.425C144.962 306.607 144.113 304.788 143.143 303.334C143.749 301.515 146.296 299.333 146.296 299.333L144.841 297.757C143.143 299.333 140.959 300.303 140.595 300.424C139.504 299.454 138.412 298.606 137.199 297.878C136.835 295.939 138.533 290.241 138.533 290.241L136.471 289.514C135.622 291.938 132.469 295.939 132.469 295.939C130.77 295.454 128.951 295.333 127.01 295.333C125.797 293.878 125.069 290.605 125.069 290.605L122.886 291.09C123.371 293.514 123.129 295.939 123.129 296.06C121.552 296.424 120.096 297.03 118.641 297.878C116.7 297.151 112.697 292.908 112.697 292.908L110.999 294.363C112.455 296.06 114.153 300.06 114.517 300.909C113.061 302.364 111.848 304.061 110.999 305.879C109.058 306.122 106.268 305.152 106.268 305.152L105.541 307.213C107.36 307.819 108.937 308.789 109.665 309.274C109.301 310.849 109.058 312.547 109.058 314.244C107.117 315.456 102.144 316.547 102.144 316.547L102.629 318.729C104.57 318.365 108.33 318.729 109.665 318.85C110.271 320.911 111.12 322.729 112.212 324.427C111.484 326.245 109.301 328.063 109.301 328.063L110.756 329.761C112.212 328.548 113.91 327.578 114.638 327.215C116.579 329.033 118.762 330.488 121.309 331.458C122.037 333.518 121.673 338.974 121.673 338.974L123.856 339.216C123.978 337.276 125.312 334.003 125.919 332.549C127.495 332.67 129.194 332.67 130.892 332.306C131.741 332.185 132.59 331.943 133.318 331.7C134.652 333.155 135.501 335.701 135.501 335.701L137.563 334.973C136.835 332.912 136.714 330.73 136.714 330.124C139.019 328.791 140.959 327.094 142.536 325.033C144.841 325.396 149.329 327.821 149.329 327.821L150.421 325.881C148.358 324.669 145.326 321.396 144.841 320.669Z" fill="#F5F5F5"/>
<path d="M112.94 291.575C113.183 291.817 112.698 292.787 111.727 293.636C111.363 293.878 111.121 294.12 110.757 294.363C110.15 294.727 109.665 294.848 109.544 294.605C109.301 294.363 109.786 293.393 110.757 292.544C111.727 291.696 112.698 291.332 112.94 291.575Z" fill="#F5F5F5"/>
<g opacity="0.3">
<path opacity="0.3" d="M110.878 294.242C110.878 294.242 111.97 293.514 112.455 292.787C112.698 293.029 113.062 293.393 113.425 293.757C113.425 293.757 111.97 294.605 111.121 294.727L110.878 294.242Z" fill="black"/>
</g>
<path d="M105.905 303.818C106.269 303.94 106.269 305.031 105.905 306.122C105.784 306.485 105.662 306.849 105.42 307.213C105.056 307.819 104.692 308.182 104.449 308.061C104.086 307.94 104.086 306.849 104.449 305.758C104.935 304.546 105.541 303.697 105.905 303.818Z" fill="#F5F5F5"/>
<g opacity="0.3">
<path opacity="0.3" d="M105.541 307.213C105.541 307.213 106.148 306.122 106.148 305.152C106.511 305.273 106.997 305.394 107.482 305.515C107.482 305.515 106.633 306.97 106.026 307.455L105.541 307.213Z" fill="black"/>
</g>
<path d="M101.296 315.577C101.659 315.456 102.266 316.426 102.509 317.638C102.63 318.002 102.63 318.487 102.63 318.729C102.63 319.335 102.509 319.82 102.266 319.941C101.902 320.062 101.296 319.093 101.053 317.88C100.81 316.668 100.932 315.698 101.296 315.577Z" fill="#F5F5F5"/>
<g opacity="0.3">
<path opacity="0.3" d="M102.63 318.607C102.63 318.607 102.508 317.273 102.145 316.425C102.508 316.304 102.994 316.182 103.479 316.061C103.479 316.061 103.479 317.758 103.115 318.486L102.63 318.607Z" fill="black"/>
</g>
<path d="M108.088 327.699C108.331 327.456 109.301 327.941 110.15 328.911C110.393 329.275 110.635 329.517 110.878 329.881C111.242 330.487 111.363 330.972 111.12 331.093C110.878 331.335 109.908 330.851 109.058 329.881C108.209 328.911 107.724 327.941 108.088 327.699Z" fill="#F5F5F5"/>
<g opacity="0.3">
<path opacity="0.3" d="M110.757 329.639C110.757 329.639 110.15 328.548 109.301 328.063C109.665 327.821 109.908 327.457 110.271 327.094C110.271 327.094 111.12 328.548 111.12 329.276L110.757 329.639Z" fill="black"/>
</g>
<path d="M120.46 339.337C120.46 338.973 121.552 338.731 122.765 338.731C123.129 338.731 123.614 338.852 123.857 338.973C124.463 339.095 124.948 339.458 124.948 339.701C124.948 340.064 123.857 340.307 122.644 340.307C121.431 340.186 120.46 339.822 120.46 339.337Z" fill="#F5F5F5"/>
<g opacity="0.3">
<path opacity="0.3" d="M123.857 338.973C123.857 338.973 122.644 338.731 121.674 338.852C121.674 338.489 121.674 338.004 121.674 337.519C121.674 337.519 123.372 338.004 123.857 338.489V338.973Z" fill="black"/>
</g>
<path d="M134.652 336.548C134.531 336.184 135.38 335.578 136.472 335.093C136.836 334.972 137.2 334.851 137.564 334.851C138.17 334.73 138.655 334.851 138.777 335.093C138.898 335.457 138.049 336.063 136.957 336.548C135.865 336.912 134.774 336.912 134.652 336.548Z" fill="#F5F5F5"/>
<g opacity="0.3">
<path opacity="0.3" d="M137.563 334.852C137.563 334.852 136.35 334.973 135.501 335.579C135.38 335.215 135.258 334.731 135.016 334.367C135.016 334.367 136.714 334.124 137.442 334.367L137.563 334.852Z" fill="black"/>
</g>
<path d="M149.208 328.912C148.844 328.669 149.087 327.7 149.693 326.609C149.936 326.245 150.057 325.881 150.3 325.639C150.785 325.154 151.149 324.911 151.391 325.033C151.755 325.275 151.513 326.245 150.906 327.336C150.3 328.427 149.572 329.154 149.208 328.912Z" fill="#F5F5F5"/>
<g opacity="0.3">
<path opacity="0.3" d="M150.3 325.759C150.3 325.759 149.572 326.729 149.208 327.699C148.844 327.456 148.48 327.335 147.995 327.093C147.995 327.093 149.087 325.759 149.815 325.517L150.3 325.759Z" fill="black"/>
</g>
<path d="M119.247 316.668C119.49 318.123 118.883 319.335 118.034 319.577C117.064 319.699 116.094 318.729 115.851 317.274C115.608 315.82 116.215 314.607 117.064 314.365C118.034 314.244 119.005 315.213 119.247 316.668Z" fill="#E0E0E0"/>
<path d="M115.851 302.121C116.943 301.273 118.398 301.151 119.005 301.879C119.611 302.606 119.126 303.94 118.034 304.909C116.943 305.758 115.487 305.879 114.881 305.152C114.274 304.424 114.759 303.091 115.851 302.121Z" fill="#E0E0E0"/>
<path d="M126.525 323.82C126.647 324.79 126.04 325.639 125.191 325.76C124.221 325.881 123.372 325.275 123.25 324.427C123.129 323.457 123.736 322.608 124.585 322.487C125.434 322.244 126.283 322.972 126.525 323.82Z" fill="#E0E0E0"/>
<path d="M135.744 306.849C135.138 307.819 133.803 308.061 132.833 307.455C131.863 306.849 131.62 305.515 132.226 304.546C132.833 303.576 134.167 303.333 135.138 303.939C136.108 304.546 136.35 305.879 135.744 306.849Z" fill="#E0E0E0"/>
<path d="M135.38 324.184C135.501 324.911 135.016 325.518 134.41 325.639C133.682 325.76 133.075 325.275 132.954 324.669C132.833 323.942 133.318 323.336 133.924 323.214C134.652 323.093 135.259 323.578 135.38 324.184Z" fill="#E0E0E0"/>
<path d="M154.181 311.94C153.817 312.062 153.332 311.092 153.089 309.88C152.968 309.516 152.968 309.152 152.968 308.789C152.968 308.182 153.089 307.698 153.332 307.576C153.696 307.455 154.181 308.425 154.424 309.637C154.666 310.728 154.545 311.819 154.181 311.94Z" fill="#F5F5F5"/>
<g opacity="0.3">
<path opacity="0.3" d="M152.847 308.91C152.847 308.91 152.968 310.122 153.332 311.092C152.968 311.213 152.483 311.334 151.998 311.455C151.998 311.455 151.998 309.758 152.362 309.031L152.847 308.91Z" fill="black"/>
</g>
<path d="M147.145 299.818C146.903 300.06 145.933 299.575 145.083 298.727C144.841 298.363 144.598 298.121 144.356 297.878C143.992 297.272 143.87 296.787 144.113 296.666C144.356 296.424 145.326 296.909 146.175 297.757C147.024 298.606 147.509 299.575 147.145 299.818Z" fill="#F5F5F5"/>
<g opacity="0.3">
<path opacity="0.3" d="M144.476 297.878C144.476 297.878 145.083 298.969 145.932 299.454C145.568 299.697 145.326 300.06 144.962 300.303C144.962 300.303 144.113 298.848 144.113 298.121L144.476 297.878Z" fill="black"/>
</g>
<path d="M139.504 289.999C139.383 290.362 138.291 290.362 137.199 289.999C136.835 289.877 136.472 289.756 136.108 289.514C135.501 289.15 135.137 288.786 135.259 288.544C135.38 288.18 136.472 288.18 137.563 288.544C138.776 289.029 139.625 289.635 139.504 289.999Z" fill="#F5F5F5"/>
<g opacity="0.3">
<path opacity="0.3" d="M136.228 289.635C136.228 289.635 137.319 290.241 138.29 290.241C138.168 290.605 138.047 291.09 137.926 291.575C137.926 291.575 136.47 290.726 135.985 290.12L136.228 289.635Z" fill="black"/>
</g>
<path d="M125.797 289.756C125.919 290.12 124.948 290.605 123.735 290.969C123.371 291.09 123.008 291.09 122.644 291.09C122.037 291.09 121.552 290.969 121.431 290.726C121.309 290.362 122.28 289.877 123.493 289.514C124.706 289.15 125.676 289.393 125.797 289.756Z" fill="#F5F5F5"/>
<g opacity="0.3">
<path opacity="0.3" d="M122.765 291.09C122.765 291.09 123.978 291.09 124.948 290.605C125.07 290.968 125.07 291.453 125.191 291.938C125.191 291.938 123.493 291.938 122.886 291.575L122.765 291.09Z" fill="black"/>
</g>
<path d="M139.868 318.85C139.383 320.184 138.291 321.032 137.442 320.79C136.472 320.547 136.108 319.093 136.593 317.759C137.078 316.426 138.17 315.577 139.019 315.82C139.868 316.183 140.353 317.517 139.868 318.85Z" fill="#E0E0E0"/>
<path d="M129.8 311.455C130.043 312.91 129.072 314.244 127.738 314.486C126.282 314.729 124.948 313.759 124.705 312.425C124.463 310.971 125.433 309.637 126.768 309.395C128.102 309.031 129.436 310.001 129.8 311.455Z" fill="#E0E0E0"/>
<path d="M126.525 352.914C105.298 352.914 88.0742 335.7 88.0742 314.486C88.0742 293.272 105.298 276.058 126.525 276.058C147.752 276.058 164.977 293.272 164.977 314.486C164.977 335.7 147.752 352.914 126.525 352.914ZM126.525 278.482C106.633 278.482 90.5002 294.605 90.5002 314.486C90.5002 334.367 106.633 350.49 126.525 350.49C146.418 350.49 162.551 334.367 162.551 314.486C162.551 294.605 146.418 278.482 126.525 278.482Z" fill="#263238"/>
<path d="M151.27 286.12L100.689 340.549L103.115 342.853L153.696 288.302L151.27 286.12Z" fill="#263238"/>
<g opacity="0.3">
<g opacity="0.3">
<path opacity="0.3" d="M59.8117 380.311C74.0035 370.249 81.5239 353.157 84.3137 336.064C87.2249 318.971 86.1332 301.515 86.7397 284.18C87.1036 273.027 88.6804 260.784 96.8073 253.146C100.082 250.116 104.692 247.085 104.206 242.6C103.843 238.721 99.3546 236.175 95.4731 236.902C91.5916 237.508 88.5591 240.418 86.1332 243.57C76.4294 256.662 77.0359 274.361 76.4294 290.605C75.3378 322.244 68.3025 353.642 56.0515 382.736" fill="black"/>
</g>
</g>
<path d="M202.457 212.051C202.457 212.051 238.24 212.657 248.793 240.903C256.798 262.602 266.866 319.456 266.866 319.456L209.735 310.364L202.457 212.051Z" fill="#E8505B"/>
<path d="M154.302 402.374C154.302 402.374 154.181 402.616 153.817 402.98C153.453 403.465 152.968 403.95 152.483 404.677C151.27 406.132 149.45 408.314 147.146 410.86C144.841 413.405 141.93 416.315 138.655 419.467C135.38 422.618 131.62 425.892 127.496 429.165C123.372 432.438 119.369 435.468 115.608 438.014C111.848 440.56 108.331 442.742 105.42 444.439C102.508 446.136 99.9612 447.47 98.263 448.439C97.4139 448.803 96.8075 449.167 96.3223 449.409C95.8371 449.652 95.5945 449.773 95.5945 449.773C95.5945 449.773 95.8371 449.652 96.201 449.409C96.6862 449.167 97.2926 448.803 98.1417 448.318C99.8399 447.348 102.266 446.015 105.177 444.196C108.088 442.378 111.484 440.196 115.245 437.65C119.005 435.105 123.008 432.074 127.01 428.801C131.013 425.528 134.773 422.255 138.17 419.103C141.445 415.951 144.356 413.163 146.661 410.617C148.965 408.072 150.906 406.132 152.119 404.677C152.725 403.95 153.211 403.465 153.574 402.98C154.06 402.495 154.302 402.374 154.302 402.374Z" fill="#263238"/>
<path d="M205.49 262.117C205.49 262.117 205.368 261.511 205.126 260.42C204.883 259.329 204.641 257.632 204.519 255.571C204.277 251.571 204.277 245.752 205.611 239.69C206.218 236.66 207.067 233.75 208.037 231.205C208.522 229.871 209.129 228.78 209.614 227.689C210.22 226.598 210.706 225.628 211.191 224.78C211.797 223.931 212.161 223.083 212.768 222.477C213.253 221.87 213.617 221.264 214.102 220.901C214.83 220.052 215.315 219.567 215.315 219.688C215.436 219.81 213.617 221.628 211.555 225.022C211.069 225.871 210.584 226.841 209.978 227.932C209.493 229.023 209.007 230.114 208.522 231.447C207.552 233.993 206.703 236.781 206.096 239.812C204.762 245.873 204.641 251.449 204.883 255.571C205.005 257.632 205.126 259.208 205.247 260.299C205.49 261.511 205.611 262.117 205.49 262.117Z" fill="#263238"/>
<path d="M196.513 78.9466C200.152 84.4017 201.001 91.554 198.575 97.6152C197.241 101.009 195.058 104.767 196.756 108.041C198.575 111.314 203.063 111.435 206.581 112.647C212.646 114.708 216.649 121.739 215.314 128.043C214.829 130.346 213.737 132.528 214.223 134.831C214.708 137.134 216.77 138.832 218.225 140.65C222.107 145.257 223.32 151.924 221.258 157.5C219.196 163.077 214.101 167.562 208.158 168.532C205.489 169.017 202.578 168.895 200.274 170.35C197.605 171.926 196.392 175.199 194.573 177.623C190.934 182.351 184.141 184.533 178.561 182.594C172.86 180.775 168.736 174.957 168.615 169.017" fill="#263238"/>
<path d="M151.512 59.3081C157.819 55.3077 159.396 45.9734 156 39.3061C152.604 32.6387 145.326 28.6383 137.805 27.4261C127.131 25.7289 115.608 29.4869 108.088 37.2453C103.964 41.4881 100.689 46.9432 95.1089 48.8828C90.257 50.58 84.7986 49.0041 79.7041 49.7314C72.7902 50.58 66.9679 55.5502 63.4503 61.4902C59.9327 67.4302 58.4771 74.34 57.6281 81.2498C56.9003 87.5535 56.4151 94.4633 52.0484 99.0698C47.803 103.555 41.0104 104.525 35.6733 107.677C25.7269 113.738 22.4519 128.527 29.002 138.104C31.064 141.135 34.0964 143.923 34.339 147.681C34.5816 151.075 32.3983 154.106 31.3066 157.258C28.6381 165.622 35.4307 175.441 44.1641 175.926C48.5308 176.169 53.2614 174.472 57.2642 176.411C61.1457 178.351 62.6012 183.079 65.1485 186.715C70.1217 193.746 80.4319 196.413 88.0736 192.655C91.3486 191.079 94.3811 188.412 98.02 188.655C101.659 188.897 104.449 191.928 107.966 192.655C112.576 193.504 116.942 190.11 119.732 186.352C122.522 182.472 124.341 177.987 127.859 174.957C132.468 170.835 138.897 169.865 144.719 167.804C157.577 163.319 168.372 153.136 173.467 140.529C178.561 127.921 177.833 113.132 171.647 101.009" fill="#263238"/>
<path d="M164.976 69.3698C170.434 69.9759 174.558 74.5825 174.437 80.1588L168.13 222.84C167.887 239.691 143.264 249.146 125.191 248.782C106.996 248.419 106.39 239.448 106.147 223.446C105.783 196.656 105.783 186.594 105.783 186.715C105.783 186.715 82.7366 182.836 78.006 152.772C75.7014 137.862 76.4292 113.374 77.7634 93.3723C78.9764 75.3098 90.9848 53.2469 108.937 55.1865L164.976 69.3698Z" fill="#FFBE9D"/>
<path d="M87.8308 110.465C87.7095 112.526 89.4077 114.223 91.591 114.344C93.6531 114.465 95.4725 112.89 95.5938 110.829C95.7151 108.768 94.017 107.071 91.8336 106.95C89.6503 106.95 87.8308 108.525 87.8308 110.465Z" fill="#263238"/>
<path d="M83.1004 107.071C83.5856 107.556 86.4967 105.374 90.6208 105.495C94.7449 105.495 97.7773 107.556 98.2625 107.071C98.5051 106.828 98.0199 105.98 96.6856 105.01C95.3514 104.04 93.168 103.07 90.6208 103.07C88.0736 103.07 85.8902 104.04 84.5559 105.01C83.2217 105.98 82.8578 106.828 83.1004 107.071Z" fill="#263238"/>
<path d="M127.616 112.041C127.495 114.102 129.193 115.799 131.377 115.92C133.439 116.041 135.258 114.465 135.379 112.404C135.501 110.344 133.803 108.647 131.619 108.525C129.436 108.404 127.616 109.98 127.616 112.041Z" fill="#263238"/>
<path d="M124.22 108.162C124.705 108.647 127.616 106.465 131.74 106.586C135.865 106.586 138.897 108.647 139.382 108.162C139.625 107.919 139.14 107.071 137.805 106.101C136.471 105.131 134.288 104.161 131.74 104.161C129.193 104.161 127.01 105.131 125.676 106.101C124.463 107.071 123.977 107.919 124.22 108.162Z" fill="#263238"/>
<path d="M108.694 137.619C108.694 137.377 106.147 136.892 101.902 136.407C100.81 136.286 99.8395 136.043 99.7182 135.316C99.4756 134.589 99.9608 133.376 100.446 132.164C101.416 129.618 102.508 126.952 103.6 124.163C107.966 112.647 111.12 103.313 110.635 103.07C110.15 102.949 106.268 112.041 101.902 123.557C100.81 126.345 99.8395 129.134 98.8691 131.679C98.5052 132.892 97.7775 134.225 98.2626 135.801C98.5052 136.649 99.3543 137.134 99.9608 137.377C100.689 137.619 101.295 137.619 101.78 137.619C106.147 137.862 108.694 137.862 108.694 137.619Z" fill="#263238"/>
<path d="M105.783 186.594C105.783 186.594 126.04 187.928 146.054 175.926C146.054 175.926 135.865 197.141 105.783 194.231V186.594V186.594Z" fill="#EB996E"/>
<path d="M110.392 147.56C111.847 145.62 114.516 144.529 117.063 144.772C118.883 145.014 120.702 145.863 121.794 147.317C122.886 148.772 123.128 150.833 122.158 152.288C121.066 153.863 118.64 154.227 116.699 153.621C114.759 153.015 113.06 151.803 111.362 150.469C110.877 150.105 110.513 149.742 110.149 149.257C109.907 148.772 109.785 148.166 110.149 147.681" fill="#EB996E"/>
<path d="M120.945 140.529C120.217 140.529 120.217 145.014 116.336 148.166C112.454 151.318 107.724 150.833 107.602 151.439C107.481 151.681 108.694 152.288 110.635 152.409C112.576 152.53 115.487 151.803 117.913 149.863C120.217 147.923 121.309 145.256 121.43 143.438C121.673 141.62 121.188 140.408 120.945 140.529Z" fill="#263238"/>
<path d="M122.158 102.101C122.886 103.07 126.646 101.252 131.498 100.282C136.229 99.1911 140.474 99.3124 140.717 98.2214C140.838 97.6152 139.868 96.8879 138.048 96.2818C136.229 95.6756 133.56 95.5544 130.649 96.1605C127.738 96.7666 125.433 97.9789 123.856 99.3124C122.401 100.525 121.794 101.616 122.158 102.101Z" fill="#263238"/>
<path d="M83.3431 96.8878C83.8283 98.1001 87.4672 98.4637 91.47 100.04C95.4728 101.494 98.5052 103.555 99.7182 102.949C100.203 102.585 100.082 101.494 98.8691 100.161C97.7775 98.7062 95.5941 97.1303 92.9256 96.0392C90.1357 95.0694 87.4672 94.827 85.769 95.1907C83.9496 95.5543 83.1005 96.2817 83.3431 96.8878Z" fill="#263238"/>
<path d="M148.48 52.8832C148.48 58.9445 145.69 64.8845 141.081 68.7637C136.471 72.6428 130.164 74.34 124.22 73.249C119.611 72.4004 114.638 70.0971 110.635 72.5216C106.511 75.0673 106.268 81.371 102.629 84.6441C97.2924 89.2506 88.9229 84.8865 82.1302 86.9474C76.9145 88.5233 73.6395 93.4935 70.2431 97.6151C66.8468 101.737 61.6311 105.737 56.4153 104.161C56.7792 99.5547 57.1431 94.827 58.4773 90.3417C59.8116 85.8563 62.4801 81.6135 66.3616 79.0678C68.545 77.6131 70.9709 76.7645 73.033 75.1886C77.3997 71.6731 78.37 65.6118 81.0386 60.7628C84.4349 54.4591 91.1062 50.0951 98.2627 49.3677C104.206 48.7616 110.271 50.58 115.972 49.1253C120.218 48.0342 123.978 45.2461 128.223 44.5187C136.593 42.9428 144.477 49.004 150.542 54.944" fill="#263238"/>
<path d="M164.248 117.981C165.097 117.738 168.736 123.072 162.914 124.285C152.846 126.588 151.512 106.828 153.695 101.252C150.056 97.9789 146.296 94.7058 143.506 90.5841C140.716 86.4625 138.29 75.1886 138.897 70.2184C135.258 70.4608 119.732 65.3694 121.43 64.8845C125.19 63.7935 132.953 61.369 134.894 58.0959C139.261 50.9437 147.024 46.2159 154.908 46.5796C162.792 47.0645 170.434 53.2469 172.011 61.6114C181.593 61.7327 190.933 67.6727 195.543 76.7645C200.152 85.8564 199.788 97.494 194.693 106.222C193.359 108.525 191.661 110.829 191.661 113.496C191.661 116.89 194.087 119.436 195.785 122.224C200.516 129.74 200.152 140.165 196.513 148.287C192.874 156.53 190.205 159.319 184.99 161.016C174.679 164.289 186.688 185.382 169.585 185.382" fill="#263238"/>
<path d="M163.884 126.224C164.248 119.799 171.162 115.557 176.742 118.83C179.774 120.527 182.079 124.163 181.836 130.952C181.109 149.015 163.035 144.529 163.035 144.044C163.035 143.559 163.521 133.74 163.884 126.224Z" fill="#FFBE9D"/>
<path d="M168.858 137.256C168.979 137.256 169.222 137.498 169.707 137.741C170.192 137.983 171.162 138.225 172.011 137.862C173.952 137.256 175.65 134.225 175.893 131.073C176.014 129.376 175.772 127.8 175.165 126.467C174.68 125.133 173.831 124.163 172.86 123.921C171.89 123.679 171.162 124.163 170.92 124.648C170.677 125.133 170.798 125.497 170.677 125.497C170.677 125.497 170.313 125.133 170.434 124.406C170.556 124.042 170.798 123.679 171.162 123.315C171.647 122.951 172.254 122.83 172.982 122.951C174.316 123.072 175.529 124.406 176.135 125.861C176.742 127.315 177.106 129.134 176.985 130.952C176.742 134.589 174.68 137.983 172.011 138.589C170.677 138.832 169.707 138.468 169.1 137.983C168.858 137.741 168.736 137.377 168.858 137.256Z" fill="#EB996E"/>
<path d="M30.2149 137.862C30.3361 137.862 29.851 137.256 29.2445 136.165C28.638 135.074 27.7889 133.255 27.6676 130.831C27.425 128.406 27.7889 125.254 29.6084 122.345C31.4278 119.436 34.8241 117.132 39.0695 115.678C43.1936 113.98 48.0455 113.011 52.5335 109.738C56.9002 106.465 59.4475 100.767 60.2965 94.9482C61.2669 89.0082 60.7817 82.8257 61.2669 76.4008C61.5095 73.249 61.9947 70.0971 63.2077 67.0665C64.2993 64.0359 66.1188 61.1265 68.5447 59.0657C71.092 57.0049 74.2457 55.7926 77.3994 55.429C80.5531 55.0653 83.8282 55.1865 86.9819 55.6714C90.1356 56.1563 93.168 56.8837 96.4431 57.0049C99.5968 57.1261 102.993 56.1563 105.176 53.853C107.36 51.671 108.694 49.004 110.15 46.5796C111.484 44.1551 113.303 42.2155 115.365 40.7608C119.611 37.8514 124.705 37.2452 128.951 37.8514C133.317 38.4575 136.835 40.6395 139.382 42.8216C142.051 45.1249 143.749 47.6706 144.962 49.8526C147.267 54.2167 147.63 57.0049 147.752 57.0049C147.752 57.0049 147.752 56.8837 147.752 56.52C147.63 56.1563 147.63 55.6714 147.509 55.0653C147.267 53.7318 146.66 51.9134 145.447 49.6102C144.355 47.4281 142.657 44.7612 139.989 42.3367C137.32 39.9122 133.681 37.7301 129.193 37.0028C124.705 36.2755 119.368 37.0028 114.88 39.9122C112.576 41.3669 110.635 43.5489 109.179 45.9734C107.724 48.3979 106.389 50.9436 104.449 52.8832C102.508 54.8228 99.5968 55.6714 96.5644 55.5502C93.5319 55.5502 90.4995 54.8228 87.3458 54.2167C84.1921 53.7318 80.7957 53.4894 77.3994 53.853C74.0031 54.2167 70.6068 55.429 67.817 57.7322C65.0271 60.0355 63.2077 63.0661 61.9947 66.218C60.7817 69.3698 60.2965 72.7641 60.0539 75.9159C59.5688 82.3408 60.0539 88.5233 59.2049 94.3421C58.3558 100.04 56.0511 105.374 51.927 108.525C47.8029 111.677 42.951 112.768 38.8269 114.465C34.7028 116.041 31.0639 118.466 29.1232 121.618C27.3037 124.769 27.0611 128.043 27.3037 130.588C27.5463 133.134 28.5167 134.952 29.2445 136.043C29.7297 137.377 30.2149 137.862 30.2149 137.862Z" fill="#455A64"/>
<path d="M77.3996 91.7964C77.2783 91.7964 77.3996 93.2511 77.157 95.918C76.9144 98.4637 76.1866 102.343 74.0032 106.465C72.9116 108.525 71.456 110.586 69.6366 112.647C67.8171 114.708 65.3912 116.284 62.7226 117.981C61.3883 118.829 60.0541 119.799 58.9624 121.133C57.7494 122.345 56.9004 124.042 56.4152 125.739C55.5661 129.255 56.1726 132.892 56.4152 136.407C56.6578 139.923 56.2939 143.438 54.1105 145.863C52.0485 148.287 49.016 149.742 46.2262 151.075C43.4364 152.409 40.6465 153.863 38.5845 155.803C37.6141 156.773 36.6437 157.985 36.1586 159.197C35.6734 160.41 35.3095 161.743 35.1882 162.955C34.8243 167.925 37.1289 171.562 38.9484 173.381C39.9188 174.229 40.8891 174.835 41.4956 175.078C42.1021 175.32 42.466 175.441 42.466 175.441C42.5873 175.32 41.0104 174.835 39.191 173.017C37.4928 171.199 35.4308 167.562 35.916 162.955C36.1586 160.652 37.1289 158.349 39.191 156.53C41.1317 154.712 43.8003 153.379 46.5901 152.045C49.3799 150.712 52.5337 149.257 54.9596 146.59C56.1726 145.256 56.9004 143.559 57.2642 141.741C57.6281 139.923 57.6281 138.104 57.5068 136.286C57.2643 132.649 56.6578 129.134 57.5068 125.982C58.2346 122.83 60.7819 120.648 63.3291 118.951C65.8763 117.254 68.4236 115.435 70.243 113.374C72.1838 111.314 73.6394 109.01 74.731 106.949C76.9144 102.585 77.5209 98.7062 77.6422 96.0392C77.6422 94.7058 77.6422 93.6147 77.5209 93.0086C77.5209 92.1601 77.3996 91.7964 77.3996 91.7964Z" fill="#455A64"/>
<path d="M205.974 167.562C205.974 167.562 206.217 167.562 206.581 167.319C207.066 167.198 207.673 166.835 208.4 166.471C209.856 165.501 212.039 163.925 213.737 161.016C215.436 158.228 216.527 153.864 215.193 149.257C213.859 144.772 210.099 140.165 204.398 138.468L204.64 139.317C206.702 136.771 208.522 133.74 209.492 130.225C210.462 126.709 210.099 122.588 207.673 119.314C206.581 117.739 204.883 116.284 202.942 115.678C200.88 114.95 198.818 115.193 196.877 115.314C194.936 115.557 192.874 115.799 191.055 115.557C189.235 115.314 187.537 114.223 186.688 112.405C185.354 109.859 185.354 106.828 186.082 104.161C186.81 101.373 188.022 98.7063 188.629 95.7969C189.963 90.0993 188.993 84.2805 186.567 79.5528C184.141 74.825 180.259 71.3095 176.135 69.2487C172.011 67.1878 167.645 66.4605 163.884 66.703L164.37 67.0666C163.884 63.5511 162.065 60.8842 160.003 59.0658C157.941 57.2474 155.757 56.3988 153.938 55.914C152.119 55.5503 150.663 55.5503 149.693 55.6715C148.722 55.9139 148.237 56.0352 148.237 56.0352C148.237 56.1564 150.299 55.4291 153.817 56.2776C155.515 56.7625 157.698 57.7323 159.518 59.4295C161.458 61.1266 163.157 63.7936 163.52 66.9454V67.3091H163.884C167.523 67.0666 171.647 67.9152 175.65 69.8548C179.532 71.9156 183.292 75.1887 185.475 79.7952C187.78 84.2805 188.629 89.8569 187.416 95.312C186.81 97.9789 185.597 100.646 184.869 103.555C184.141 106.465 184.02 109.859 185.597 112.768C186.567 114.829 188.75 116.163 190.934 116.526C193.117 116.89 195.179 116.526 197.12 116.284C199.061 116.041 201.001 115.92 202.699 116.526C204.398 117.132 205.853 118.223 206.824 119.678C209.007 122.588 209.371 126.346 208.522 129.619C207.673 132.892 205.974 135.801 204.034 138.347L203.549 138.953L204.276 139.195C209.613 140.65 213.252 145.014 214.587 149.136C215.921 153.379 214.95 157.5 213.374 160.288C211.797 163.198 209.856 164.895 208.4 165.865C206.824 167.077 205.974 167.441 205.974 167.562Z" fill="#455A64"/>
<path d="M146.539 59.9142C146.418 60.1567 148.359 60.3991 150.178 62.9449C151.997 65.3693 152.604 70.0971 151.512 75.431L151.391 75.9159L151.876 76.0371C156.364 77.1281 161.337 80.7649 163.521 86.3412C164.006 87.6747 164.37 89.2506 164.491 90.7053C164.491 92.2812 164.248 93.8572 163.885 95.4331C163.642 97.1302 163.278 98.8274 163.157 100.525C163.035 102.343 163.521 104.404 164.612 105.858C166.917 109.253 170.435 110.95 173.588 112.647C176.742 114.223 179.774 115.799 181.958 118.102C186.567 122.587 188.629 128.406 188.75 133.255C188.872 138.104 187.538 141.983 186.325 144.408C185.112 146.832 184.141 148.045 184.262 148.166C184.262 148.166 184.505 147.923 184.99 147.317C185.475 146.711 186.082 145.863 186.81 144.65C188.144 142.226 189.721 138.347 189.6 133.255C189.6 128.285 187.538 122.103 182.807 117.254C180.502 114.829 177.349 113.011 174.195 111.435C171.041 109.859 167.645 108.162 165.704 105.131C163.642 102.343 164.612 98.8274 165.098 95.5543C165.34 93.8572 165.704 92.2812 165.704 90.5841C165.583 88.8869 165.219 87.311 164.612 85.7351C162.065 79.6739 156.849 76.0371 152.119 74.9461L152.483 75.5522C153.574 69.9759 152.725 65.1269 150.663 62.46C149.693 61.1265 148.601 60.5204 147.873 60.1567C146.903 60.0355 146.539 59.9142 146.539 59.9142Z" fill="#455A64"/>
<path d="M147.388 119.193C147.388 119.314 141.93 119.92 135.137 120.405C128.344 120.89 122.886 121.133 122.886 121.011C122.886 120.89 128.344 120.284 135.137 119.799C141.93 119.193 147.388 118.951 147.388 119.193Z" fill="#E8505B"/>
<path d="M148.48 122.224C148.48 122.345 143.021 122.951 136.229 123.436C129.436 123.921 123.978 124.163 123.978 124.042C123.978 123.921 129.436 123.315 136.229 122.83C143.021 122.224 148.48 121.981 148.48 122.224Z" fill="#E8505B"/>
<path d="M97.1708 120.405C97.1708 120.527 93.4106 120.042 88.8013 119.072C84.1921 118.223 80.4319 117.375 80.5531 117.132C80.5531 117.011 84.3133 117.496 88.9226 118.466C93.5319 119.314 97.2921 120.163 97.1708 120.405Z" fill="#E8505B"/>
<path d="M98.2627 123.921C98.2627 124.042 97.171 123.921 95.4728 123.678C93.7747 123.436 91.3487 123.194 88.8015 122.951C86.133 122.709 83.8283 122.587 82.1302 122.587C80.432 122.466 79.3403 122.466 79.3403 122.345C79.3403 122.224 80.432 122.103 82.1302 122.103C83.8283 122.103 86.2543 122.103 88.9228 122.345C91.5913 122.587 93.896 122.951 95.5941 123.194C97.2923 123.557 98.384 123.8 98.2627 123.921Z" fill="#E8505B"/>
<path d="M223.563 370.856C223.563 370.856 223.563 370.613 223.684 370.249C223.805 369.765 223.927 369.28 224.048 368.552C224.412 367.098 224.897 364.916 225.382 362.249C225.867 359.582 226.352 356.43 226.595 352.793C226.838 349.278 226.716 345.277 226.231 341.277C225.746 337.155 225.018 333.276 224.29 329.882C223.563 326.366 222.835 323.214 222.228 320.547C221.622 317.88 221.137 315.82 220.894 314.244C220.773 313.516 220.652 313.031 220.53 312.546C220.409 312.183 220.409 311.94 220.409 311.94C220.409 311.94 220.53 312.183 220.652 312.546C220.773 313.031 220.894 313.516 221.137 314.244C221.501 315.82 221.986 317.88 222.714 320.426C223.32 323.093 224.169 326.245 224.897 329.639C225.625 333.155 226.474 337.034 226.959 341.156C227.444 345.277 227.565 349.278 227.323 352.793C227.08 356.43 226.474 359.582 225.989 362.249C225.382 364.916 224.897 366.976 224.412 368.431C224.169 369.158 224.048 369.643 223.927 370.128C223.563 370.613 223.563 370.856 223.563 370.856Z" fill="#EB996E"/>
<path d="M220.409 311.94L188.023 226.598C188.023 226.598 176.499 186.23 176.499 182.108C176.499 177.987 168.979 176.289 168.979 176.289C168.979 176.289 147.631 178.229 142.294 178.835C136.957 179.441 137.563 185.502 137.563 185.502C137.563 185.502 133.318 188.897 132.469 191.442C131.62 193.988 133.924 199.564 133.924 199.564L131.377 202.959C131.377 202.959 131.862 209.99 132.833 213.263C133.924 216.415 142.051 220.779 144.841 220.294C147.631 219.809 145.326 215.809 145.326 215.809L148.48 216.657C148.48 216.657 153.453 233.871 155.272 238.599C157.213 243.327 166.553 245.266 166.553 245.266C164.976 248.661 163.885 380.674 174.195 390.978C184.505 401.282 201.244 412.193 214.344 408.192C227.566 404.192 240.18 374.128 244.79 357.763C249.763 339.943 254.251 317.152 254.251 317.152L220.409 311.94Z" fill="#FFBE9D"/>
<path d="M158.305 192.534C158.305 192.655 156.728 192.655 154.423 193.261C151.997 193.868 148.722 194.837 145.205 196.05C141.687 197.262 138.412 198.474 136.229 199.444C133.924 200.292 132.59 201.02 132.469 200.899C132.469 200.777 133.803 200.05 135.986 199.08C138.291 198.11 141.444 196.777 144.962 195.565C148.48 194.352 151.876 193.383 154.302 192.898C155.515 192.655 156.485 192.534 157.213 192.534C157.941 192.534 158.305 192.534 158.305 192.534Z" fill="#EB996E"/>
<path d="M169.464 187.079C169.343 187.079 169.707 186.594 169.464 185.745C169.221 184.897 168.494 183.685 166.917 183.2C165.34 182.715 163.399 182.957 161.216 183.079C159.032 183.2 156.607 183.442 154.181 183.685C149.207 184.17 144.719 185.139 141.566 186.109C138.412 187.079 136.471 187.806 136.471 187.806C136.471 187.806 136.956 187.564 137.805 187.079C138.655 186.715 139.868 186.23 141.444 185.624C144.598 184.533 149.086 183.563 154.181 183.079C156.728 182.836 159.154 182.594 161.337 182.472C163.52 182.351 165.583 182.109 167.159 182.715C168.858 183.321 169.707 184.654 169.828 185.624C169.949 186.109 169.828 186.473 169.707 186.715C169.585 186.958 169.464 187.079 169.464 187.079Z" fill="#EB996E"/>
<path d="M147.873 215.688C147.873 215.809 147.388 215.931 146.539 215.809C145.69 215.688 144.598 215.324 143.628 214.476C142.657 213.627 142.051 212.536 141.929 211.809C141.687 210.96 141.808 210.475 141.929 210.475C142.051 210.475 142.051 210.96 142.415 211.688C142.657 212.415 143.264 213.264 144.113 214.112C144.962 214.84 145.932 215.324 146.66 215.446C147.388 215.567 147.873 215.567 147.873 215.688Z" fill="#EB996E"/>
<path d="M142.051 211.081C142.172 211.203 141.202 212.415 139.382 212.9C137.563 213.385 136.107 212.9 136.107 212.779C136.107 212.536 137.563 212.779 139.14 212.294C140.838 211.93 141.93 210.96 142.051 211.081Z" fill="#EB996E"/>
<path d="M188.023 228.053C188.023 228.053 188.023 227.932 187.901 227.81C187.78 227.568 187.78 227.326 187.659 227.083C187.416 226.356 187.174 225.386 186.81 224.052C186.082 221.386 184.99 217.506 183.656 212.657C182.322 207.808 180.745 201.868 179.047 195.08C178.198 191.686 177.227 188.17 176.499 184.291C176.257 183.321 176.257 182.23 176.136 181.381C175.893 180.533 175.286 179.805 174.437 179.199C172.861 177.987 170.92 177.26 168.979 176.775H169.1C163.763 177.26 158.184 177.866 152.483 178.351C149.572 178.593 146.66 178.957 143.749 179.199C143.021 179.321 142.294 179.321 141.566 179.442C140.838 179.684 140.232 179.927 139.746 180.412C138.655 181.381 138.17 182.836 138.048 184.291C138.048 184.776 138.048 185.139 138.048 185.503V185.624L137.927 185.746C136.835 186.594 135.865 187.564 134.895 188.534C134.045 189.503 133.075 190.595 132.833 191.807C132.59 193.019 132.833 194.352 133.196 195.686C133.56 197.019 133.924 198.232 134.409 199.444L134.531 199.565L134.409 199.686C133.56 200.899 132.711 201.99 131.862 203.081L131.983 202.838C132.226 205.626 132.469 208.293 132.954 210.839C133.075 211.445 133.196 212.172 133.439 212.779C133.56 213.142 133.682 213.385 133.803 213.627C134.045 213.87 134.167 214.112 134.288 214.355C135.137 215.324 136.108 216.052 137.078 216.779C139.14 218.112 141.445 219.325 143.628 219.81C144.234 219.931 144.72 219.931 145.205 219.81C145.69 219.688 146.054 219.325 146.175 218.84C146.296 217.87 145.811 216.658 145.326 215.809L145.084 215.324L145.69 215.446C146.782 215.809 147.873 216.052 148.844 216.294H148.965V216.415C150.542 221.749 151.876 226.598 153.21 230.962C153.817 233.144 154.545 235.084 155.151 236.902C155.515 237.872 155.758 238.721 156.243 239.448C156.728 240.175 157.335 240.781 157.941 241.266C159.154 242.236 160.488 242.842 161.58 243.327C162.672 243.812 163.642 244.176 164.491 244.418C165.34 244.661 165.947 244.903 166.311 245.024C166.674 245.146 166.917 245.146 166.917 245.267C166.917 245.267 166.674 245.267 166.311 245.146C165.825 245.024 165.219 244.903 164.491 244.661C163.642 244.418 162.672 244.055 161.58 243.57C160.488 243.085 159.154 242.479 157.82 241.509C157.213 241.024 156.607 240.418 156 239.69C155.515 238.963 155.151 237.993 154.909 237.145C154.302 235.326 153.574 233.387 152.968 231.205C151.634 226.962 150.178 222.113 148.601 216.658L148.722 216.779C147.631 216.537 146.66 216.173 145.569 215.93L145.811 215.567C146.296 216.537 146.903 217.628 146.782 218.961C146.782 219.688 146.175 220.295 145.447 220.416C144.841 220.537 144.113 220.537 143.507 220.416C141.081 219.81 138.897 218.719 136.714 217.385C135.622 216.658 134.652 215.809 133.803 214.839C133.56 214.597 133.439 214.233 133.196 213.991C133.075 213.627 132.833 213.385 132.833 213.021C132.59 212.415 132.469 211.688 132.347 211.081C131.862 208.415 131.62 205.748 131.377 202.959V202.838L131.498 202.717C132.347 201.626 133.196 200.414 134.045 199.323V199.686C133.56 198.474 133.075 197.141 132.833 195.807C132.59 194.474 132.226 193.14 132.469 191.686C132.833 190.231 133.803 189.14 134.773 188.049C135.744 186.958 136.714 186.109 137.806 185.139L137.684 185.382C137.684 184.897 137.684 184.412 137.684 184.048C137.806 182.472 138.412 180.897 139.625 179.805C140.232 179.199 140.959 178.957 141.687 178.714C142.415 178.593 143.264 178.472 143.992 178.351C147.024 178.108 149.935 177.745 152.725 177.502C158.547 176.896 164.006 176.411 169.343 175.926C171.405 176.532 173.346 177.26 175.044 178.472C175.893 179.078 176.621 179.927 176.863 181.018C177.106 182.109 177.106 182.957 177.227 183.927C177.955 187.685 178.804 191.322 179.653 194.716C181.351 201.505 182.928 207.445 184.141 212.294C185.475 217.143 186.446 221.022 187.174 223.81C187.537 225.144 187.78 226.113 187.901 226.841C188.023 227.204 188.023 227.447 188.144 227.689C188.023 228.053 188.023 228.053 188.023 228.053Z" fill="#EB996E"/>
<path d="M121.552 212.779C120.46 209.749 116.821 207.445 116.821 207.445C116.821 207.445 120.703 202.96 118.762 201.505C116.821 200.051 112.333 198.111 112.333 198.111C112.333 198.111 113.425 194.717 111.727 193.626C110.029 192.535 80.9174 189.746 80.9174 189.746C80.9174 189.746 77.2785 191.928 76.1868 196.535C75.0951 201.263 62.1163 241.024 62.1163 241.024L35.9162 291.333L17.9642 286.484C17.9642 286.484 5.7132 341.035 4.25763 349.278C2.80207 357.521 -3.26279 372.917 2.31688 382.009C8.01784 390.979 12.991 402.981 24.1504 404.92C34.7032 406.739 43.3153 408.436 50.8357 397.041C54.7172 391.222 70.7284 341.035 70.7284 341.035L86.0119 255.329C87.71 254.117 89.6508 252.298 91.4702 249.51C96.5647 241.994 104.934 240.297 106.875 234.721C108.816 229.144 109.422 226.114 109.422 226.114C109.422 226.114 122.522 215.689 121.552 212.779Z" fill="#FFBE9D"/>
<path d="M61.9951 241.024C61.9951 241.024 61.9951 240.903 61.9951 240.781C61.9951 240.539 62.1164 240.297 62.2377 240.054C62.4803 239.327 62.7229 238.357 63.0868 237.145C63.9358 234.599 65.0275 230.841 66.4831 226.234C67.9386 221.507 69.7581 215.93 71.6988 209.627C72.6692 206.475 73.7609 203.081 74.8526 199.565C75.0952 198.716 75.3378 197.747 75.5803 196.898C75.8229 195.928 76.0655 194.958 76.5507 194.11C77.3998 192.292 78.7341 190.716 80.5535 189.625H80.6748H80.7961C88.6804 190.352 97.2925 191.201 106.147 192.413C107.967 192.655 109.544 192.898 111.363 193.383C111.848 193.504 112.212 193.989 112.455 194.352C112.697 194.837 112.819 195.322 112.819 195.686C112.819 196.656 112.697 197.504 112.455 198.353L112.333 197.989C114.517 198.959 116.7 199.929 118.762 201.383C119.005 201.626 119.247 201.868 119.369 202.232C119.49 202.596 119.49 202.959 119.49 203.202C119.369 203.808 119.126 204.414 118.883 204.899C118.398 205.99 117.67 206.96 116.943 207.808L116.821 207.323C118.762 208.657 120.582 210.354 121.552 212.536C121.673 212.779 121.795 213.142 121.673 213.506C121.673 213.87 121.552 214.112 121.431 214.354C121.188 214.839 120.945 215.324 120.582 215.809C119.975 216.779 119.247 217.506 118.52 218.355C115.608 221.507 112.455 224.174 109.544 226.477L109.665 226.356C109.18 228.659 108.452 230.72 107.845 232.781C107.481 233.75 107.239 234.72 106.754 235.69C106.269 236.66 105.662 237.387 105.056 238.115C103.721 239.448 102.266 240.418 100.931 241.388C99.5972 242.357 98.3842 243.085 97.2925 243.933C95.2305 245.509 93.6536 246.964 92.8045 248.055C92.3193 248.54 92.0767 249.025 91.8342 249.267C91.5916 249.51 91.4703 249.631 91.4703 249.631C91.4703 249.631 91.8342 249.025 92.6832 247.934C93.5323 246.843 94.9879 245.388 97.1712 243.691C98.2629 242.842 99.4759 241.994 100.689 241.145C102.023 240.175 103.479 239.206 104.692 237.872C105.298 237.266 105.905 236.417 106.269 235.569C106.632 234.72 106.996 233.629 107.239 232.659C107.845 230.599 108.573 228.538 109.058 226.234V226.113H109.18C112.091 223.689 115.123 221.143 118.034 217.991C118.762 217.264 119.49 216.415 120.096 215.445C120.46 214.961 120.703 214.597 120.945 214.112C121.188 213.627 121.309 213.142 121.067 212.657C120.218 210.718 118.398 209.021 116.579 207.687L116.336 207.445L116.579 207.202C117.307 206.354 117.913 205.384 118.398 204.414C118.883 203.444 119.247 202.111 118.398 201.626C116.579 200.292 114.274 199.323 112.091 198.353L111.848 198.232L111.969 197.989C112.212 197.262 112.333 196.413 112.212 195.565C112.212 194.837 111.848 193.989 111.12 193.746C109.544 193.261 107.724 193.14 106.026 192.776C97.1712 191.564 88.5591 190.716 80.6748 189.988H80.7961C79.2193 191.079 77.885 192.534 77.0359 194.231C76.5507 195.08 76.3081 195.928 76.0655 196.898C75.8229 197.868 75.5803 198.716 75.3378 199.565C74.2461 203.081 73.1544 206.475 72.184 209.627C70.122 215.93 68.3025 221.507 66.7257 226.234C65.1488 230.841 63.9358 234.478 63.0868 237.023C62.7229 238.236 62.359 239.206 62.1164 239.933C61.9951 240.175 61.8738 240.539 61.8738 240.66C62.1164 240.903 61.9951 241.024 61.9951 241.024Z" fill="#EB996E"/>
<path d="M110.271 225.628C110.271 225.628 110.15 225.75 110.029 226.113C109.786 226.356 109.544 226.841 109.058 227.325C108.209 228.295 106.875 229.75 105.056 231.447C104.207 232.296 102.994 233.023 101.417 233.265C99.9611 233.508 98.1417 233.144 97.05 231.811C96.4435 231.083 96.2009 230.114 96.4435 229.265C96.6861 228.295 97.1713 227.568 97.6565 226.841C98.7482 225.386 100.082 224.174 101.538 222.719L101.781 223.204C101.053 223.325 100.082 223.083 99.7185 222.355C99.2333 221.628 99.112 220.901 99.112 220.173L99.7185 220.294C99.5972 220.537 99.5972 220.779 99.4759 221.022C98.3843 223.689 95.5944 225.143 93.0472 224.901L93.2898 224.416C94.2602 225.992 94.7454 227.689 94.9879 229.265C95.2305 230.841 95.2305 232.417 95.2305 233.872C95.2305 236.781 95.1092 239.327 94.8667 241.509C94.5028 243.691 94.0176 245.267 93.4111 246.358C93.1685 246.843 92.9259 247.328 92.8046 247.57C92.6833 247.812 92.562 247.934 92.562 247.934C92.562 247.934 92.8046 247.328 93.2898 246.236C93.775 245.145 94.2602 243.57 94.5028 241.388C94.7454 239.327 94.7454 236.66 94.7454 233.75C94.7454 232.296 94.7454 230.72 94.5028 229.144C94.2602 227.568 93.775 225.992 92.9259 224.537L92.562 224.052H93.1685C95.4731 224.295 98.0204 222.84 98.9908 220.537C99.112 220.294 99.112 220.052 99.2333 219.931L99.8398 218.234V220.052C99.8398 220.779 99.9611 221.385 100.325 221.87C100.689 222.355 101.295 222.598 101.781 222.476L102.751 222.355L102.144 223.083C100.81 224.416 99.4759 225.628 98.3843 227.083C97.8991 227.81 97.4139 228.538 97.2926 229.265C97.1713 229.992 97.2926 230.841 97.7778 231.326C98.7482 232.538 100.325 232.902 101.659 232.659C102.994 232.538 104.207 231.811 105.056 231.083C106.875 229.507 108.209 228.174 109.18 227.204C109.786 226.234 110.15 225.628 110.271 225.628Z" fill="#EB996E"/>
<path d="M93.4109 207.445C93.4109 207.323 94.8665 207.445 97.1711 207.808C99.4757 208.051 102.872 208.536 106.511 209.021H106.632L106.754 209.142C107.36 209.627 107.845 210.233 108.452 210.839C109.18 211.566 109.907 212.415 110.635 213.142C110.756 213.385 110.999 213.506 111.12 213.748C111.242 213.869 111.242 213.991 111.363 214.112C111.484 214.233 111.484 214.476 111.484 214.597C111.484 215.082 111.484 215.567 111.363 216.052C111.242 217.87 111.12 219.567 110.878 221.022C110.756 222.476 110.635 223.567 110.514 224.295C110.392 225.022 110.271 225.507 110.271 225.507C110.271 225.507 110.271 225.022 110.271 224.295C110.271 223.325 110.392 222.234 110.514 220.901C110.635 219.446 110.756 217.749 110.756 215.93C110.756 215.445 110.756 214.961 110.756 214.476C110.756 214.233 110.392 213.748 110.15 213.385C109.543 212.657 108.816 211.809 107.967 211.081C107.36 210.475 106.875 209.99 106.268 209.384L106.39 209.505C102.629 209.021 99.3544 208.536 97.0498 208.051C94.7452 207.808 93.4109 207.566 93.4109 207.445Z" fill="#EB996E"/>
<path d="M117.792 207.445C117.792 207.445 117.307 207.323 116.336 206.96C115.245 206.596 114.032 206.111 112.455 205.505C109.18 204.414 104.57 202.959 99.3546 201.868C94.1388 200.777 89.4082 200.171 86.0119 200.05C84.3138 200.05 83.1008 200.777 82.373 201.505C81.7665 202.232 81.5239 202.717 81.5239 202.717C81.5239 202.717 81.5239 202.596 81.6452 202.353C81.7665 202.111 81.8878 201.747 82.2517 201.383C82.6156 201.02 82.9795 200.535 83.7073 200.292C84.3138 199.929 85.1628 199.807 86.0119 199.686C89.5295 199.686 94.3814 200.292 99.5972 201.262C104.813 202.353 109.422 203.808 112.697 205.02C114.274 205.626 115.608 206.232 116.457 206.596C117.307 207.081 117.792 207.323 117.792 207.445Z" fill="#EB996E"/>
<path d="M112.576 198.11C112.576 198.232 110.756 197.625 107.724 197.019C104.692 196.413 100.446 195.807 95.8368 195.565C93.5322 195.443 91.2275 195.322 89.1655 195.322C87.1034 195.322 85.284 195.08 83.8284 195.322C82.3728 195.565 81.2812 196.413 80.9173 197.019C80.4321 197.747 80.4321 198.231 80.3108 198.231C80.3108 198.231 80.3108 198.11 80.3108 197.868C80.3108 197.625 80.4321 197.262 80.6747 196.898C81.1599 196.171 82.1303 195.201 83.7071 194.837C85.284 194.474 87.1034 194.595 89.1655 194.595C91.2275 194.595 93.4109 194.716 95.8368 194.837C100.567 195.08 104.813 195.686 107.845 196.534C109.301 196.898 110.514 197.262 111.363 197.504C112.212 197.868 112.576 198.11 112.576 198.11Z" fill="#EB996E"/>
<path d="M90.7422 222.719C90.7422 222.84 90.2571 223.083 89.2867 223.083C88.3163 223.204 86.982 222.961 85.7691 222.113C84.5561 221.264 83.8283 220.173 83.5857 219.203C83.3431 218.355 83.3431 217.749 83.4644 217.749C83.5857 217.749 83.707 218.234 84.0709 219.082C84.4348 219.81 85.1626 220.901 86.2543 221.628C87.3459 222.355 88.5589 222.598 89.408 222.598C90.2571 222.719 90.7422 222.598 90.7422 222.719Z" fill="#EB996E"/>
<path d="M12.7485 348.187C12.7485 348.187 12.7485 347.944 12.8698 347.58C12.9911 347.096 13.1124 346.489 13.2337 345.762C13.355 345.398 13.355 344.914 13.4763 344.429C13.5976 343.944 13.7189 343.459 13.8402 342.853C14.0828 341.762 14.4467 340.549 14.8106 339.216C15.5384 336.549 16.7513 333.397 18.2069 329.882C19.6625 326.487 21.3606 322.729 23.3014 318.85C27.1829 311.092 30.8218 304.303 33.2478 299.212C34.4607 296.666 35.4311 294.605 36.0376 293.151C36.2802 292.544 36.5228 291.938 36.7654 291.453C36.8867 291.09 37.008 290.847 37.008 290.847C37.008 290.847 37.008 291.09 36.8867 291.453C36.7654 291.938 36.5228 292.423 36.2802 293.151C35.6737 294.605 34.8246 296.787 33.6116 299.333C31.307 304.546 27.6681 311.456 23.7866 319.093C21.8458 322.972 20.1477 326.609 18.6921 330.124C17.2365 333.518 16.0236 336.67 15.1745 339.337C14.6893 340.671 14.3254 341.883 14.0828 342.974C13.9615 343.459 13.8402 344.065 13.7189 344.429C13.5976 344.914 13.4763 345.277 13.4763 345.762C13.355 346.489 13.1124 347.096 13.1124 347.58C12.8698 347.944 12.7485 348.187 12.7485 348.187Z" fill="#EB996E"/>
<path d="M551.531 218.817L551.289 218.938C549.356 211.56 540.659 176.848 540.659 172.736C540.659 168.14 532.083 166.084 532.083 166.084C532.083 166.084 507.683 168.261 501.523 168.987C495.362 169.712 495.845 177.816 495.845 177.816C495.845 177.816 491.255 180.477 490.289 183.379C489.322 186.282 491.98 192.692 491.98 192.692L489.081 194.627C489.081 194.627 489.564 204.666 490.772 208.415C491.98 212.044 501.281 217.003 504.422 216.519C507.562 216.035 504.905 211.439 504.905 211.439L508.528 212.407C506.958 213.616 508.528 225.711 515.414 227.646C516.38 227.888 517.346 228.372 518.192 228.976L501.039 314.728L453.689 270.824L415.639 331.902C415.639 331.902 480.988 385.24 493.188 390.078C508.045 396.004 519.883 397.456 534.62 388.143C561.315 371.089 553.222 239.983 551.531 218.817Z" fill="#B78876"/>
<path d="M502.489 187.492C502.609 187.612 499.952 189.185 496.57 190.999C493.188 192.813 490.409 194.144 490.409 194.023C490.288 193.902 492.946 192.329 496.328 190.515C499.59 188.701 502.368 187.371 502.489 187.492Z" fill="#995037"/>
<path d="M532.687 178.179C532.566 178.179 532.928 177.574 532.687 176.606C532.445 175.639 531.6 174.187 529.788 173.704C527.976 173.099 525.802 173.462 523.265 173.583C520.728 173.704 518.071 173.945 515.172 174.308C509.495 174.913 504.301 176.002 500.677 177.09C498.865 177.574 497.416 178.179 496.449 178.541C495.483 178.904 494.879 179.146 494.879 179.025C494.879 178.904 495.362 178.662 496.328 178.3C497.295 177.816 498.744 177.332 500.556 176.727C504.18 175.518 509.374 174.429 515.051 173.825C517.95 173.462 520.728 173.341 523.144 173.22C525.681 173.099 527.976 172.857 529.788 173.583C531.721 174.187 532.687 175.76 532.808 176.848C532.929 177.453 532.808 177.816 532.687 178.058C532.808 178.058 532.687 178.179 532.687 178.179Z" fill="#995037"/>
<path d="M507.925 210.955C507.925 211.076 507.321 211.197 506.475 211.076C505.509 210.955 504.301 210.471 503.093 209.625C502.006 208.657 501.402 207.448 501.16 206.48C500.919 205.513 501.039 204.908 501.039 205.029C501.16 205.029 501.16 205.633 501.523 206.359C501.885 207.206 502.489 208.173 503.455 209.141C504.422 209.988 505.63 210.471 506.475 210.713C507.441 210.834 507.925 210.834 507.925 210.955Z" fill="#995037"/>
<path d="M501.402 205.754C501.522 205.875 500.435 207.207 498.382 207.812C496.328 208.417 494.637 207.933 494.758 207.691C494.758 207.449 496.449 207.691 498.261 207.207C499.952 206.602 501.281 205.512 501.402 205.754Z" fill="#995037"/>
<path d="M507.925 360.083C507.925 360.083 507.442 359.599 506.717 358.632C506.355 358.148 505.871 357.543 505.509 356.818C505.026 356.092 504.543 355.245 504.059 354.278C503.576 353.31 503.093 352.222 502.61 351.012C502.127 349.803 501.764 348.472 501.281 347.142C500.557 344.36 500.073 341.215 499.832 337.95C499.349 331.298 499.832 325.371 500.073 321.138C500.194 319.082 500.315 317.389 500.436 316.058C500.556 314.849 500.557 314.244 500.677 314.244C500.677 314.244 500.677 314.97 500.677 316.058C500.677 317.268 500.556 318.961 500.436 321.138C500.315 325.492 499.832 331.419 500.315 337.95C500.557 341.215 501.04 344.239 501.764 347.021C502.127 348.351 502.489 349.682 502.972 350.891C503.335 352.101 503.818 353.189 504.301 354.157C506.355 357.906 508.046 359.962 507.925 360.083Z" fill="#995037"/>
<path d="M396.312 66.0608C394.138 39.0895 371.671 18.1657 344.613 18.1657H341.956C312.966 19.8589 298.108 45.3788 300.524 74.4061L305.718 208.416H372.275L371.671 164.875C371.671 164.875 399.574 160.641 399.936 132.703C400.057 119.036 398.245 91.2178 396.312 66.0608Z" fill="#B78876"/>
<path d="M371.792 164.633C371.792 164.633 354.035 165.721 335.312 153.868C335.312 153.868 343.889 173.946 371.671 171.527L371.792 164.633Z" fill="#995037"/>
<path d="M386.408 84.0817C386.529 86.1378 384.717 87.952 382.543 88.073C380.369 88.1939 378.557 86.6216 378.436 84.4446C378.315 82.3885 380.127 80.5743 382.301 80.4533C384.475 80.3324 386.287 82.0256 386.408 84.0817Z" fill="#263238"/>
<path d="M390.273 79.7276C389.79 80.2114 386.77 78.0344 382.422 78.0344C378.194 78.0344 374.933 80.2114 374.57 79.6067C374.329 79.3648 374.812 78.3972 376.261 77.4296C377.59 76.4621 379.885 75.4945 382.543 75.4945C385.2 75.4945 387.495 76.4621 388.703 77.5506C390.032 78.5182 390.515 79.4857 390.273 79.7276Z" fill="#263238"/>
<path d="M344.251 85.6542C344.372 87.7103 342.56 89.5245 340.386 89.6454C338.212 89.7664 336.4 88.1941 336.279 86.017C336.158 83.9609 337.97 82.1467 340.145 82.0258C342.319 81.9048 344.131 83.5981 344.251 85.6542Z" fill="#263238"/>
<path d="M348.117 81.7849C347.633 82.2687 344.614 80.0917 340.265 80.0917C336.037 80.0917 332.776 82.2687 332.414 81.664C332.172 81.4221 332.655 80.4545 334.105 79.4869C335.433 78.5194 337.728 77.5518 340.386 77.5518C343.043 77.5518 345.338 78.5194 346.546 79.6079C347.875 80.6964 348.358 81.664 348.117 81.7849Z" fill="#263238"/>
<path d="M363.578 112.263C363.578 112.021 366.235 111.537 370.584 111.053C371.671 110.933 372.758 110.691 372.879 109.965C373.121 109.118 372.637 108.03 372.154 106.699C371.188 104.039 370.101 101.257 368.893 98.354C364.424 86.5012 361.162 76.7045 361.645 76.4626C362.129 76.3417 366.115 85.7755 370.584 97.6284C371.671 100.531 372.637 103.313 373.725 105.974C374.087 107.183 374.812 108.635 374.329 110.328C374.087 111.174 373.241 111.779 372.517 111.9C371.792 112.142 371.188 112.142 370.705 112.142C366.356 112.505 363.578 112.505 363.578 112.263Z" fill="#263238"/>
<path d="M351.015 115.165C351.74 115.165 351.74 119.761 355.726 123.148C359.712 126.413 364.665 125.929 364.665 126.655C364.786 126.897 363.578 127.502 361.524 127.623C359.471 127.744 356.451 127.018 354.035 124.962C351.619 122.906 350.532 120.245 350.411 118.31C350.17 116.375 350.653 115.165 351.015 115.165Z" fill="#263238"/>
<path d="M349.928 77.3087C349.204 78.3973 345.217 76.8249 340.144 76.3412C335.071 75.7364 330.843 76.2202 330.36 75.1317C330.239 74.5269 331.085 73.6803 333.017 72.9546C334.829 72.229 337.607 71.7452 340.627 72.108C343.647 72.4708 346.184 73.5594 347.875 74.6479C349.566 75.6155 350.291 76.8249 349.928 77.3087Z" fill="#263238"/>
<path d="M392.206 64.8512C391.602 66.0607 387.857 66.0607 383.63 67.1492C379.402 68.1168 376.02 69.931 374.932 69.2053C374.449 68.8425 374.691 67.7539 376.02 66.4235C377.348 65.0931 379.643 63.6417 382.542 62.9161C385.441 62.1904 388.22 62.3113 389.911 62.9161C391.723 63.3998 392.447 64.2465 392.206 64.8512Z" fill="#263238"/>
<path d="M304.631 94.967C304.148 94.7251 285.425 89.2825 286.029 108.392C286.633 127.502 305.597 123.027 305.597 122.422C305.718 121.817 304.631 94.967 304.631 94.967Z" fill="#B78876"/>
<path d="M301.369 115.286C301.249 115.286 301.007 115.528 300.524 115.77C300.041 116.012 299.074 116.254 297.987 115.891C295.934 115.165 294.122 112.021 294.001 108.634C293.88 106.941 294.243 105.248 294.847 103.796C295.33 102.345 296.296 101.377 297.262 101.135C298.229 100.894 298.953 101.498 299.195 101.982C299.437 102.466 299.316 102.95 299.437 102.95C299.437 102.95 299.799 102.587 299.678 101.861C299.557 101.498 299.316 101.014 298.833 100.652C298.35 100.289 297.746 100.168 297.021 100.168C295.571 100.289 294.243 101.74 293.639 103.192C292.914 104.764 292.552 106.578 292.672 108.513C292.914 112.383 294.967 115.891 297.746 116.617C299.074 116.979 300.161 116.496 300.765 116.012C301.249 115.77 301.369 115.407 301.369 115.286Z" fill="#995037"/>
<path d="M317.193 38.2428L396.675 40.057C394.259 34.6144 389.789 30.1394 384.958 26.5109C374.57 18.6494 361.886 13.8115 348.962 13.5696C336.037 13.3277 309.583 29.0508 300.162 38.0009C292.672 45.1368 292.672 51.3051 292.672 51.3051C291.465 61.5856 297.263 73.3175 299.558 83.477C300.766 88.6778 303.061 104.522 303.061 104.522C307.409 104.522 309.1 101.014 308.375 96.6603L307.53 79.6067C307.53 79.6067 322.387 68.9634 315.381 49.6118C314.294 48.2814 311.878 41.1455 317.193 38.2428Z" fill="#263238"/>
<path d="M299.679 39.0894C297.625 32.0745 299.679 24.3339 304.148 18.6494C308.617 12.9649 315.865 9.57833 323.112 9.82023C326.857 9.94117 330.481 11.0297 334.225 10.6669C341.11 9.94117 346.425 4.3776 352.827 1.71677C362.732 -2.51638 375.415 1.35393 381.455 10.304C383.871 13.9324 385.441 18.4075 389.186 20.7055C392.447 22.6406 396.433 22.5197 400.057 23.6082C407.305 25.7852 412.378 33.5259 411.895 41.1455C411.532 48.7652 406.217 55.6592 399.211 58.6829C392.206 61.7065 383.871 60.8599 377.227 57.1106C371.188 53.724 365.873 48.0395 358.988 48.2814C351.861 48.5233 345.701 55.1754 338.695 53.845C335.071 53.1193 332.172 50.3375 329.514 47.6767C326.857 45.1368 323.716 42.476 320.093 42.2341C316.348 41.9922 314.415 47.1929 315.744 50.5794L299.679 39.0894Z" fill="#263238"/>
<path d="M395.104 29.8975C395.104 29.8975 395.104 30.0184 394.983 30.1394C394.862 30.2603 394.742 30.6231 394.5 30.865C394.017 31.4698 393.292 32.4374 392.205 33.4049C391.118 34.3725 389.548 35.461 387.494 36.1867C385.441 36.9124 382.904 37.1543 380.247 36.6705C377.589 36.0658 374.811 34.7354 372.637 32.3164C370.462 29.8975 369.134 26.7528 367.201 23.9711C366.235 22.5197 364.906 21.3102 363.336 20.4636C361.765 19.617 359.954 19.2541 358.021 19.2541C356.209 19.2541 354.276 19.8588 352.585 20.7055C350.894 21.6731 349.565 23.0035 348.599 24.8177C347.633 26.5109 346.908 28.4461 345.821 30.1394C344.734 31.8326 342.801 33.163 340.748 33.284C338.694 33.4049 336.761 32.6792 335.191 31.7117C333.5 30.7441 332.171 29.4137 330.963 28.2042C328.548 25.6643 326.132 23.2454 323.112 22.6406C320.092 21.9149 317.193 23.0035 315.14 24.5758C312.965 26.1481 311.637 28.0833 310.791 30.0184C309.946 31.9536 309.462 33.6468 309.1 35.0982C308.858 36.5496 308.617 37.759 308.617 38.4847C308.496 39.2104 308.496 39.6942 308.496 39.6942C308.496 39.6942 308.496 39.5732 308.496 39.3313C308.496 39.0895 308.496 38.8476 308.496 38.4847C308.496 37.759 308.617 36.5496 308.858 35.0982C309.1 33.6468 309.583 31.8326 310.429 29.8975C311.274 27.9623 312.724 25.7853 314.898 24.2129C317.072 22.6406 320.092 21.4312 323.354 22.1568C326.615 22.8825 329.152 25.4224 331.567 27.8414C332.775 29.0508 334.104 30.2603 335.674 31.2279C337.245 32.0745 338.936 32.8002 340.748 32.6792C342.559 32.5583 344.251 31.4698 345.217 29.8975C346.304 28.3252 347.029 26.39 347.995 24.5758C348.961 22.7616 350.532 21.1893 352.223 20.2217C354.035 19.2541 355.967 18.7703 358.021 18.6494C359.954 18.6494 361.886 19.0122 363.698 19.8588C365.389 20.7055 366.718 22.1568 367.805 23.6082C369.859 26.5109 371.187 29.6556 373.241 31.9536C375.294 34.2516 377.952 35.582 380.488 36.1867C383.025 36.7915 385.441 36.5496 387.494 35.8239C389.427 35.2191 390.997 34.2516 392.205 33.284C394.259 31.3488 394.983 29.7765 395.104 29.8975Z" fill="#455A64"/>
<path d="M409.478 30.1393C409.478 30.1393 409.72 30.6231 409.841 31.7116C409.961 32.6792 409.961 34.2515 409.478 35.9448C408.995 37.759 408.029 39.6941 406.458 41.5083C404.888 43.3225 402.714 45.0158 400.177 46.1043C394.983 48.4023 389.789 48.1604 386.286 47.6766C384.474 47.4347 383.146 47.0719 382.179 46.83C381.213 46.5881 380.73 46.3462 380.73 46.3462C380.73 46.2253 382.904 46.7091 386.407 47.0719C389.91 47.4347 394.983 47.5557 399.936 45.3786C402.352 44.2901 404.526 42.8388 405.975 41.0245C407.546 39.3313 408.391 37.3961 408.995 35.7029C409.961 32.4373 409.357 30.1393 409.478 30.1393Z" fill="#455A64"/>
<path d="M349.082 98.7166C349.082 98.8376 343.767 99.0797 337.245 99.0797C330.722 99.0797 325.407 98.9586 325.407 98.7166C325.407 98.5956 330.722 98.3536 337.245 98.3536C343.767 98.4746 349.082 98.5956 349.082 98.7166Z" fill="#E8505B"/>
<path d="M347.995 104.522C347.995 104.643 342.801 104.643 336.52 104.28C330.118 103.917 325.045 103.554 325.045 103.433C325.045 103.312 330.239 103.312 336.52 103.675C342.801 103.917 347.995 104.401 347.995 104.522Z" fill="#E8505B"/>
<path d="M396.433 98.1116C396.433 98.2327 392.688 98.5957 387.977 98.8377C383.267 99.0798 379.522 99.0798 379.522 98.9587C379.522 98.8377 383.267 98.4747 387.977 98.2326C392.688 97.8696 396.433 97.8696 396.433 98.1116Z" fill="#E8505B"/>
<path d="M395.104 104.038C395.104 104.159 391.843 104.764 387.857 105.248C383.871 105.732 380.609 105.974 380.609 105.732C380.609 105.611 383.871 105.006 387.857 104.522C391.843 104.038 395.104 103.796 395.104 104.038Z" fill="#E8505B"/>
<path d="M316.227 66.1817C316.227 65.8188 301.128 65.456 294.001 64.6094L296.175 72.229C301.732 73.4385 307.772 73.8013 313.449 73.1966C313.57 73.1966 316.227 68.7216 316.227 66.1817Z" fill="#E0E0E0"/>
<path d="M317.556 60.2552C317.556 60.2552 317.193 60.3762 316.589 60.4971C315.985 60.6181 315.019 60.739 313.932 60.86C311.637 61.1019 308.496 61.1019 305.114 60.6181C301.732 60.1343 298.712 59.4086 296.538 58.8039C294.363 58.1991 293.035 57.8363 293.035 57.7153C293.035 57.5944 294.363 57.9572 296.658 58.3201C298.833 58.8039 301.853 59.4086 305.235 59.8924C308.617 60.3762 311.637 60.4971 313.932 60.3762C316.106 60.3762 317.435 60.1343 317.556 60.2552Z" fill="#E0E0E0"/>
<path d="M402.111 202.368C402.111 202.368 421.8 207.085 431.463 223.413C441.368 240.103 478.451 288.482 478.451 288.482L433.154 352.705L402.111 202.368Z" fill="#455A64"/>
<path d="M447.287 472.927C447.287 472.322 445.716 448.254 445.716 447.528C444.992 416.444 435.087 347.021 435.087 347.021C433.637 336.619 402.956 202.247 402.956 202.247L371.792 188.338L363.578 206.48L304.631 180.598L244.114 213.616L234.088 285.096C234.088 285.096 272.983 375.081 271.776 381.612C270.447 388.143 280.352 425.878 280.352 425.878L279.748 472.806H447.287V472.927Z" fill="#455A64"/>
<g opacity="0.3">
<g opacity="0.3">
<path opacity="0.3" d="M397.158 407.494C389.186 419.105 384.113 427.209 372.517 431.079C350.291 438.457 343.164 434.344 332.293 428.66C323.354 423.943 317.798 413.179 311.396 405.317C294.726 384.635 288.083 371.936 274.312 350.891L269.118 354.519C278.54 382.095 270.93 367.582 285.546 392.86C294.002 407.494 303.423 421.887 316.59 432.409C329.635 443.053 347.029 449.463 363.578 446.197C378.556 443.174 390.998 432.772 401.507 421.645C416.123 406.164 431.946 373.992 433.154 352.705C433.034 354.278 407.546 392.497 397.158 407.494Z" fill="black"/>
</g>
</g>
<path d="M381.938 192.934C381.938 192.934 381.938 193.176 381.697 193.418C381.576 193.781 381.334 194.265 380.972 194.869C380.368 196.2 379.522 198.135 378.435 200.433C376.14 205.271 372.879 212.044 369.134 220.268L369.013 220.51L368.772 220.389C361.766 217.244 353.673 213.495 344.976 209.625C330.843 203.215 318.039 197.288 308.738 193.055C304.148 190.878 300.403 189.185 297.746 187.975C296.538 187.371 295.451 186.887 294.726 186.524C294.364 186.403 294.122 186.282 294.001 186.161C293.881 186.04 293.76 186.04 293.76 186.04C293.76 186.04 293.881 186.04 294.001 186.161C294.243 186.282 294.485 186.403 294.847 186.524C295.572 186.887 296.538 187.25 297.867 187.854C300.524 189.064 304.269 190.757 308.859 192.692C318.16 196.925 330.964 202.731 345.097 209.02C353.673 212.89 361.766 216.64 368.772 219.784L368.651 220.147C372.516 212.044 375.899 205.271 378.194 200.433C379.402 198.135 380.247 196.2 380.972 194.869C381.334 194.265 381.576 193.781 381.697 193.418C381.817 193.176 381.938 192.934 381.938 192.934Z" fill="#263238"/>
<path d="M371.792 188.459C371.913 188.459 371.188 190.152 370.101 192.692C368.893 195.232 367.323 198.74 365.39 202.61C363.457 206.48 361.766 209.867 360.437 212.407C359.109 214.826 358.263 216.398 358.142 216.277C358.142 216.277 358.142 216.156 358.263 216.035C358.384 215.793 358.505 215.551 358.626 215.188C358.988 214.342 359.471 213.374 360.075 212.165C361.404 209.504 362.974 206.117 364.786 202.368C366.598 198.619 368.289 195.232 369.618 192.571C370.222 191.483 370.705 190.394 371.067 189.669C371.55 188.822 371.792 188.459 371.792 188.459Z" fill="#263238"/>
<path d="M417.814 279.049C417.693 279.049 416.606 272.034 415.398 263.446C414.19 254.738 413.465 247.723 413.586 247.723C413.707 247.723 414.794 254.738 416.002 263.325C417.21 272.034 417.934 279.049 417.814 279.049Z" fill="#263238"/>
<g opacity="0.5">
<path opacity="0.5" d="M408.875 267.317H400.54L399.091 258.971L391.602 258.85L393.172 267.679L384.233 267.921L385.441 274.936L394.38 274.815L395.709 282.435L403.198 282.314L401.748 274.211L410.325 273.848L408.875 267.317Z" fill="black"/>
</g>
<path d="M445.716 449.463C445.716 449.463 445.596 449.1 445.596 448.495C445.475 447.77 445.354 446.923 445.233 445.714C444.992 443.295 444.629 439.787 444.146 435.554C443.301 426.967 442.093 415.114 440.764 402.052C439.556 388.989 438.348 377.137 437.623 368.428C437.261 364.195 436.899 360.688 436.778 358.269C436.657 357.059 436.657 356.213 436.536 355.487C436.536 354.882 436.536 354.52 436.536 354.52C436.536 354.52 436.657 354.882 436.657 355.487C436.778 356.213 436.898 357.059 437.019 358.269C437.261 360.688 437.623 364.195 438.106 368.428C438.952 377.016 440.16 388.869 441.489 401.931C442.697 414.993 443.904 426.846 444.629 435.554C444.992 439.787 445.354 443.295 445.475 445.714C445.596 446.923 445.596 447.77 445.716 448.495C445.716 449.1 445.716 449.463 445.716 449.463Z" fill="#263238"/>
<path d="M492.342 226.799C492.342 226.799 493.55 221.357 492.704 220.026C491.98 218.575 489.564 217.124 489.564 217.124C489.564 217.124 488.356 208.536 486.423 205.876C484.249 202.852 475.914 203.215 475.914 203.215C475.914 203.215 474.344 201.159 473.136 199.223C471.928 197.288 454.775 195.958 451.756 195.958C448.736 196.079 447.649 204.182 447.649 204.182C447.649 204.182 441.126 202.973 440.039 203.698C438.952 204.424 430.375 219.422 429.651 222.687C428.926 225.953 433.154 235.749 433.154 235.749C434.12 238.047 440.401 251.11 440.401 251.11L435.811 257.278L358.866 348.472C358.866 348.472 341.231 320.775 320.454 282.556C297.745 240.829 285.304 209.625 260.783 208.899L233.122 284.007C238.92 298.158 313.811 413.179 325.649 424.064C337.486 435.07 351.015 438.578 375.657 429.749C393.534 423.338 457.795 307.35 470.841 283.645L484.974 261.148L495.483 241.918C495.483 241.918 495.603 234.782 496.086 231.879C496.811 228.976 492.342 226.799 492.342 226.799Z" fill="#B78876"/>
<path d="M456.95 201.159C457.07 201.279 456.104 202.126 455.742 203.94C455.5 204.908 455.379 206.117 454.413 207.206C453.93 207.69 453.447 208.173 452.722 208.536C452.118 208.899 451.393 209.141 450.668 209.383C447.89 210.471 446.078 212.528 445.233 214.221C444.266 215.914 444.146 217.124 444.025 217.124C444.025 217.124 444.025 216.761 444.146 216.277C444.266 215.672 444.508 214.947 444.87 214.1C445.716 212.286 447.649 209.988 450.548 208.899C451.997 208.415 453.205 207.811 454.051 206.843C454.896 205.875 455.017 204.787 455.379 203.819C455.742 201.884 456.95 201.159 456.95 201.159Z" fill="#995037"/>
<path d="M451.998 208.294C451.998 208.294 451.635 208.778 450.669 208.657C449.823 208.657 448.616 207.932 448.132 206.722C447.649 205.513 447.649 204.303 447.77 203.578C447.891 202.731 448.012 202.247 448.132 202.368C448.253 202.368 448.253 202.852 448.253 203.698C448.253 204.424 448.253 205.513 448.736 206.601C449.099 207.69 450.065 208.294 450.79 208.415C451.515 208.415 451.998 208.173 451.998 208.294Z" fill="#995037"/>
<path d="M445.112 213.374C444.87 213.374 445.233 212.165 445.716 210.834C446.199 209.625 445.837 208.415 446.078 208.415C446.199 208.415 446.32 208.657 446.441 209.141C446.562 209.625 446.561 210.351 446.32 211.076C445.837 212.407 445.233 213.374 445.112 213.374Z" fill="#995037"/>
<path d="M477.122 213.495C476.88 213.495 477.484 211.076 477.122 208.294C476.88 205.392 475.793 203.336 475.914 203.215C476.035 203.094 477.364 205.271 477.726 208.294C478.209 211.197 477.364 213.495 477.122 213.495Z" fill="#995037"/>
<path d="M488.839 223.292C488.718 223.292 489.081 221.841 489.201 219.905C489.443 218.091 489.322 216.64 489.443 216.519C489.564 216.519 489.926 217.97 489.805 219.905C489.685 221.961 489.081 223.413 488.839 223.292Z" fill="#995037"/>
<path d="M491.255 233.21C491.134 233.089 491.738 231.758 492.342 229.944C492.946 228.13 493.187 226.558 493.308 226.558C493.429 226.558 493.429 228.13 492.946 230.065C492.342 232 491.376 233.331 491.255 233.21Z" fill="#995037"/>
<path d="M362.369 391.166C362.369 391.166 362.007 390.683 361.524 389.594C361.282 389.11 360.92 388.506 360.678 387.78C360.316 387.054 359.954 386.208 359.591 385.24C358.866 383.305 358.142 381.007 357.538 378.467C356.934 375.806 356.451 372.903 356.209 369.759C355.967 366.614 356.088 363.711 356.209 361.051C356.451 358.39 356.813 355.971 357.296 354.036C357.538 353.068 357.779 352.101 357.9 351.375C358.142 350.649 358.263 349.924 358.504 349.44C358.866 348.351 359.108 347.746 359.108 347.746C359.108 347.746 358.987 348.351 358.746 349.44C358.625 350.044 358.383 350.649 358.263 351.496C358.142 352.222 357.9 353.189 357.659 354.157C357.296 356.092 356.934 358.511 356.692 361.172C356.571 363.832 356.451 366.735 356.692 369.88C356.934 372.903 357.417 375.806 358.021 378.467C358.625 381.007 359.35 383.426 359.954 385.24C360.316 386.208 360.678 387.054 360.92 387.78C361.162 388.506 361.524 389.11 361.765 389.715C362.128 390.562 362.369 391.166 362.369 391.166Z" fill="#995037"/>
<path d="M250.878 209.383C250.878 209.383 221.284 221.599 227.082 266.954C227.565 270.703 228.653 274.332 230.344 277.718C239.041 294.893 268.756 353.552 269.118 354.52C269.601 355.608 337.97 306.141 337.97 306.141C337.97 306.141 297.987 188.943 250.878 209.383Z" fill="#455A64"/>
<path d="M230.344 277.718C230.344 277.718 230.464 277.839 230.585 278.081C230.706 278.323 230.947 278.686 231.189 279.169C231.672 280.137 232.397 281.467 233.363 283.282C235.175 286.91 237.953 292.232 241.336 299.005C248.221 312.551 257.884 331.66 269.48 354.398L269.118 354.277C284.7 343.271 302.336 330.935 320.938 317.872C326.736 313.76 332.534 309.769 338.09 305.899L337.97 306.261C333.5 298.279 329.031 290.78 324.441 283.644C319.851 276.508 315.14 269.856 310.912 263.446C306.564 257.036 302.698 250.747 299.316 244.941C295.813 239.136 292.793 233.451 289.773 228.613C286.633 223.776 283.371 219.784 279.868 216.882C276.365 213.979 272.742 212.407 269.722 211.439C266.702 210.592 264.165 210.471 262.474 210.592C261.629 210.592 261.025 210.713 260.542 210.834C260.179 210.955 259.938 210.955 259.938 210.955C259.938 210.955 260.179 210.955 260.542 210.834C260.904 210.713 261.629 210.592 262.474 210.592C264.165 210.471 266.702 210.471 269.722 211.318C272.742 212.165 276.486 213.858 279.989 216.64C283.613 219.542 286.995 223.534 290.136 228.372C293.276 233.209 296.296 238.773 299.799 244.578C303.302 250.384 307.167 256.673 311.516 263.083C315.744 269.494 320.575 276.146 325.166 283.282C329.756 290.417 334.225 298.037 338.694 305.899L338.815 306.141L338.574 306.261C333.138 310.132 327.34 314.123 321.421 318.235C302.819 331.298 285.183 343.634 269.601 354.64L269.359 354.882L269.239 354.64C257.763 331.902 248.1 312.672 241.336 299.126C237.953 292.353 235.296 287.031 233.484 283.402C232.639 281.588 231.914 280.137 231.431 279.169C231.189 278.686 231.068 278.323 230.947 278.081C230.344 277.839 230.344 277.718 230.344 277.718Z" fill="#263238"/>
</svg>
