<svg width="14" height="13" viewBox="0 0 14 13" fill="none" xmlns="http://www.w3.org/2000/svg">
<path d="M13.9332 11.5L7.43321 0.25C7.33633 0.0828125 7.16915 0 7.0004 0C6.83165 0 6.6629 0.0828125 6.56758 0.25L0.0675834 11.5C-0.124604 11.8344 0.116021 12.25 0.500396 12.25H13.5004C13.8848 12.25 14.1254 11.8344 13.9332 11.5ZM6.5004 4.625C6.5004 4.55625 6.55665 4.5 6.6254 4.5H7.3754C7.44415 4.5 7.5004 4.55625 7.5004 4.625V7.5C7.5004 7.56875 7.44415 7.625 7.3754 7.625H6.6254C6.55665 7.625 6.5004 7.56875 6.5004 7.5V4.625ZM7.0004 10.125C6.80413 10.121 6.61726 10.0402 6.47988 9.9C6.3425 9.75978 6.26555 9.5713 6.26555 9.375C6.26555 9.1787 6.3425 8.99022 6.47988 8.85C6.61726 8.70978 6.80413 8.62901 7.0004 8.625C7.19666 8.62901 7.38353 8.70978 7.52091 8.85C7.6583 8.99022 7.73524 9.1787 7.73524 9.375C7.73524 9.5713 7.6583 9.75978 7.52091 9.9C7.38353 10.0402 7.19666 10.121 7.0004 10.125V10.125Z" fill="white"/>
</svg>
