<svg xmlns="http://www.w3.org/2000/svg" viewBox="0 0 500 500"><g id="freepik--background-complete--inject-10"><rect x="43.87" y="59.18" width="120.53" height="212.72" style="fill:#e0e0e0"></rect><path d="M164.9,272.4H43.37V58.68H164.9Zm-120.53-1H163.9V59.68H44.37Z" style="fill:#e0e0e0"></path><path d="M165.58,110.77v-1.34H139.9V58h-1.73v51.43H108V56.49H101.3v52.94h-31V58H68.53v51.43H43.75v1.34H68.53v51.41H43.75v6.73H68.53v53.52H43.75v1.34H68.53v48.1h1.74v-48.1h31v46.6H108v-46.6h30.15v48.1h1.73v-48.1h25.68v-1.34H139.9V168.91h25.68v-6.73H139.9V110.77Zm-95.31,0h31v51.41h-31Zm0,111.66V168.91h31v53.52Zm67.9,0H108V168.91h30.15Zm0-60.25H108V110.77h30.15Z" style="fill:#fafafa"></path><rect x="336.69" y="310.04" width="7.14" height="28.39" style="fill:#ebebeb"></rect><rect x="426.8" y="310.04" width="7.14" height="28.39" style="fill:#ebebeb"></rect><rect x="384.17" y="310.04" width="7.14" height="28.39" style="fill:#e0e0e0"></rect><rect x="460.8" y="310.04" width="7.14" height="28.39" style="fill:#e0e0e0"></rect><rect x="336.69" y="244.58" width="97.39" height="65.46" style="fill:#ebebeb"></rect><rect x="434.08" y="244.58" width="35.12" height="65.46" style="fill:#e0e0e0"></rect><path d="M424.88,277.31a2.89,2.89,0,0,1,0-.37c0-.26,0-.61,0-1.06,0-.95,0-2.32,0-4.09,0-3.57-.05-8.75-.08-15.3l.16.16-78.39.1.26-.26h0v2.65c0,.89,0,1.77,0,2.66v15.49l-.26-.26,55.92.12,16.47.07,4.44,0,1.16,0,.41,0h-.38l-1.12,0-4.39,0-16.41.08-56.1.11h-.25V267.07c0-1.74,0-3.49,0-5.25v-5.31h0l.27-.26,78.39.1H425v.16c0,6.59-.06,11.8-.08,15.39,0,1.76,0,3.11,0,4.06,0,.44,0,.78,0,1S424.88,277.31,424.88,277.31Z" style="fill:#e0e0e0"></path><path d="M389.11,266.9a3.43,3.43,0,1,1-3.43-3.43A3.43,3.43,0,0,1,389.11,266.9Z" style="fill:#e0e0e0"></path><path d="M351.28,219.61l3.84,5.52s-8.64,2.4-8.64,10.07,5.28,9.11,11,9.11,11.27-1.68,11-9.35-7.44-10.55-7.44-10.55l3.6-4.8Z" style="fill:#f5f5f5"></path><path d="M459.69,229.79v14.05H399.26a7,7,0,0,1-7-7h0a7,7,0,0,1,7-7" style="fill:#e0e0e0"></path><path d="M437.46,232.73h22.24a0,0,0,0,1,0,0v8.16a0,0,0,0,1,0,0H437.46a1.75,1.75,0,0,1-1.75-1.75v-4.67A1.75,1.75,0,0,1,437.46,232.73Z" style="fill:#fafafa"></path><path d="M459.69,216.29v14.05H399.26a7,7,0,0,1-7-7h0a7,7,0,0,1,7-7Z" style="fill:#f5f5f5"></path><path d="M437.46,219.23h22.24a0,0,0,0,1,0,0v8.16a0,0,0,0,1,0,0H437.46a1.75,1.75,0,0,1-1.75-1.75V221A1.75,1.75,0,0,1,437.46,219.23Z" style="fill:#e0e0e0"></path><path d="M291.69,77.79c.24-.23,1.89.95,4.05,3.39a37.62,37.62,0,0,1,3.44,4.57,45.89,45.89,0,0,1,3.31,6.19,47.12,47.12,0,0,1,2.26,6.65,38.55,38.55,0,0,1,1,5.64c.3,3.25,0,5.26-.3,5.28-.78,0-1.49-7.81-5.33-16.53S291.11,78.32,291.69,77.79Z" style="fill:#ebebeb"></path><path d="M308,116c-.34,0-1.27-4.25-2.14-11.3s-1.6-16.84-1.88-27.66-.17-20.6,0-27.68.55-11.46.91-11.46.68,4.38.93,11.45.43,16.85.72,27.62.71,20.51,1.12,27.56S308.38,116,308,116Z" style="fill:#ebebeb"></path><path d="M323.78,54.55c.34.19-1,3.2-2.81,8.22s-4.06,12-6.26,19.86-3.86,15-4.88,20.26-1.44,8.5-1.83,8.49-.6-3.39,0-8.77a137.21,137.21,0,0,1,4.19-20.67,137.51,137.51,0,0,1,7.07-19.87C321.53,57.14,323.5,54.38,323.78,54.55Z" style="fill:#ebebeb"></path><path d="M287.69,107v8.61A18.37,18.37,0,0,0,306.06,134h0a18.37,18.37,0,0,0,18.38-18.37V107Z" style="fill:#e0e0e0"></path><path d="M324.77,114.32c0,.15-8.3.26-18.54.26s-18.54-.11-18.54-.26,8.3-.26,18.54-.26S324.77,114.18,324.77,114.32Z" style="fill:#fafafa"></path><path d="M324.77,116.71c0,.15-8.3.26-18.54.26s-18.54-.11-18.54-.26,8.3-.26,18.54-.26S324.77,116.57,324.77,116.71Z" style="fill:#fafafa"></path><rect x="263.14" y="134.02" width="169.57" height="9.81" style="fill:#ebebeb"></rect><rect x="295.29" y="143.83" width="5.59" height="16.98" style="fill:#e0e0e0"></rect><rect x="388.31" y="143.83" width="5.59" height="16.98" style="fill:#e0e0e0"></rect><polygon points="360.04 98.14 356.2 133.78 405.41 133.78 409.5 98.14 360.04 98.14" style="fill:#ebebeb"></polygon><polygon points="362.06 100.7 358.32 131.89 402.74 131.89 406.34 100.7 362.06 100.7" style="fill:#fff"></polygon><polygon points="369.54 105.94 367.24 126.64 395.27 126.64 396.71 105.94 369.54 105.94" style="fill:#e0e0e0"></polygon><polyline points="407.74 113.49 417.9 133.93 405.41 133.78 407.89 112.16" style="fill:#e0e0e0"></polyline></g><g id="freepik--Carpet--inject-10"><ellipse cx="242.03" cy="399.3" rx="172.34" ry="46.6" style="fill:#263238"></ellipse></g><g id="freepik--Plants--inject-10"><path d="M339.39,193.83s-6.9-4.33-14.81,12.11-10.83,25.9-10.83,25.9-2.11,3.45-4.5,1.28-5.74-8.41-9.69-7.18c-4.1,1.27-5.35,5.91-4.4,12.65s2.46,21.6,2.6,22.94-.58,3.29-2.45,2.07-12.7-12.74-17.86-7.27.55,23.83,1.14,25.85.21,2.89-.74,3.42-4.24-3.69-7.45-6.84-7.5-6.24-10.21-2.84-3.29,17.29,10.43,39.51l7,9.88,12.15-1c25.85-3.63,36.17-12.94,37.06-17.2s-4.22-5.58-8.7-6-9.82-.29-10-1.36.23-1.92,2.16-2.76,19.7-8.16,20.62-15.63-14.88-8.44-17-9.1-1.07-2.46,0-3.2,13.52-9.07,19.31-12.65,8.56-7.5,6.93-11.47c-1.58-3.82-8.52-2.42-11.72-2.87s-1.89-4.29-1.89-4.29,5.41-8.28,13-24.86-.34-19.16-.34-19.16" style="fill:#FF725E"></path><path d="M332.28,208.55a2.37,2.37,0,0,1-.14.36l-.44,1c-.41.93-1,2.25-1.76,3.94-1.53,3.42-3.78,8.35-6.6,14.43-5.62,12.17-13.54,28.91-22.35,47.36S284.27,310.83,278.51,323c-2.84,6-5.15,10.94-6.75,14.36l-1.85,3.9-.49,1a3.58,3.58,0,0,1-.18.34,1.32,1.32,0,0,1,.13-.36l.45-1,1.75-3.94c1.53-3.42,3.79-8.35,6.6-14.44,5.62-12.16,13.54-28.9,22.35-47.36s16.72-35.16,22.49-47.28c2.84-6,5.14-10.95,6.75-14.36l1.84-3.91.5-1A1.59,1.59,0,0,1,332.28,208.55Z" style="fill:#263238"></path><path d="M303.9,234.86a19.66,19.66,0,0,1,1.11,3.07c.6,1.92,1.36,4.6,2.14,7.57s1.41,5.52,1.94,7.62a25.23,25.23,0,0,1,.75,3.17,16.25,16.25,0,0,1-1.1-3.07c-.59-1.93-1.32-4.62-2.09-7.59l-2-7.6A21.11,21.11,0,0,1,303.9,234.86Z" style="fill:#263238"></path><path d="M311,256.48c0-.13,5.4-2,12.17-4.07s12.27-3.72,12.32-3.59-5.41,2-12.17,4.08S311,256.62,311,256.48Z" style="fill:#263238"></path><path d="M296.15,284.21a24.54,24.54,0,0,1,3.33-.16c2-.05,4.88-.13,8-.33s5.95-.45,8-.64a25,25,0,0,1,3.32-.25,18.45,18.45,0,0,1-3.28.61c-2,.29-4.86.61-8,.8s-6,.22-8,.18A18.34,18.34,0,0,1,296.15,284.21Z" style="fill:#263238"></path><path d="M285.46,266.06a18.36,18.36,0,0,1,1.75,2.53c1,1.6,2.41,3.83,3.91,6.31s2.84,4.73,3.78,6.38a18.44,18.44,0,0,1,1.44,2.72,17.34,17.34,0,0,1-1.75-2.53c-1-1.6-2.41-3.83-3.92-6.3s-2.83-4.74-3.78-6.39A17.13,17.13,0,0,1,285.46,266.06Z" style="fill:#263238"></path><path d="M269.27,288.88a3.94,3.94,0,0,1,.64.84c.39.56.93,1.39,1.59,2.41,1.33,2,3.12,4.89,5.08,8s3.7,6,4.94,8.13c.62,1.05,1.12,1.9,1.45,2.49a4.7,4.7,0,0,1,.47.95,3.94,3.94,0,0,1-.64-.84c-.39-.56-.93-1.39-1.59-2.41-1.32-2-3.12-4.88-5.08-8s-3.7-6-4.94-8.13c-.62-1-1.12-1.9-1.45-2.49A4.42,4.42,0,0,1,269.27,288.88Z" style="fill:#263238"></path><path d="M283.26,311.1a5.07,5.07,0,0,1,1.12-.13l3.09-.2c2.6-.16,6.19-.39,10.15-.74s7.53-.75,10.12-1l3.07-.34a4.39,4.39,0,0,1,1.13-.07,4.45,4.45,0,0,1-1.1.27c-.72.13-1.76.31-3,.51-2.58.39-6.16.85-10.13,1.2s-7.57.52-10.18.59c-1.3,0-2.36,0-3.09,0A4.39,4.39,0,0,1,283.26,311.1Z" style="fill:#263238"></path><path d="M339.39,193.83s-6.9-4.33-14.81,12.11-10.83,25.9-10.83,25.9-2.11,3.45-4.5,1.28-5.74-8.41-9.69-7.18c-4.1,1.27-5.35,5.91-4.4,12.65s2.46,21.6,2.6,22.94-.58,3.29-2.45,2.07-12.7-12.74-17.86-7.27.55,23.83,1.14,25.85.21,2.89-.74,3.42-4.24-3.69-7.45-6.84-7.5-6.24-10.21-2.84-3.29,17.29,10.43,39.51l7,9.88,12.15-1c25.85-3.63,36.17-12.94,37.06-17.2s-4.22-5.58-8.7-6-9.82-.29-10-1.36.23-1.92,2.16-2.76,19.7-8.16,20.62-15.63-14.88-8.44-17-9.1-1.07-2.46,0-3.2,13.52-9.07,19.31-12.65,8.56-7.5,6.93-11.47c-1.58-3.82-8.52-2.42-11.72-2.87s-1.89-4.29-1.89-4.29,5.41-8.28,13-24.86-.34-19.16-.34-19.16" style="opacity:0.2"></path><path d="M182.75,156.41a2.21,2.21,0,0,1,.57-.12,3.68,3.68,0,0,1,1.68.25,6.2,6.2,0,0,1,2.28,1.59,13.5,13.5,0,0,1,2.13,3.19,52.94,52.94,0,0,1,3.13,10.16c1,4.07,2,8.75,2.74,14.07v0c.32.77.91,1.65,1.77,1.69a2.1,2.1,0,0,0,1.21-.48c.38-.27.76-.57,1.13-.88a23,23,0,0,1,2.4-1.78,4,4,0,0,1,3-.71,4.13,4.13,0,0,1,2.41,2.14,6.54,6.54,0,0,1,.53,3.27c-.12,2.25-1,4.39-1.65,6.59s-1.39,4.47-2.12,6.78c-.36,1.16-.72,2.33-1.09,3.51-.18.59-.37,1.18-.55,1.78a3.83,3.83,0,0,0-.22.87,1.82,1.82,0,0,0,.12.81c.21.5.85.39,1.37.09l1.68-.93a35.09,35.09,0,0,1,3.54-1.72,12.16,12.16,0,0,1,3.91-1,4.66,4.66,0,0,1,2.07.32,3.38,3.38,0,0,1,1.61,1.4,6.71,6.71,0,0,1,.67,4.14,21,21,0,0,1-.87,4.14,50.59,50.59,0,0,1-3.29,7.92,13.83,13.83,0,0,0-.9,1.93,1.29,1.29,0,0,0,0,.89,1.35,1.35,0,0,0,.28.36c.06,0,.11,0,.28,0a9.36,9.36,0,0,0,1.84-1.06l1.81-1.27a23.61,23.61,0,0,1,3.88-2.33,7.67,7.67,0,0,1,2.23-.66,2.94,2.94,0,0,1,2.32.62,3.36,3.36,0,0,1,1.12,2.13,9.57,9.57,0,0,1,.11,1.19c0,.39,0,.78-.06,1.17a18.8,18.8,0,0,1-1.11,4.55,38.4,38.4,0,0,1-4.36,8.38,64.59,64.59,0,0,1-6,7.54,46.25,46.25,0,0,1-3.45,3.41l-3.57,3.35-.11.1-.14,0-.66-.2-4.72-1.43-2.34-.71c-.77-.26-1.52-.59-2.29-.88a72.11,72.11,0,0,1-8.72-4.19,41.19,41.19,0,0,1-7.7-5.59,20.6,20.6,0,0,1-3.07-3.59,8.71,8.71,0,0,1-1-2.16,3.19,3.19,0,0,1,.17-2.42,3.13,3.13,0,0,1,2-1.4,8.83,8.83,0,0,1,2.33-.27,28.16,28.16,0,0,1,4.52.48l2.2.36c.37.05.73.1,1.09.12a2.31,2.31,0,0,0,1,0c.07,0,0,0,.06-.05a1.11,1.11,0,0,0,.07-.22.93.93,0,0,0,0-.44,2,2,0,0,0-.56-.78c-.51-.45-1.16-.85-1.73-1.29a54.92,54.92,0,0,1-6.59-5.61,21.64,21.64,0,0,1-2.69-3.28,6.76,6.76,0,0,1-1.34-4,3.25,3.25,0,0,1,.86-2,4.72,4.72,0,0,1,1.78-1.14,13.3,13.3,0,0,1,4-.73,37.07,37.07,0,0,1,4,.06c.65,0,1.3.09,1.93.1a1.33,1.33,0,0,0,.79-.18.59.59,0,0,0,.2-.63,2.85,2.85,0,0,0-1-1.44l-1.33-1.33-2.6-2.63-5-5.07a33.19,33.19,0,0,1-4.57-5.1,7,7,0,0,1-1.13-3.13,4,4,0,0,1,1.12-3,4.06,4.06,0,0,1,3.07-.68,23,23,0,0,1,3,.57c.47.11.95.22,1.41.29a2.3,2.3,0,0,0,1.31-.05c.79-.36.91-1.45.83-2.27v0c-1.87-5-3.14-9.6-4.21-13.61a55,55,0,0,1-2.07-10.37c-.17-2.88.5-5.16,1.53-6.28a3.4,3.4,0,0,1,1.38-1,1.72,1.72,0,0,1,.55-.14,2.57,2.57,0,0,0-.54.18,3.49,3.49,0,0,0-1.32,1c-1,1.11-1.63,3.36-1.43,6.21a54.73,54.73,0,0,0,2.14,10.31c1.09,4,2.39,8.6,4.26,13.57v0h0a4.12,4.12,0,0,1-.08,1.44,1.76,1.76,0,0,1-.92,1.18,2.66,2.66,0,0,1-1.5.08c-.48-.08-1-.19-1.44-.29a23.35,23.35,0,0,0-2.91-.55,3.7,3.7,0,0,0-2.79.6,3.61,3.61,0,0,0-1,2.75,6.59,6.59,0,0,0,1.09,2.95,32.32,32.32,0,0,0,4.51,5l5.06,5.07,2.61,2.62,1.33,1.33a3.29,3.29,0,0,1,1.11,1.66,1,1,0,0,1-.38,1.07,1.77,1.77,0,0,1-1.05.26c-.66,0-1.29-.07-1.94-.1-1.29-.07-2.6-.11-3.91-.05a12.91,12.91,0,0,0-3.85.71,4.3,4.3,0,0,0-1.61,1,2.79,2.79,0,0,0-.73,1.71,6.29,6.29,0,0,0,1.26,3.71,21.22,21.22,0,0,0,2.65,3.21,53.23,53.23,0,0,0,6.53,5.55c.58.44,1.18.81,1.77,1.32a2.27,2.27,0,0,1,.7,1,1.48,1.48,0,0,1,0,.66,2.81,2.81,0,0,1-.08.31.67.67,0,0,1-.31.33,2.78,2.78,0,0,1-1.22.1c-.39,0-.76-.08-1.13-.13l-2.21-.35a27.66,27.66,0,0,0-4.44-.48,8.87,8.87,0,0,0-2.19.25,2.68,2.68,0,0,0-1.67,1.16c-.67,1.28.06,2.82.83,4.06a19.1,19.1,0,0,0,3,3.49,40.33,40.33,0,0,0,7.61,5.52,70.22,70.22,0,0,0,8.65,4.15c.76.29,1.5.62,2.27.88l2.33.7,4.71,1.43.66.2-.25.06,3.55-3.34a44.18,44.18,0,0,0,3.44-3.4,64.51,64.51,0,0,0,5.9-7.47,37.6,37.6,0,0,0,4.31-8.26,18.15,18.15,0,0,0,1.08-4.43c0-.37,0-.75.06-1.12a9.77,9.77,0,0,0-.1-1.1,2.87,2.87,0,0,0-.95-1.83,2.45,2.45,0,0,0-1.94-.51,7.4,7.4,0,0,0-2.08.61,24,24,0,0,0-3.79,2.29L214.74,226a9.07,9.07,0,0,1-2,1.12.92.92,0,0,1-.35,0c-.1,0-.35-.1-.4-.16a1.77,1.77,0,0,1-.39-.5,1.72,1.72,0,0,1-.05-1.24,13.45,13.45,0,0,1,.94-2,51.37,51.37,0,0,0,3.26-7.84,20.51,20.51,0,0,0,.86-4,6.38,6.38,0,0,0-.59-3.86,3.41,3.41,0,0,0-3.27-1.51,12.1,12.1,0,0,0-3.77,1,34.94,34.94,0,0,0-3.48,1.69l-1.7.93a2.14,2.14,0,0,1-1,.3,1,1,0,0,1-1-.59,2.66,2.66,0,0,1,.07-2c.19-.6.38-1.19.56-1.78q.56-1.78,1.11-3.51,1.08-3.48,2.13-6.79c.65-2.21,1.53-4.31,1.65-6.49a6.15,6.15,0,0,0-.48-3.08,3.8,3.8,0,0,0-2.17-2,3.72,3.72,0,0,0-2.77.66,22.51,22.51,0,0,0-2.36,1.75c-.38.3-.76.6-1.16.89a2.46,2.46,0,0,1-1.41.53,1.91,1.91,0,0,1-1.32-.69,4.11,4.11,0,0,1-.74-1.22h0v0c-.7-5.3-1.73-10-2.67-14.05a52.48,52.48,0,0,0-3.05-10.14,13,13,0,0,0-2.06-3.18,6.21,6.21,0,0,0-2.22-1.6A3.66,3.66,0,0,0,182.75,156.41Z" style="fill:#263238"></path><path d="M185.49,167.34a.9.9,0,0,1,.09.25l.22.74c.2.7.46,1.65.8,2.87.68,2.49,1.64,6.1,2.8,10.57,2.31,8.94,5.4,21.33,8.74,35l8.61,35.05c1.1,4.46,2,8.07,2.63,10.62.3,1.22.53,2.19.7,2.89.07.31.13.55.17.75a.78.78,0,0,1,0,.27,1.12,1.12,0,0,1-.09-.25l-.22-.74c-.19-.7-.46-1.66-.8-2.87-.68-2.49-1.63-6.1-2.79-10.57-2.32-9-5.4-21.33-8.75-35s-6.39-26-8.6-35c-1.11-4.45-2-8.06-2.64-10.61-.29-1.23-.53-2.19-.7-2.89-.07-.31-.12-.56-.17-.76A1.27,1.27,0,0,1,185.49,167.34Z" style="fill:#263238"></path><path d="M182,193.48a8.84,8.84,0,0,1,1.94,1.15c1.16.77,2.73,1.9,4.42,3.19s3.2,2.47,4.29,3.33a12.31,12.31,0,0,1,1.73,1.46,8.36,8.36,0,0,1-2-1.16c-1.15-.79-2.7-1.93-4.39-3.22l-4.31-3.3A10.07,10.07,0,0,1,182,193.48Z" style="fill:#263238"></path><path d="M195,202.24a71.72,71.72,0,0,1,4.55-7.34,71.44,71.44,0,0,1,5-7.05,74.33,74.33,0,0,1-4.55,7.34A73,73,0,0,1,195,202.24Z" style="fill:#263238"></path><path d="M199.21,223.47c-.09-.13,2.58-2.25,5.69-5.07s5.49-5.26,5.61-5.16a8.67,8.67,0,0,1-1.42,1.74c-.93,1-2.27,2.39-3.84,3.8s-3.06,2.62-4.17,3.45A9,9,0,0,1,199.21,223.47Z" style="fill:#263238"></path><path d="M185.76,218.1a8.87,8.87,0,0,1,2,.59c1.24.42,2.93,1,4.79,1.76s3.53,1.38,4.74,1.9a8.12,8.12,0,0,1,1.9.93,9.73,9.73,0,0,1-2-.59c-1.23-.42-2.93-1-4.79-1.76s-3.53-1.39-4.73-1.9A8.12,8.12,0,0,1,185.76,218.1Z" style="fill:#263238"></path><path d="M187.12,237.24a14.52,14.52,0,0,1,2.6.78c1.58.54,3.76,1.32,6.15,2.21s4.54,1.73,6.09,2.36a13.58,13.58,0,0,1,2.47,1.12,15.65,15.65,0,0,1-2.6-.78c-1.58-.54-3.75-1.32-6.15-2.21s-4.54-1.73-6.09-2.36A13.58,13.58,0,0,1,187.12,237.24Z" style="fill:#263238"></path><path d="M204.06,243.44a16.21,16.21,0,0,1,2-2c1.29-1.18,3.07-2.81,5-4.66s3.64-3.55,4.88-4.79a17.16,17.16,0,0,1,2.06-1.94,13.1,13.1,0,0,1-1.8,2.2c-1.17,1.3-2.85,3.05-4.78,4.91s-3.76,3.44-5.11,4.56A14.52,14.52,0,0,1,204.06,243.44Z" style="fill:#263238"></path><path d="M213,325.12C227.61,311,227.88,289,224.12,269.89c-.63-3.19-.82-6.63-2.8-9.19s-5.85-3.91-8.5-2.1c-2.2,1.51-2.79,4.45-3.75,6.95a19,19,0,0,1-6.35,8.4c-1.87,1.39-4.29,2.45-6.49,1.66-3-1.08-3.95-4.84-4.45-8q-1.4-8.93-2.78-17.84c-.5-3.19-1-6.45-2.5-9.32s-4.12-5.32-7.29-5.67-6.64,2-6.77,5.22a28.62,28.62,0,0,0,.55,4c.12,1.34-.26,2.9-1.45,3.48s-2.64-.12-3.74-.9c-3.81-2.68-6.72-6.47-9.47-10.25s-5.47-7.68-9-10.71-8.13-5.14-12.74-4.66-9,4.09-9.44,8.76,2.93,8.82,6.37,12a72.17,72.17,0,0,0,17.11,11.72,6,6,0,0,1,2.91,2.26c1,2-.64,4.45-2.62,5.49-2.25,1.18-4.87,1.35-7.31,2.05s-5,2.22-5.51,4.73c-.78,3.47,2.5,6.44,5.54,8.24a61.88,61.88,0,0,0,19.73,7.49c2.49.48,5.08.83,7.23,2.17s3.77,4,3,6.45-3.6,3.63-6.13,3.57-4.94-1-7.42-1.54c-4.65-.94-10.26.28-12.45,4.52a10.19,10.19,0,0,0,.37,9.09,23.48,23.48,0,0,0,6.11,7.1,62.1,62.1,0,0,0,29.15,14.15c10.73,1.88,20.3,1.3,29.8-4" style="fill:#455a64"></path><path d="M131,224.55a2.27,2.27,0,0,0,.36.25l1.09.69c.95.61,2.36,1.5,4.14,2.69a121.65,121.65,0,0,1,14.3,11.17c2.85,2.57,5.86,5.51,9,8.73s6.53,6.7,9.93,10.48a147.84,147.84,0,0,1,10.07,12.35c1.62,2.24,3.13,4.61,4.67,7s3.09,4.87,4.66,7.36a296.32,296.32,0,0,1,16.34,28.83,145.36,145.36,0,0,1,9.55,25.29,105.1,105.1,0,0,1,3.21,18c.18,2.15.29,3.82.32,5,0,.54,0,1,.05,1.29a3,3,0,0,0,0,.44,2.5,2.5,0,0,0,0-.44c0-.32,0-.75,0-1.29,0-1.14-.06-2.82-.21-5a99.77,99.77,0,0,0-3-18,141.94,141.94,0,0,0-9.46-25.43A289.43,289.43,0,0,0,189.77,285q-2.36-3.74-4.66-7.36c-1.54-2.42-3.07-4.81-4.7-7.05a145.62,145.62,0,0,0-10.14-12.38c-3.42-3.78-6.8-7.24-10-10.46s-6.22-6.14-9.1-8.7a114.17,114.17,0,0,0-14.46-11c-1.8-1.17-3.23-2-4.2-2.6l-1.12-.64A2.06,2.06,0,0,0,131,224.55Z" style="fill:#263238"></path><path d="M180.24,270.57a6.58,6.58,0,0,0,.09-1.41c0-.91,0-2.22,0-3.85-.06-3.24-.3-7.72-.59-12.66s-.46-9.42-.47-12.66c0-1.61,0-2.93,0-3.83a6.73,6.73,0,0,0,0-1.41,6.06,6.06,0,0,0-.19,1.4c-.08.9-.15,2.22-.19,3.84-.1,3.25,0,7.74.3,12.69s.56,9.28.76,12.65c.08,1.52.15,2.8.21,3.83A5.76,5.76,0,0,0,180.24,270.57Z" style="fill:#263238"></path><path d="M138,269.55a8.43,8.43,0,0,0,1.67-.07c1.07-.07,2.61-.19,4.52-.28,3.82-.2,9.1-.3,14.94-.15s11.11.53,14.92.91c1.91.17,3.45.36,4.51.48a9.36,9.36,0,0,0,1.67.13,9.46,9.46,0,0,0-1.63-.37c-1.06-.19-2.6-.43-4.5-.66-3.81-.49-9.1-.93-15-1.09a144,144,0,0,0-15,.33c-1.91.14-3.45.32-4.52.47A9.85,9.85,0,0,0,138,269.55Z" style="fill:#263238"></path><path d="M205.47,313.22a2.1,2.1,0,0,0,.2-.55c.12-.43.28-1,.46-1.59.39-1.39.91-3.42,1.52-5.92,1.21-5,2.68-12,4.19-19.72s2.9-14.72,4-19.75c.55-2.45,1-4.46,1.33-6,.14-.65.26-1.18.36-1.62a2.23,2.23,0,0,0,.08-.58,2.1,2.1,0,0,0-.2.55c-.12.43-.28.95-.46,1.59-.39,1.39-.91,3.41-1.52,5.92-1.21,5-2.68,12-4.19,19.73s-2.9,14.71-4,19.74c-.55,2.45-1,4.46-1.33,6-.14.65-.26,1.18-.36,1.62A2.23,2.23,0,0,0,205.47,313.22Z" style="fill:#263238"></path><path d="M148.17,304.49a2,2,0,0,0,.57.14l1.67.27,6.14,1c5.18.8,12.33,2,20.22,3.3s15.06,2.44,20.26,3.13c2.6.35,4.71.61,6.17.76l1.68.16a2.41,2.41,0,0,0,.59,0,2.27,2.27,0,0,0-.58-.14l-1.66-.27-6.14-.95c-5.18-.79-12.33-2-20.23-3.3s-15.05-2.44-20.25-3.13c-2.6-.35-4.71-.61-6.17-.76l-1.68-.16A2.39,2.39,0,0,0,148.17,304.49Z" style="fill:#263238"></path></g><g id="freepik--Character--inject-10"><path d="M341.2,384.09a10.49,10.49,0,0,0-1.79-.35L274,356.3H208.92l-64.14,25.34c-6.51,2.17-15.8,14.87-10.53,30.05.14.43.3.84.46,1.24C138.92,423.49,150.62,429,161.6,426c8.86-2.36,21.59-5.83,34.7-9.42l1.47,0L238.57,405l34.75,9.57h0c18.15,5,38.49,10.55,51.05,13.91,11,2.93,22.69-2.56,26.9-13.12.16-.4.31-.81.46-1.23C357,399,347.71,386.25,341.2,384.09Z" style="fill:#455a64"></path><path d="M238.07,405.15s.07,0,.22-.09l.66-.2,2.59-.76,9.77-2.78-.11.19c-1.68-6.19-3.93-14.42-6.52-23.93l.23.17h-6.7c-2.31,0-4.66.21-7.08.31l-15.06.83c-18.6,1.08-35.42,2.33-47.59,3.32l-14.41,1.19-3.92.32-1,.07h-.34a1.32,1.32,0,0,1,.34-.06l1-.12,3.91-.42c3.4-.34,8.32-.82,14.4-1.36,12.16-1.08,29-2.39,47.59-3.47l15.07-.81c2.41-.1,4.78-.27,7.09-.3h6.89l0,.18c2.53,9.52,4.72,17.77,6.36,24l0,.15-.15,0-9.81,2.64-2.61.68-.67.17Z" style="fill:#263238"></path><path d="M216.87,378.36a14.06,14.06,0,0,1-3.84-2.55,13.72,13.72,0,0,1-3.2-3.33,39.35,39.35,0,0,1,3.53,2.93A36.71,36.71,0,0,1,216.87,378.36Z" style="fill:#263238"></path><path d="M333.49,386.45a5.56,5.56,0,0,1-.9,0l-2.56-.15-9.43-.65-31.1-2.09-31.11-1.88L249,381.1l-2.57-.17a5.86,5.86,0,0,1-.89-.1,7.72,7.72,0,0,1,.9,0l2.56.08,9.45.39c8,.37,19,1,31.13,1.73s23.14,1.6,31.09,2.25l9.41.81,2.56.25A5.21,5.21,0,0,1,333.49,386.45Z" style="fill:#263238"></path><path d="M335.22,392.94a25.6,25.6,0,0,0-.74-3.08A27.34,27.34,0,0,0,333,387.1a4.55,4.55,0,0,1,2,2.58A4.49,4.49,0,0,1,335.22,392.94Z" style="fill:#263238"></path><path d="M239.15,385.2a5.92,5.92,0,0,1,5.76-1.47c0,.15-1.37,0-2.95.47S239.24,385.33,239.15,385.2Z" style="fill:#263238"></path><path d="M240.92,389.33a7.21,7.21,0,0,1,2.65-.57,7,7,0,0,1,2.72-.06,7.21,7.21,0,0,1-2.65.57A7,7,0,0,1,240.92,389.33Z" style="fill:#263238"></path><path d="M241.72,394.13c0-.15,1.45-.19,3.14-.69s2.95-1.22,3-1.1a7.39,7.39,0,0,1-6.17,1.79Z" style="fill:#263238"></path><path d="M243.31,399.3c0-.15,1.39-.27,3-.87s2.72-1.42,2.81-1.3a5,5,0,0,1-2.62,1.79A5.1,5.1,0,0,1,243.31,399.3Z" style="fill:#263238"></path><path d="M273.13,375.88a22.81,22.81,0,0,1-2.2,3,24.51,24.51,0,0,1-2.26,3,14.68,14.68,0,0,1,4.46-6Z" style="fill:#263238"></path><path d="M401.33,313.81c-1.56.09-13.53,2.09-13.53,2.09,14.87-4,15.38-5.7,15-6.78s-13.89,2.65-13.89,2.65a12.7,12.7,0,0,0,1.62-5.06c.35-4.35-4.77-8.31-6.38-7.72s-.95,2.69-.95,2.69c4.75,2.45,4,8.2,0,9.93s-6.15-3.28-3.84-5.39c5.07-4.63,2-5.54,2-5.54l-11.25,10C370,310.73,361,313,361,313h0l-38.49,7.67-15.72-23L290.29,312.5s3,3.55,16.06,21.21a20.7,20.7,0,0,0,22.6,7.58l38.29-11.52.07.18,0-.13,21.3-5.46s6.86-2,8.47-2.43c2.13-.6,2-2.24.26-2.29-.65,0-8.64.26-8.64.26l11.93-3.29C404.34,315.57,402.84,313.74,401.33,313.81Z" style="fill:#ffbe9d"></path><path d="M185.82,287.93l-15.71,23-38.49-7.68s-9-2.23-9.2-2.3l-11.25-10s-3,.91,2,5.54c2.31,2.11.12,7.12-3.84,5.39s-4.7-7.47,0-9.93c0,0,.66-2.09-1-2.68s-6.73,3.36-6.38,7.71a12.71,12.71,0,0,0,1.62,5.07s-13.54-3.74-13.89-2.66.16,2.82,15,6.78c0,0-12-2-13.53-2.08s-3,1.75.74,2.79L104,310.22s-8-.27-8.64-.25c-1.7,0-1.87,1.68.26,2.28l8.47,2.43,21.3,5.47,0,.13.07-.19,38.29,11.53A20.72,20.72,0,0,0,186.3,324c13.08-17.66,16.06-21.21,16.06-21.21Z" style="fill:#ffbe9d"></path><path d="M278.07,357.79l-6.47-29c.33-4.05,5-29.65,5.58-31.17l21.06,30.67,24.6-10.35s-20.9-35-30-48.11c-11.18-16.05-33-17.77-33-17.77l-28.12.38s-19.64-4.36-39.35,22.11l-22.61,35.67,19.42,9.88a4.38,4.38,0,0,0,5.49-1.07l15.95-19.44L215.46,327l-6.73,23.26s-6.14.81-5,8.29h0s20,9.4,38.86,8.24S278.07,357.79,278.07,357.79Z" style="fill:#FF725E"></path><path d="M267.58,310.56a1.44,1.44,0,0,1-.12.48c-.1.3-.24.75-.47,1.32a33.16,33.16,0,0,1-2.25,4.63,35.9,35.9,0,0,1-27.62,17.74,32.46,32.46,0,0,1-5.15.12c-.61,0-1.08-.1-1.39-.13a1.53,1.53,0,0,1-.49-.08,18.43,18.43,0,0,1,1.89,0,39.14,39.14,0,0,0,5.1-.28,36.82,36.82,0,0,0,27.35-17.56,38.19,38.19,0,0,0,2.37-4.52A17.39,17.39,0,0,1,267.58,310.56Z" style="fill:#263238"></path><path d="M301.16,327.46c-.11.09-.89-.71-1.53-1.92a4.39,4.39,0,0,1-.74-2.35c.14-.05.58.94,1.2,2.1A9.3,9.3,0,0,1,301.16,327.46Z" style="fill:#263238"></path><path d="M306.15,325.15c-.13.06-.63-.85-1.23-1.95a6.7,6.7,0,0,1-1-2.11c.11-.08.81.72,1.43,1.86A4.39,4.39,0,0,1,306.15,325.15Z" style="fill:#263238"></path><path d="M311.92,322.1c-.11.08-.82-.76-1.57-1.87a5.84,5.84,0,0,1-1.14-2.16c.12-.08.83.76,1.57,1.87A5.84,5.84,0,0,1,311.92,322.1Z" style="fill:#263238"></path><path d="M317.6,319.29c-.14,0-.55-.81-1.08-1.85s-1-1.86-.88-1.95.79.64,1.34,1.72A3.66,3.66,0,0,1,317.6,319.29Z" style="fill:#263238"></path><path d="M173.52,311.16c-.12-.08.29-.9.92-1.84s1.22-1.63,1.34-1.55-.29.9-.91,1.84S173.64,311.24,173.52,311.16Z" style="fill:#263238"></path><path d="M181.41,310.1a6.19,6.19,0,0,1-1.27,2.21c-.83,1.13-1.59,2-1.7,1.9a6.37,6.37,0,0,1,1.27-2.21C180.54,310.87,181.3,310,181.41,310.1Z" style="fill:#263238"></path><path d="M186.59,313.57a4.92,4.92,0,0,1-.74,2.11c-.54,1.11-1.08,2-1.21,1.89a4.92,4.92,0,0,1,.74-2.11C185.92,314.35,186.46,313.5,186.59,313.57Z" style="fill:#263238"></path><path d="M191.74,316.84c.11.09-.47,1-1.28,1.92s-1.57,1.68-1.68,1.59.46-1,1.28-1.92S191.63,316.75,191.74,316.84Z" style="fill:#263238"></path><path d="M208,359.8a6.28,6.28,0,0,1,1.22-7.19A17.45,17.45,0,0,0,208,356.1,17.08,17.08,0,0,0,208,359.8Z" style="fill:#263238"></path><path d="M213.48,361.89c-.06,0-.32-.28-.55-.88a5.34,5.34,0,0,1-.3-2.49,5.43,5.43,0,0,1,.84-2.37c.36-.54.68-.78.73-.74a12.16,12.16,0,0,0-1,3.16A11.78,11.78,0,0,0,213.48,361.89Z" style="fill:#263238"></path><path d="M219.76,357.85a8.83,8.83,0,0,1,.1,3,8.42,8.42,0,0,1-.42,3,9.15,9.15,0,0,1-.1-3A8.93,8.93,0,0,1,219.76,357.85Z" style="fill:#263238"></path><path d="M228.34,359.59c.14.07-.49,1.4-.64,3.15s.18,3.18,0,3.22a6.39,6.39,0,0,1,.61-6.37Z" style="fill:#263238"></path><path d="M235,360.61a30.59,30.59,0,0,1-.07,3.18A27.82,27.82,0,0,1,235,367a8.73,8.73,0,0,1,0-6.36Z" style="fill:#263238"></path><path d="M243.23,366.78a29.65,29.65,0,0,1-.42-3.34,25.14,25.14,0,0,1-.51-3.33,7.27,7.27,0,0,1,1,3.26A7,7,0,0,1,243.23,366.78Z" style="fill:#263238"></path><path d="M251.94,366.16c-.15,0,0-1.42-.23-3.11s-.82-3-.68-3.05a5.22,5.22,0,0,1,1.2,3A5.11,5.11,0,0,1,251.94,366.16Z" style="fill:#263238"></path><path d="M260.53,364.32c-.15,0-.19-1.43-.6-3.12s-1-3-.87-3.05a5.82,5.82,0,0,1,1.38,2.93A5.71,5.71,0,0,1,260.53,364.32Z" style="fill:#263238"></path><path d="M267.76,362.37a31.49,31.49,0,0,0-.53-3.15c-.5-1.68-1.43-2.81-1.31-2.91a5.91,5.91,0,0,1,1.84,6.06Z" style="fill:#263238"></path><path d="M274.14,360c-.15,0,0-1.52-.44-3.27s-1.23-3-1.1-3.11a6.67,6.67,0,0,1,1.54,6.38Z" style="fill:#263238"></path><path d="M298.79,281.63l-.27.05-.81.1-3.09.35c-1.35.15-3,.32-4.91.47s-4.1.36-6.51.5c-4.83.34-10.58.59-17,.73s-13.43.06-20.81-.23-14.4-.83-20.77-1.44-12.08-1.36-16.86-2.09c-2.4-.32-4.55-.71-6.45-1s-3.53-.6-4.85-.86l-3.06-.59-.79-.17-.27-.07.28,0,.8.12,3.07.49c1.33.23,3,.5,4.87.78s4.05.63,6.45.94c4.78.68,10.5,1.35,16.86,2s13.37,1.09,20.74,1.4,14.39.34,20.78.27,12.14-.33,17-.62c2.41-.11,4.59-.29,6.51-.42s3.56-.26,4.91-.38l3.1-.25.81-.05Z" style="fill:#263238"></path><g style="opacity:0.2"><path d="M231.3,334.84a14.07,14.07,0,0,1-5.47-3c-1.46-1.52-2.12-4-.94-5.76a5.09,5.09,0,0,1,4.65-1.83,36.42,36.42,0,0,1,5.1,1.15,17.38,17.38,0,0,0,14.58-3.49c2.94-2.41,5-5.74,7.73-8.38a5.19,5.19,0,0,1,3.07-1.72c2.08-.16,3.74,2,3.73,4.11s-1.18,4-2.47,5.6a36.67,36.67,0,0,1-31.2,13.68"></path></g><g style="opacity:0.2"><path d="M212.07,351.7c8.24,5.14,18.21,7,27.91,6.81s19.29-2.16,28.79-4.15a4.62,4.62,0,0,0,2.4-1,1.61,1.61,0,0,0,.08-2.33,67.44,67.44,0,0,1-55.41-1,4.59,4.59,0,0,0-3.12-.7c-1.06.29-1.72,1.85-.83,2.5"></path></g><path d="M296.27,386.05,249.88,396l-4.17-15.92,17.17-.84s2.06-3.35,4.45-3.11,4.11,3.26,5.86,3.41S296.8,376.51,296.27,386.05Z" style="fill:#ffbe9d"></path><path d="M192.64,273.53c-.27.42,106.44,7.24,106.44,7.24s-8.8-27-42.41-28.72S206.5,251.66,192.64,273.53Z" style="fill:#ffbe9d"></path><path d="M257.1,255c.21-7.08.56-14.52.56-14.52s9.06-1.23,11.25-13.06c2.09-11.29.95-37.52.95-37.52h0A33.53,33.53,0,0,0,232,197.4h0l-.79,57.47c-.09,6.67,5.51,12.08,12.59,12.15h0C251,267.09,256.9,261.69,257.1,255Z" style="fill:#ffbe9d"></path><path d="M257.07,221a11.34,11.34,0,0,1,2.65-.4c.41,0,.81-.1.89-.38a2.2,2.2,0,0,0-.25-1.25l-1.14-3.23c-1.58-4.59-2.71-8.37-2.53-8.43s1.62,3.61,3.2,8.21c.38,1.13.74,2.21,1.09,3.24a2.53,2.53,0,0,1,.17,1.65,1.06,1.06,0,0,1-.7.6,2.66,2.66,0,0,1-.71.07A9.94,9.94,0,0,1,257.07,221Z" style="fill:#263238"></path><path d="M257.66,240.43A29.68,29.68,0,0,1,242,235.7s3.6,8.29,15.41,7.54Z" style="fill:#eb996e"></path><path d="M256.27,224.92a2.91,2.91,0,0,0-2.59-1.18,2.64,2.64,0,0,0-1.87.94,1.7,1.7,0,0,0-.18,1.95,1.94,1.94,0,0,0,2.11.61,6.08,6.08,0,0,0,2.11-1.19,1.65,1.65,0,0,0,.48-.47.56.56,0,0,0,0-.61" style="fill:#eb996e"></path><path d="M252.26,222c.26,0,.22,1.78,1.69,3.09s3.36,1.17,3.37,1.42-.43.33-1.23.33a4.44,4.44,0,0,1-2.81-1.09,3.87,3.87,0,0,1-1.3-2.58C251.93,222.39,252.14,222,252.26,222Z" style="fill:#263238"></path><path d="M251.91,210.68s-.18.39-.72.75a4.26,4.26,0,0,1-2.39.71,4.31,4.31,0,0,1-2.39-.74c-.53-.37-.75-.71-.71-.76a7.62,7.62,0,0,0,3.1,1A7.48,7.48,0,0,0,251.91,210.68Z" style="fill:#263238"></path><path d="M268.47,210.75s-.17.32-.64.6a4.17,4.17,0,0,1-4.12-.09c-.47-.3-.67-.59-.62-.63a9.21,9.21,0,0,0,2.68.7A9.1,9.1,0,0,0,268.47,210.75Z" style="fill:#263238"></path><path d="M252.55,204.33c-.12.43-1.61.37-3.36.58s-3.18.59-3.4.2,1.13-1.51,3.22-1.75S252.68,203.94,252.55,204.33Z" style="fill:#263238"></path><path d="M268.54,205.87c-.26.36-1.53-.14-3.08-.5s-2.9-.53-3-1,1.45-1,3.34-.55S268.8,205.54,268.54,205.87Z" style="fill:#263238"></path><path d="M272.26,188.94c-1.92-3-5.58-4.42-9-5.38a84.84,84.84,0,0,0-10.93-2.28,15.3,15.3,0,0,0-6.77.18c-.26.09-.5.19-.74.29h0a20.3,20.3,0,0,0-12.21,3.41,10.81,10.81,0,0,0-3.85,3.68h0a22.33,22.33,0,0,0-3,5.12c-3.51,6.14-8.15,14.7-8.78,19.18a32,32,0,0,0,4,20.47,26.62,26.62,0,0,0,3.11,4.19,10.62,10.62,0,0,0-1,15,8.21,8.21,0,0,0-2.82,4.44,8.42,8.42,0,0,0,3.7,8.82l.54.29a4.08,4.08,0,0,0-.46.47,6.7,6.7,0,0,0-1.38,5.09,11.57,11.57,0,0,0,2,5c.95,1.45,2.3,2.85,4,3a3.44,3.44,0,0,0,.72,0,3.88,3.88,0,0,0,.47,7.3,4.38,4.38,0,0,1,1.69.6,1.84,1.84,0,0,1,.52,1.64,5.5,5.5,0,0,1-.62,1.68,2.27,2.27,0,0,0,1.9-1.62c0,.56,0,1.12,0,1.68a6.77,6.77,0,0,0,2.66-3.68,8.51,8.51,0,0,0,.37-4.6,5.65,5.65,0,0,0-2.62-3.71,4.43,4.43,0,0,0-2.11-.56,5.24,5.24,0,0,0,1.33-2.4,18.1,18.1,0,0,0-1.78-9.59,5.29,5.29,0,0,0-.75-1,7.94,7.94,0,0,0,1.74-3.49,9.47,9.47,0,0,0-.88-7.29,6.46,6.46,0,0,0-.44-.59,8.38,8.38,0,0,0,1.55-4.08,27.5,27.5,0,0,0,.58-6.26,12,12,0,0,0,3.55-4.84c3.65-7.93-.61-19.16-.61-19.16,6.21-6.16,7.4-17.89,7.52-24.82a15.5,15.5,0,0,0,3.93,3.86,5.64,5.64,0,0,0,3.78,1.21,2.56,2.56,0,0,0,2.31-2.78,17,17,0,0,0,2.85,4.27,5.79,5.79,0,0,0,4.62,1.84,3.54,3.54,0,0,0,3.15-3.45,9.94,9.94,0,0,0,3.63,3.46,4.06,4.06,0,0,0,4.69-.65,6.11,6.11,0,0,0,1.13-3.65C273.9,195.68,274.14,191.9,272.26,188.94Z" style="fill:#263238"></path><path d="M224.32,232.2a1.44,1.44,0,0,1-.19-.38,5.54,5.54,0,0,1-.32-1.19,8.49,8.49,0,0,1,.65-4.46,16.18,16.18,0,0,1,4-5.38,49.79,49.79,0,0,0,5.62-5.83,47.46,47.46,0,0,0,6.53-13.11c.58-1.73,1.07-3.16,1.43-4.25a11.55,11.55,0,0,1,.57-1.54,9.3,9.3,0,0,1-.37,1.6c-.28,1-.7,2.5-1.28,4.31a44.32,44.32,0,0,1-6.47,13.31,47.5,47.5,0,0,1-5.7,5.85,16.47,16.47,0,0,0-4,5.18,8.74,8.74,0,0,0-.79,4.29C224.13,231.64,224.38,232.18,224.32,232.2Z" style="fill:#455a64"></path><path d="M230.32,253.69a1.83,1.83,0,0,1-.68-.25,8.8,8.8,0,0,1-1.69-1,12,12,0,0,1-4.59-11.65,10.69,10.69,0,0,1,.52-1.92c.17-.43.3-.66.33-.64s-.29,1-.49,2.61a12.59,12.59,0,0,0,4.46,11.32C229.43,253.17,230.36,253.61,230.32,253.69Z" style="fill:#455a64"></path><path d="M229.71,255.44c0,.06-.44.26-1.24.3a5.83,5.83,0,0,1-5.21-2.94,2.2,2.2,0,0,1-.39-1.22c.08,0,.27.42.7,1a6.76,6.76,0,0,0,2.15,1.92,6.66,6.66,0,0,0,2.75.84C229.22,255.43,229.7,255.36,229.71,255.44Z" style="fill:#455a64"></path><path d="M225.56,264.62c0-.08.47-.37,1.15-1a8.13,8.13,0,0,0,2.57-6.41,12.12,12.12,0,0,1-.15-1.5,2.8,2.8,0,0,1,.52,1.46,7.26,7.26,0,0,1-.45,3.73,7.14,7.14,0,0,1-2.26,3A2.85,2.85,0,0,1,225.56,264.62Z" style="fill:#455a64"></path><path d="M230.33,265.31c.06,0,0,.39-.38.85a3.3,3.3,0,0,1-1.93,1.17,3.35,3.35,0,0,1-2.23-.36c-.51-.29-.72-.6-.67-.64s.33.13.83.3a3.61,3.61,0,0,0,2,.18,3.74,3.74,0,0,0,1.76-.9C230.07,265.56,230.26,265.28,230.33,265.31Z" style="fill:#455a64"></path><path d="M231.17,278.21a49.5,49.5,0,0,0-3.13-5.74,51,51,0,0,0-4.24-5,5.72,5.72,0,0,1,1.57,1.14,20.16,20.16,0,0,1,3.1,3.53,19.66,19.66,0,0,1,2.19,4.15A5.51,5.51,0,0,1,231.17,278.21Z" style="fill:#455a64"></path><path d="M232.7,278.57c.07.12-.58.62-1.53,1s-1.77.38-1.79.24.72-.4,1.62-.72S232.63,278.44,232.7,278.57Z" style="fill:#455a64"></path><path d="M219,230.67a1.6,1.6,0,0,1-.12-.47c-.06-.32-.15-.78-.24-1.38a34.29,34.29,0,0,1-.49-5.13,15.92,15.92,0,0,1,1.58-7.48,10.43,10.43,0,0,1,2.91-3.51,21.65,21.65,0,0,1,4.21-2.47,46.41,46.41,0,0,0,4.29-2.16,22.11,22.11,0,0,0,3.57-2.63,23.52,23.52,0,0,0,4.69-5.87,29.93,29.93,0,0,0,2.56-6.47,1.92,1.92,0,0,1-.06.48,11.9,11.9,0,0,1-.29,1.37,21.58,21.58,0,0,1-1.89,4.8A23,23,0,0,1,235,205.8a22.72,22.72,0,0,1-3.63,2.71A46.12,46.12,0,0,1,227,210.7a21.42,21.42,0,0,0-4.11,2.4,10,10,0,0,0-2.8,3.34,15.68,15.68,0,0,0-1.64,7.25,42.75,42.75,0,0,0,.32,5.1l.14,1.39A1.66,1.66,0,0,1,219,230.67Z" style="fill:#455a64"></path><path d="M254.6,192.66s-.16.17-.53.34a4.34,4.34,0,0,1-1.68.38,7.12,7.12,0,0,1-5.14-2.19,13.66,13.66,0,0,1-2.85-4.82,8.81,8.81,0,0,1-.66-2.21,12.11,12.11,0,0,1,1,2.07,15.48,15.48,0,0,0,2.88,4.59,7.19,7.19,0,0,0,4.76,2.19A8.42,8.42,0,0,0,254.6,192.66Z" style="fill:#455a64"></path><path d="M261.55,195.43a2.74,2.74,0,0,1-1.47.18,6.82,6.82,0,0,1-5.67-4,2.6,2.6,0,0,1-.32-1.45,11,11,0,0,1,.65,1.28A7.66,7.66,0,0,0,257,194a7.48,7.48,0,0,0,3.12,1.28A9,9,0,0,1,261.55,195.43Z" style="fill:#455a64"></path></g></svg>