<svg width="394" height="394" viewBox="0 0 394 394" fill="none" xmlns="http://www.w3.org/2000/svg">
<path d="M207.916 9.50104H14.0177V357.827H207.916V9.50104Z" fill="#EBEBEB"/>
<path d="M198.172 19.6049H21.7642V347.454H198.172V19.6049Z" fill="#FAFAFA"/>
<path d="M216.122 360.967L207.916 357.827V3.5899H216.122V360.967Z" fill="#E0E0E0"/>
<path d="M65.0137 231.372L110.827 188.788C116.631 183.39 124.215 177.587 131.683 180.241C135.282 181.518 137.981 184.586 141.499 186.053C148.535 188.986 156.569 184.757 161.976 179.386C167.384 174.015 171.648 167.303 178.171 163.416C184.694 159.529 194.906 160.015 198.145 166.916V213.261L131.566 241.764L65.0137 231.372Z" fill="#F5F5F5"/>
<path d="M21.7642 204.731C38.6429 197.857 55.4946 203.697 67.5779 217.327C70.1241 220.197 72.4364 223.517 75.9273 225.101C80.6598 227.251 86.1301 225.641 91.2945 225.056C98.3866 224.361 105.533 225.638 111.945 228.746C118.358 231.855 123.787 236.674 127.634 242.672L71.2667 270.411L21.7822 270.051L21.7642 204.731Z" fill="#E0E0E0"/>
<path d="M198.172 204.965C187.052 199.567 177.263 206.09 167.006 212.964C156.749 219.837 147.212 228.655 135.183 231.426C127.139 233.27 118.529 232.245 110.755 235.025C94.9204 240.666 85.7612 260.775 68.9814 261.728C59.8673 262.25 51.6978 256.726 43.5644 252.587C35.4309 248.449 29.0159 244.49 21.7642 250.05V347.454H198.172V204.965Z" fill="#EBEBEB"/>
<path d="M202.005 113.913H21.7642V117.404H202.005V113.913Z" fill="#E0E0E0"/>
<path d="M202.005 191.991H21.7642V195.482H202.005V191.991Z" fill="#E0E0E0"/>
<path d="M202.005 270.06H21.7642V273.551H202.005V270.06Z" fill="#E0E0E0"/>
<path d="M105.51 115.65L105.51 356.739H114.426L114.426 115.65H105.51Z" fill="#E0E0E0"/>
<path d="M59.7684 19.6049H55.7286V115.668H59.7684V19.6049Z" fill="#E0E0E0"/>
<path d="M94.5965 19.6049H90.5568V115.668H94.5965V19.6049Z" fill="#E0E0E0"/>
<path d="M129.425 19.6049H125.385V115.668H129.425V19.6049Z" fill="#E0E0E0"/>
<path d="M164.244 19.6049H160.204V115.668H164.244V19.6049Z" fill="#E0E0E0"/>
<path d="M14.0176 3.5899H5.81213V359.978H14.0176V3.5899Z" fill="#E0E0E0"/>
<path d="M216.113 0H5.81213V9.50103H216.113V0Z" fill="#E0E0E0"/>
<path d="M221.673 362.137H0V370.99H221.673V362.137Z" fill="#E0E0E0"/>
<path d="M207.916 357.827L221.673 362.137H0L14.0176 357.827H207.916Z" fill="#EBEBEB"/>
<path d="M349.739 286.291C355.425 283.358 362.119 282.98 368.426 284.014C371.818 284.581 375.354 285.598 377.657 288.144C379.961 290.69 380.401 295.171 377.756 297.357C376.182 298.662 373.977 298.86 371.935 298.833C366.996 298.779 361.516 297.933 357.54 300.884C355.281 302.576 353.788 305.383 351.098 306.228C348.407 307.074 345.483 305.491 344.089 303.115C342.809 300.64 342.526 297.768 343.297 295.09C343.618 293.225 344.367 291.46 345.484 289.934C346.602 288.407 348.058 287.16 349.739 286.291Z" fill="#EBEBEB"/>
<path d="M336.711 261.144C340.193 266.11 346.941 264.464 350.081 261.441C353.221 258.417 354.534 254.018 355.74 249.825C358.493 240.252 361.273 230.211 359.222 220.467C358.73 217.512 357.432 214.751 355.47 212.487C353.428 210.327 350.279 209.041 347.373 209.788C343.963 210.687 341.848 214.016 340.319 217.192C335.81 226.565 333.447 236.824 333.4 247.225C333.4 252.065 333.958 257.122 336.684 261.126" fill="#EBEBEB"/>
<path d="M327.165 268.269C330.944 263.771 331.664 257.257 329.981 251.643C328.299 246.028 324.502 241.26 320.129 237.364C314.981 232.784 308.992 229.249 302.495 226.954C299.98 225.941 297.276 225.484 294.568 225.614C293.215 225.691 291.901 226.098 290.74 226.799C289.58 227.5 288.609 228.474 287.91 229.635C286.057 233.18 287.838 237.472 289.764 240.972C293.15 247.148 297.022 253.044 301.343 258.606C304.816 263.105 308.793 267.496 314.083 269.52C319.373 271.544 324.88 271.319 327.669 267.64" fill="#EBEBEB"/>
<path d="M336.495 336.09C336.678 335.35 336.783 334.594 336.81 333.832C336.972 332.185 337.17 330.125 337.413 327.678C337.713 324.657 338.173 321.653 338.789 318.681C339.6 315.045 340.698 311.48 342.073 308.019C343.414 304.54 345.24 301.269 347.499 298.302C349.339 295.907 351.69 293.952 354.381 292.58C356.207 291.68 358.162 291.073 360.176 290.78C360.934 290.747 361.688 290.638 362.425 290.456C361.666 290.371 360.899 290.371 360.14 290.456C358.046 290.615 355.999 291.149 354.094 292.031C351.262 293.37 348.778 295.343 346.833 297.798C344.48 300.781 342.579 304.095 341.192 307.632C339.793 311.145 338.703 314.772 337.935 318.474C337.348 321.493 336.948 324.546 336.738 327.615C336.54 330.233 336.468 332.347 336.432 333.814C336.371 334.573 336.392 335.336 336.495 336.09Z" fill="#E0E0E0"/>
<path d="M336.9 331.304C336.965 330.96 336.987 330.609 336.963 330.26C336.963 329.468 336.963 328.461 336.963 327.264C336.963 324.664 336.963 320.903 337.098 316.26C337.323 306.975 338.124 296.988 339.671 282.899C341.129 269.655 343.099 254.234 345.168 244.211C345.609 241.935 346.068 239.874 346.482 238.084C346.896 236.293 347.22 234.728 347.553 233.477C347.885 232.227 348.065 231.327 348.254 230.562C348.361 230.227 348.422 229.879 348.434 229.527C348.279 229.84 348.159 230.169 348.074 230.508C347.84 231.264 347.553 232.218 347.175 233.378C346.797 234.539 346.392 236.167 345.942 237.958C345.492 239.748 344.979 241.8 344.494 244.076C341.926 255.93 339.998 267.914 338.717 279.975C337.17 294.091 336.477 306.966 336.414 316.251C336.36 320.903 336.459 324.673 336.576 327.273C336.648 328.488 336.711 329.477 336.756 330.269C336.767 330.618 336.815 330.965 336.9 331.304Z" fill="#E0E0E0"/>
<path d="M336.963 306.516C337.043 305.474 337.043 304.428 336.963 303.385C336.846 301.379 336.567 298.473 336 294.91C335.313 290.747 334.394 286.626 333.247 282.566C331.901 277.574 330.175 272.692 328.083 267.963C323.782 257.815 317.97 249.501 312.904 244.319C311.774 243.142 310.572 242.037 309.306 241.008C308.757 240.549 308.271 240.108 307.785 239.721L306.399 238.768C305.567 238.135 304.686 237.569 303.763 237.076C303.619 237.283 307.497 239.568 312.392 244.778C318.623 251.718 323.622 259.672 327.174 268.296C329.225 273.001 330.959 277.837 332.365 282.773C333.551 286.793 334.53 290.871 335.298 294.991C335.946 298.509 336.315 301.388 336.54 303.376C336.6 304.432 336.742 305.482 336.963 306.516Z" fill="#E0E0E0"/>
<path d="M313.003 350.252L315.487 384.279H359.213L361.696 350.252H313.003Z" fill="#E0E0E0"/>
<path d="M366.906 336.828H308.775V350.243H366.906V336.828Z" fill="#E0E0E0"/>
<path d="M308.775 382.984V386.699H311.51H365.952V382.984H308.775Z" fill="#EBEBEB"/>
<path d="M314.182 393.24L311.51 386.699H363.865L360.743 393.24H314.182Z" fill="#E0E0E0"/>
<path d="M360.877 361.372C360.828 361.487 360.761 361.593 360.68 361.687C360.5 361.912 360.293 362.2 360.023 362.587L357.477 365.781L357.36 365.925L357.252 365.772L350.999 357.126H351.358L345.195 365.844L344.997 366.123L344.781 365.862C342.514 363.163 340.04 360.221 337.476 357.171H337.899L337.494 357.674C335.235 360.518 333.04 363.271 330.962 365.871L330.746 366.141L330.548 365.853C328.326 362.722 326.256 359.789 324.385 357.135H324.745L317.151 365.781L317.016 365.934L316.908 365.763L314.533 361.768C314.29 361.336 314.083 360.985 313.921 360.707C313.759 360.428 313.723 360.338 313.741 360.329C313.839 360.429 313.923 360.541 313.993 360.662C314.173 360.931 314.389 361.273 314.668 361.687C315.271 362.641 316.116 363.955 317.16 365.61H316.926L324.394 356.856L324.583 356.631L324.754 356.874C326.643 359.51 328.739 362.425 330.971 365.556H330.557L337.071 357.36L337.476 356.847L337.683 356.586L337.899 356.847L345.186 365.556H344.772L350.999 356.874L351.178 356.622L351.358 356.874C353.824 360.392 355.911 363.388 357.486 365.619H357.261L359.906 362.443L360.617 361.615C360.787 361.453 360.868 361.363 360.877 361.372Z" fill="#F5F5F5"/>
<path d="M362.299 350.027C362.299 350.171 351.349 350.297 337.836 350.297C324.322 350.297 313.363 350.171 313.363 350.027C313.363 349.883 324.322 349.748 337.836 349.748C351.349 349.748 362.299 349.874 362.299 350.027Z" fill="#F5F5F5"/>
<path d="M364.512 387.068C364.512 387.212 352.6 387.338 337.917 387.338C323.233 387.338 311.321 387.212 311.321 387.068C311.321 386.924 323.233 386.789 337.917 386.789C352.6 386.789 364.512 386.915 364.512 387.068Z" fill="#F5F5F5"/>
<path d="M281.9 155.507C281.97 152.458 281.1 149.462 279.408 146.924C277.853 144.375 275.537 142.38 272.786 141.22C270.427 140.289 267.827 140.16 265.387 140.855C262.948 141.549 260.805 143.028 259.29 145.062C258.416 142.779 256.839 140.833 254.787 139.505C252.735 138.177 250.313 137.536 247.873 137.675C244.891 137.922 242.061 139.092 239.775 141.022C237.379 142.904 235.617 145.476 234.728 148.391C233.661 152.124 233.822 156.101 235.187 159.736C236.856 163.467 239.391 166.746 242.582 169.3C247.729 173.637 254.531 179.134 254.531 179.134C254.531 179.134 261.62 175.409 267.864 172.899C271.694 171.478 275.127 169.161 277.878 166.142C280.325 163.12 281.734 159.392 281.9 155.507Z" fill="#EBEBEB"/>
<path d="M393.852 143.739C394.152 141.474 393.747 139.171 392.692 137.144C391.727 135.117 390.155 133.441 388.193 132.349C387.14 131.807 385.988 131.485 384.807 131.4C383.625 131.315 382.439 131.469 381.319 131.854C379.99 132.322 378.795 133.106 377.837 134.139C377.37 132.364 376.35 130.784 374.925 129.628C373.5 128.471 371.744 127.798 369.911 127.706C367.67 127.648 365.468 128.293 363.613 129.551C361.671 130.759 360.15 132.537 359.258 134.643C358.155 137.338 357.953 140.317 358.682 143.136C359.622 146.054 361.252 148.702 363.433 150.856C366.915 154.509 371.53 159.151 371.53 159.151C371.53 159.151 377.117 156.956 381.976 155.552C384.946 154.801 387.695 153.351 389.992 151.324C392.057 149.273 393.409 146.615 393.852 143.739Z" fill="#EBEBEB"/>
<path d="M257.158 11.6963C256.405 9.99832 255.149 8.57249 253.559 7.61159C252.035 6.61742 250.24 6.12073 248.422 6.19004C246.885 6.30015 245.426 6.91172 244.271 7.93084C243.115 8.94995 242.326 10.3202 242.025 11.8313C240.95 10.7966 239.573 10.1314 238.094 9.93242C236.615 9.73341 235.111 10.0109 233.801 10.7246C232.213 11.6305 230.953 13.0165 230.202 14.6834C229.354 16.3472 229.039 18.2325 229.302 20.0817C229.691 22.4172 230.817 24.5672 232.515 26.2178C234.407 27.8445 236.663 28.9924 239.091 29.5647C243.059 30.6174 248.242 31.877 248.242 31.877C248.242 31.877 251.184 27.9722 253.973 24.9582C255.71 23.1884 257 21.0291 257.734 18.6601C258.305 16.3381 258.103 13.8931 257.158 11.6963Z" fill="#F5F5F5"/>
<path d="M324.511 130.243C324.497 128.95 324.082 127.692 323.323 126.644C322.624 125.599 321.614 124.799 320.435 124.359C319.808 124.142 319.142 124.055 318.48 124.105C317.818 124.154 317.173 124.339 316.584 124.647C315.883 125.01 315.283 125.541 314.839 126.195C314.554 125.536 314.127 124.949 313.588 124.476C313.088 124.038 312.504 123.706 311.871 123.5C311.239 123.295 310.571 123.219 309.908 123.28C308.661 123.431 307.493 123.973 306.57 124.827C305.59 125.653 304.889 126.763 304.564 128.003C304.176 129.593 304.312 131.265 304.951 132.772C305.712 134.313 306.832 135.649 308.217 136.667C310.457 138.413 313.408 140.608 313.408 140.608C313.408 140.608 316.332 138.926 318.915 137.765C320.501 137.102 321.905 136.069 323.008 134.751C323.978 133.448 324.504 131.868 324.511 130.243Z" fill="#F5F5F5"/>
<path d="M333.355 183.777C333.335 182.483 332.918 181.226 332.158 180.178C331.462 179.133 330.455 178.334 329.279 177.893C328.272 177.544 327.178 177.535 326.165 177.869C325.153 178.202 324.278 178.858 323.674 179.737C323.393 179.076 322.969 178.486 322.432 178.009C321.93 177.574 321.346 177.244 320.714 177.038C320.082 176.833 319.415 176.756 318.753 176.813C317.503 176.969 316.334 177.51 315.406 178.36C314.431 179.194 313.734 180.305 313.408 181.545C313.022 183.131 313.154 184.8 313.786 186.305C314.552 187.846 315.675 189.182 317.061 190.201C319.292 191.946 322.244 194.141 322.244 194.141C322.244 194.141 325.168 192.459 327.75 191.298C329.338 190.635 330.745 189.602 331.853 188.284C332.822 186.981 333.349 185.401 333.355 183.777Z" fill="#EBEBEB"/>
<path d="M376.811 392.773C376.811 392.907 297.123 393.006 198.847 393.006C100.571 393.006 20.8645 392.871 20.8645 392.773C20.8645 392.674 100.535 392.539 198.847 392.539C297.159 392.539 376.811 392.611 376.811 392.773Z" fill="#263238"/>
<path d="M313.678 32.5069L291.41 3.94977L285.958 39.8576L256.582 38.8679L274.963 63.0074L256.465 87.2818L287.101 81.2447L291.527 112.069L316.305 87.9566L347.526 109.658L340.688 78.1046L376.119 72.5264L348.56 56.2685L364.629 28.5571L337.089 39.3267L333.742 5.14639L313.678 32.5069Z" fill="#FAFAFA"/>
<path d="M313.678 32.5068L333.643 5.08339L333.823 4.84046V5.13737C334.723 14.5664 335.91 26.1188 337.215 39.3267L336.999 39.2007L364.53 28.4041L365.016 28.2152L364.755 28.665C359.771 37.2753 354.382 46.5964 348.704 56.3854L348.632 56.1065L376.2 72.3644L376.722 72.6703L376.128 72.7603L340.697 78.3475L340.877 78.0776C343.063 88.1185 345.375 98.7712 347.724 109.622L347.85 110.207L347.364 109.865L319.562 90.5477L316.143 88.1725H316.44L291.689 112.231L291.365 112.546L291.302 112.096C289.791 101.587 288.315 91.3155 286.876 81.2806L287.145 81.4696L256.555 87.4977L255.997 87.6057L256.339 87.1558L274.846 62.8634V63.1063L256.42 38.9758L256.186 38.6699H256.573L285.949 39.6956L285.787 39.8306C287.916 25.8609 289.746 13.8916 291.275 3.92275L291.32 3.65283L291.482 3.86877L313.66 32.4978C313.132 31.832 305.68 22.337 291.302 4.01272L291.509 3.95874C290.01 13.9096 288.21 25.8819 286.111 39.8755V40.0195H285.967L256.582 39.0478L256.735 38.7599L275.134 62.8814L275.233 63.0073L275.134 63.1333L256.645 87.4257L256.438 87.0838L287.029 81.0287H287.262V81.2626C288.702 91.2975 290.181 101.572 291.698 112.087L291.302 111.952L316.134 87.7676L316.278 87.6327L316.431 87.7496L319.859 90.1249L347.652 109.451L347.292 109.685C344.943 98.8252 342.64 88.1815 340.463 78.1406L340.418 77.9067H340.652L376.083 72.3194L376.011 72.7153L348.461 56.4394L348.281 56.3404L348.389 56.1695L364.467 28.4671L364.692 28.728L337.143 39.4707L336.954 39.5516V39.3447C335.685 26.1458 334.561 14.5934 333.652 5.15537L333.859 5.20935L313.678 32.5068Z" fill="#263238"/>
<path d="M330.431 55.2878C330.135 53.0532 329.158 50.9641 327.633 49.3046C326.208 47.6165 324.288 46.4202 322.145 45.8857C320.317 45.4751 318.406 45.6773 316.705 46.461C315.004 47.2448 313.609 48.5666 312.734 50.2223C311.839 48.6517 310.466 47.4072 308.816 46.6695C307.166 45.9317 305.324 45.7391 303.556 46.1196C301.408 46.6354 299.476 47.8123 298.032 49.4846C296.489 51.1274 295.492 53.2083 295.18 55.4407C294.822 58.2904 295.39 61.1798 296.799 63.6821C298.444 66.2161 300.667 68.3225 303.286 69.8272C307.533 72.4094 313.129 75.6574 313.129 75.6574C313.129 75.6574 317.889 72.1305 322.172 69.5933C324.806 68.1142 327.052 66.0294 328.722 63.5112C330.157 61.0237 330.756 58.1412 330.431 55.2878Z" fill="#7E57C2"/>
<path d="M247.981 71.1049C251.598 71.1049 254.531 68.1723 254.531 64.5549C254.531 60.9375 251.598 58.0049 247.981 58.0049C244.363 58.0049 241.431 60.9375 241.431 64.5549C241.431 68.1723 244.363 71.1049 247.981 71.1049Z" fill="#FAFAFA"/>
<path d="M254.531 64.5549C254.477 64.5549 254.531 63.97 254.234 62.9804C253.849 61.5792 253.007 60.3471 251.84 59.4804C250.993 58.8387 249.997 58.42 248.946 58.2628C247.894 58.1056 246.82 58.2149 245.821 58.5807C244.647 59.0092 243.628 59.7802 242.897 60.794C242.311 61.5831 241.918 62.4983 241.749 63.4666C241.58 64.4348 241.64 65.4291 241.925 66.3699C242.209 67.3108 242.709 68.1721 243.386 68.8849C244.062 69.5977 244.897 70.1423 245.821 70.475C246.821 70.8351 247.894 70.9414 248.944 70.7844C249.995 70.6274 250.99 70.2119 251.84 69.5753C253.005 68.7067 253.847 67.4754 254.234 66.0754C254.504 65.0857 254.477 64.4919 254.531 64.5009C254.548 64.6383 254.548 64.7773 254.531 64.9147C254.528 65.3207 254.479 65.7251 254.387 66.1204C254.053 67.5959 253.216 68.9095 252.02 69.8362C251.192 70.4802 250.225 70.9209 249.195 71.1228C248.011 71.3487 246.787 71.2555 245.65 70.8529C244.387 70.4067 243.289 69.5879 242.501 68.5046C241.637 67.3488 241.17 65.9442 241.17 64.5009C241.17 63.0575 241.637 61.653 242.501 60.4971C243.287 59.4115 244.386 58.592 245.65 58.1489C246.786 57.7419 248.011 57.6486 249.195 57.8789C250.45 58.1242 251.608 58.7268 252.529 59.6142C253.45 60.5017 254.095 61.6362 254.387 62.8814C254.479 63.2736 254.527 63.675 254.531 64.078C254.553 64.2362 254.553 64.3967 254.531 64.5549Z" fill="#263238"/>
<path d="M200.637 65.4906C203.535 58.3918 200.134 49.7545 193.98 45.1659C187.825 40.5773 179.584 39.5426 171.999 40.6673C164.415 41.7919 157.244 44.968 150.253 48.054C147.077 44.8199 143.065 42.531 138.664 41.442C134.264 40.3531 129.647 40.5069 125.329 41.8863C121.011 43.2657 117.16 45.8166 114.206 49.255C111.252 52.6933 109.31 56.8841 108.596 61.3608C105.852 60.6323 102.961 60.6687 100.236 61.466C97.511 62.2633 95.0562 63.7912 93.1376 65.884C91.219 67.9769 89.9098 70.5549 89.3518 73.3387C88.7937 76.1225 89.0082 79.0059 89.9719 81.6765L124.224 93.9667L161.293 160.168C172.197 169.588 190.129 169.453 200.88 159.862C211.632 150.271 213.818 132.475 205.694 120.571C207.805 118.713 209.599 116.522 211.002 114.084C216.976 110.486 221.655 104.754 223.247 97.8895C226.612 83.44 215.348 67.317 200.637 65.4906Z" fill="#263238"/>
<path d="M176.975 202.869C174.915 192.072 173.475 184.757 173.493 184.829C173.511 184.901 193.791 177.083 192.576 148.841C191.973 134.769 186.755 112.564 181.896 94.5335C177.524 78.3386 162.534 60.3442 146.51 65.4096L97.9886 88.6673C93.1211 90.1969 92.2394 94.7584 93.355 99.7429L93.409 102.163L111.727 180.16L119.456 215.015C121.112 222.165 125.381 228.437 131.426 232.599C137.471 236.762 144.854 238.512 152.125 237.508C156.074 236.96 159.871 235.615 163.285 233.554C166.698 231.493 169.657 228.76 171.981 225.52C174.306 222.28 175.947 218.601 176.805 214.707C177.664 210.813 177.721 206.786 176.975 202.869Z" fill="#B5836D"/>
<path d="M177.515 121.957C177.706 122.876 177.531 123.833 177.027 124.625C176.523 125.416 175.729 125.98 174.816 126.195C174.376 126.321 173.916 126.358 173.461 126.304C173.007 126.25 172.569 126.105 172.171 125.879C171.774 125.653 171.426 125.349 171.147 124.986C170.869 124.623 170.666 124.208 170.551 123.765C170.359 122.847 170.534 121.889 171.039 121.098C171.543 120.306 172.336 119.743 173.25 119.528C173.69 119.404 174.149 119.368 174.603 119.424C175.056 119.479 175.494 119.624 175.891 119.85C176.287 120.076 176.635 120.379 176.914 120.74C177.193 121.102 177.397 121.516 177.515 121.957Z" fill="#263238"/>
<path d="M179.089 109.991C178.747 110.531 175.679 109.091 171.891 109.883C168.104 110.674 165.728 113.113 165.225 112.735C164.982 112.573 165.225 111.655 166.286 110.531C167.69 109.06 169.517 108.063 171.514 107.678C173.477 107.271 175.52 107.501 177.344 108.335C178.702 108.992 179.26 109.739 179.089 109.991Z" fill="#263238"/>
<path d="M144.513 127.607C144.704 128.526 144.529 129.483 144.025 130.275C143.521 131.067 142.727 131.63 141.814 131.845C141.374 131.97 140.913 132.006 140.459 131.95C140.005 131.895 139.566 131.75 139.169 131.522C138.772 131.295 138.424 130.991 138.146 130.628C137.867 130.265 137.665 129.849 137.549 129.407C137.358 128.488 137.533 127.53 138.037 126.739C138.541 125.947 139.335 125.384 140.248 125.169C140.688 125.044 141.149 125.008 141.603 125.063C142.057 125.119 142.496 125.264 142.893 125.491C143.291 125.718 143.638 126.023 143.917 126.386C144.195 126.749 144.397 127.164 144.513 127.607Z" fill="#263238"/>
<path d="M142.831 116.559C142.489 117.108 139.421 115.659 135.633 116.451C131.845 117.242 129.47 119.69 128.966 119.303C128.723 119.141 128.966 118.223 130.028 117.099C131.43 115.631 133.253 114.635 135.246 114.246C137.213 113.843 139.257 114.073 141.085 114.903C142.435 115.596 143.001 116.343 142.831 116.559Z" fill="#263238"/>
<path d="M161.797 140.608C161.734 140.401 164.01 139.52 167.717 138.251C168.662 137.954 169.516 137.585 169.57 136.892C169.624 136.2 169.039 135.183 168.338 134.193L163.992 127.355C157.901 117.692 153.285 109.667 153.672 109.424C154.059 109.181 159.322 116.82 165.369 126.519C166.844 128.918 168.257 131.2 169.606 133.365C170.191 134.382 171.073 135.507 170.875 137.054C170.803 137.423 170.648 137.77 170.422 138.069C170.196 138.368 169.905 138.612 169.57 138.782C169.066 139.038 168.531 139.229 167.978 139.349C164.235 140.32 161.86 140.851 161.797 140.608Z" fill="#263238"/>
<path d="M173.493 184.829C160.629 187.649 147.235 186.839 134.805 182.49C134.805 182.49 147.986 199.954 174.888 191.82L173.493 184.829Z" fill="#7F594B"/>
<path d="M140.77 106.329C140.518 107.418 136.631 107.364 132.196 108.425C127.76 109.487 124.269 111.124 123.559 110.225C123.244 109.811 123.765 108.758 125.115 107.579C126.927 106.114 129.051 105.083 131.323 104.564C133.595 104.044 135.955 104.051 138.224 104.583C139.951 105.096 140.878 105.816 140.77 106.329Z" fill="#263238"/>
<path d="M176.957 98.9241C176.345 99.9498 173.088 99.6799 169.372 100.391C165.656 101.101 162.642 102.361 161.743 101.605C161.338 101.236 161.653 100.274 162.858 99.1851C164.536 97.7699 166.567 96.837 168.733 96.4859C170.869 96.0682 173.078 96.2424 175.121 96.9897C176.615 97.6645 177.245 98.4383 176.957 98.9241Z" fill="#263238"/>
<path d="M110 70.556C110.541 73.3146 111.684 75.9198 113.348 78.1863C115.011 80.4528 117.153 82.3249 119.622 83.6693C122.091 85.0137 124.826 85.7974 127.632 85.9646C130.438 86.1318 133.247 85.6784 135.858 84.6366C139.888 83.0261 144.054 79.9941 148.13 81.4966C152.413 83.0801 153.726 88.7933 157.694 91.0516C163.371 94.2726 170.29 88.7933 176.768 89.3871C181.788 89.837 185.657 93.7688 189.571 96.9538C193.485 100.139 198.919 102.802 203.382 100.445C202.221 96.252 201.051 92.0053 198.964 88.1815C196.877 84.3577 193.764 80.9388 189.715 79.3283C187.502 78.4286 185.063 78.1227 182.949 77.016C178.378 74.6317 176.363 69.2874 173.052 65.3196C170.877 62.797 168.132 60.8284 165.046 59.5768C161.959 58.3251 158.618 57.8264 155.301 58.1219C149.803 58.6527 144.567 61.3879 139.043 61.118C134.967 60.92 131.062 59.0756 126.977 59.1206C119.015 59.2016 112.996 66.1294 108.533 72.7243" fill="#263238"/>
<path d="M136.757 76.5391C133.159 76.2512 125.646 75.4325 123.199 72.8233C117.899 67.1551 109.955 64.15 102.82 65.9854C99.1475 67.0301 95.9116 69.235 93.5959 72.2708C91.2801 75.3066 90.0089 79.0102 89.972 82.8282C81.2537 84.6276 73.84 91.8254 71.3118 100.922C70.0956 105.542 70.0219 110.389 71.0972 115.045C72.1725 119.7 74.3645 124.024 77.4839 127.643C78.9978 129.568 80.3776 131.594 81.6136 133.707C79.8779 135.834 78.3476 138.121 77.043 140.536C71.1589 153.348 86.886 158.369 86.886 158.369C86.886 167.006 94.8305 167.024 99.9409 167.024C104.853 167.024 107.786 180.673 111.763 180.169L107.966 138.08C108.558 138.306 109.186 138.422 109.82 138.422C119.456 138.656 117.018 120.427 113.968 115.695C116.667 112.096 119.474 108.389 121.264 104.125C123.055 99.8598 123.235 89.1532 121.759 84.6546C125.124 84.1687 138.323 76.6741 136.757 76.5391Z" fill="#263238"/>
<path d="M109.388 140.311C107.921 134.544 100.787 131.926 96.3241 135.813C93.8678 137.972 92.3923 141.625 93.8858 147.77C97.8806 164.145 113.5 156.767 113.419 156.281C113.365 156.029 111.097 147.077 109.388 140.311Z" fill="#B5836D"/>
<path d="M106.896 151.342C106.815 151.342 106.662 151.612 106.23 151.954C105.624 152.407 104.866 152.607 104.116 152.511C102.226 152.305 100.103 149.911 99.302 146.978C98.9174 145.583 98.8498 144.12 99.1041 142.696C99.1318 142.148 99.2931 141.616 99.5738 141.146C99.8546 140.675 100.246 140.281 100.715 139.996C101.02 139.828 101.375 139.773 101.717 139.84C102.06 139.908 102.367 140.094 102.586 140.365C102.919 140.77 102.901 141.121 102.991 141.13C103.081 141.139 103.279 140.77 102.991 140.122C102.803 139.728 102.485 139.411 102.091 139.223C101.826 139.113 101.542 139.056 101.254 139.056C100.967 139.056 100.683 139.113 100.418 139.223C99.1761 139.618 98.3214 141.022 98.0514 142.489C97.698 144.076 97.7413 145.726 98.1774 147.293C99.0771 150.568 101.533 153.249 104.062 153.348C104.532 153.371 105.001 153.288 105.434 153.104C105.867 152.92 106.253 152.641 106.563 152.287C106.968 151.747 106.968 151.36 106.896 151.342Z" fill="#7F594B"/>
<path d="M80.4709 109.046C80.1847 108.933 79.9153 108.782 79.6702 108.596C78.9382 108.097 78.2381 107.553 77.5738 106.968C75.0852 104.819 73.179 102.077 72.0315 98.9961C71.2603 96.8388 70.9836 94.5358 71.2218 92.2572C71.4668 89.6152 72.4697 87.1002 74.1099 85.0145C75.0222 83.8568 76.1552 82.8916 77.4433 82.175C78.7313 81.4584 80.1488 81.0045 81.6136 80.8398C83.1931 80.618 84.8026 80.764 86.3164 81.2665C87.8302 81.7691 89.2075 82.6145 90.3408 83.7369L89.6211 84.2317L89.5401 84.0608C86.76 78.3656 85.9412 71.8606 87.8666 66.5792C89.792 61.2979 93.9127 57.582 98.0334 56.6823C99.6443 56.2771 101.32 56.1996 102.962 56.4547C104.603 56.7097 106.176 57.2919 107.588 58.1669C108.345 58.6427 109.03 59.2244 109.622 59.8943C109.834 60.125 110.015 60.382 110.162 60.6591C109.336 59.8165 108.411 59.0764 107.409 58.4548C104.606 56.8725 101.295 56.4526 98.1864 57.2851C94.3086 58.2838 90.3408 61.8287 88.6404 66.8941C86.9399 71.9596 87.6327 78.1856 90.3408 83.7189L90.4218 83.8898L91.5824 86.3641L89.702 84.3847C88.6602 83.3642 87.3983 82.5959 86.0134 82.139C84.6284 81.682 83.1571 81.5484 81.7125 81.7485C80.3561 81.8929 79.0416 82.3043 77.8448 82.959C76.6481 83.6137 75.5928 84.4988 74.7397 85.5633C73.1855 87.529 72.2158 89.8924 71.9416 92.3832C71.6896 94.5576 71.9232 96.7609 72.6254 98.8342C73.6927 101.853 75.4701 104.572 77.8078 106.761C79.4452 108.29 80.5249 108.983 80.4709 109.046Z" fill="#263238"/>
<path d="M151.639 147.671C151.154 149.677 151.072 151.76 151.396 153.798C151.564 154.816 151.937 155.788 152.492 156.658C153.047 157.527 153.773 158.274 154.626 158.854C156.425 159.86 158.542 160.134 160.537 159.619H160.6C161.81 159.329 162.893 158.652 163.683 157.69C164.474 156.729 164.93 155.536 164.982 154.293L165.234 149.021C161.563 148.706 155.301 147.977 151.639 147.671Z" fill="#7F594B"/>
<path d="M164.829 157.388C164.829 157.451 164.424 157.73 163.695 158.288C163.242 158.646 162.767 158.976 162.274 159.277C161.581 159.649 160.834 159.907 160.06 160.042C159.127 160.225 158.171 160.262 157.226 160.15C156.115 160.033 155.05 159.647 154.122 159.025C153.107 158.258 152.278 157.273 151.696 156.143C151.113 155.012 150.793 153.765 150.757 152.493C150.669 150.84 150.818 149.183 151.198 147.572L151.279 147.176H151.675C155.598 147.59 158.99 147.986 161.401 148.301C162.698 148.39 163.982 148.613 165.234 148.967C163.941 149.068 162.642 149.037 161.356 148.877C158.927 148.715 155.526 148.436 151.603 148.085L152.08 147.725C151.745 149.258 151.612 150.827 151.684 152.394C151.716 153.53 151.994 154.644 152.501 155.66C153.008 156.676 153.73 157.57 154.617 158.279C156.197 159.296 158.102 159.678 159.952 159.349C160.671 159.268 161.373 159.074 162.031 158.773C162.606 158.504 163.083 158.18 163.488 157.946C163.89 157.666 164.347 157.475 164.829 157.388Z" fill="#263238"/>
<path d="M151.153 140.851C150.198 139.728 149.128 138.708 147.959 137.81C146.665 136.876 145.232 136.153 143.712 135.669C141.863 135.057 139.904 134.845 137.967 135.048C136.029 135.252 134.157 135.865 132.475 136.847C131.089 137.634 129.841 138.64 128.777 139.825C127.822 140.936 126.984 142.142 126.276 143.424C126.379 143.036 126.527 142.662 126.716 142.309C127.2 141.337 127.805 140.43 128.516 139.609C130.323 137.419 132.754 135.829 135.486 135.051C138.217 134.274 141.121 134.345 143.811 135.255C145.364 135.772 146.821 136.545 148.121 137.54C148.989 138.209 149.772 138.983 150.451 139.843C150.728 140.147 150.964 140.486 151.153 140.851Z" fill="#7F594B"/>
<path d="M151.639 147.671C151.154 149.677 151.072 151.76 151.396 153.798C151.564 154.816 151.937 155.788 152.492 156.658C153.047 157.527 153.773 158.274 154.626 158.854C156.425 159.86 158.542 160.134 160.537 159.619H160.6C161.81 159.329 162.893 158.652 163.683 157.69C164.474 156.729 164.93 155.536 164.982 154.293L165.234 149.021C161.563 148.706 155.301 147.977 151.639 147.671Z" fill="#7F594B"/>
<path d="M164.829 157.388C164.829 157.451 164.424 157.73 163.695 158.288C163.242 158.646 162.767 158.976 162.274 159.277C161.581 159.649 160.834 159.907 160.06 160.042C159.127 160.225 158.171 160.262 157.226 160.15C156.115 160.033 155.05 159.647 154.122 159.025C153.107 158.258 152.278 157.273 151.696 156.143C151.113 155.012 150.793 153.765 150.757 152.493C150.669 150.84 150.818 149.183 151.198 147.572L151.279 147.176H151.675C155.598 147.59 158.99 147.986 161.401 148.301C162.698 148.39 163.982 148.613 165.234 148.967C163.941 149.068 162.642 149.037 161.356 148.877C158.927 148.715 155.526 148.436 151.603 148.085L152.08 147.725C151.745 149.258 151.612 150.827 151.684 152.394C151.716 153.53 151.994 154.644 152.501 155.66C153.008 156.676 153.73 157.57 154.617 158.279C156.197 159.296 158.102 159.678 159.952 159.349C160.671 159.268 161.373 159.074 162.031 158.773C162.606 158.504 163.083 158.18 163.488 157.946C163.89 157.666 164.347 157.475 164.829 157.388Z" fill="#263238"/>
<path d="M151.153 140.851C150.198 139.728 149.128 138.708 147.959 137.81C146.665 136.876 145.232 136.153 143.712 135.669C141.863 135.057 139.904 134.845 137.967 135.048C136.029 135.252 134.157 135.865 132.475 136.847C131.089 137.634 129.841 138.64 128.777 139.825C127.822 140.936 126.984 142.142 126.276 143.424C126.379 143.036 126.527 142.662 126.716 142.309C127.2 141.337 127.805 140.43 128.516 139.609C130.323 137.419 132.754 135.829 135.486 135.051C138.217 134.274 141.121 134.345 143.811 135.255C145.364 135.772 146.821 136.545 148.121 137.54C148.989 138.209 149.772 138.983 150.451 139.843C150.728 140.147 150.964 140.486 151.153 140.851Z" fill="#7F594B"/>
<path d="M98.6722 156.2C98.0212 156.588 97.4174 157.05 96.8728 157.577C95.4912 159.161 94.625 161.129 94.3896 163.218C94.1647 164.643 94.1952 166.096 94.4795 167.51C94.8206 169.124 95.5703 170.623 96.6569 171.864C97.8826 173.234 99.428 174.278 101.155 174.905C102.974 175.63 104.97 175.783 106.878 175.346C108.787 174.919 110.531 173.947 111.898 172.548C113.171 171.243 114.058 169.611 114.462 167.834C114.838 166.335 114.891 164.773 114.62 163.252C114.348 161.731 113.758 160.284 112.888 159.007C111.667 157.294 109.851 156.098 107.795 155.651C107.037 155.526 106.267 155.49 105.501 155.544C105.691 155.483 105.887 155.444 106.086 155.427C106.664 155.363 107.248 155.378 107.822 155.472C109.962 155.863 111.87 157.057 113.158 158.81C114.081 160.118 114.712 161.61 115.008 163.184C115.305 164.758 115.26 166.378 114.876 167.933C114.467 169.789 113.551 171.496 112.231 172.863C110.801 174.332 108.976 175.354 106.977 175.805C104.98 176.262 102.892 176.096 100.994 175.328C99.212 174.671 97.6247 173.576 96.378 172.143C95.2536 170.844 94.4849 169.275 94.1467 167.591C93.8772 166.131 93.8772 164.633 94.1467 163.173C94.4137 161.027 95.3593 159.022 96.8458 157.451C97.2682 157.049 97.7435 156.707 98.2584 156.434C98.3892 156.344 98.5277 156.266 98.6722 156.2Z" fill="#455A64"/>
<path d="M115.821 198.631L90.5028 208.06L73.1472 259.389L98.0155 345.447L83.377 392.773H234.602L220.764 351.385C222.968 336.09 232.73 300.686 231.399 284.239C228.502 248.628 214.421 198.298 214.421 198.298L175.553 196.382C166.592 219.253 126.609 220.998 115.821 198.631Z" fill="#455A64"/>
<g opacity="0.3">
<path opacity="0.3" d="M167.348 210.345C167.348 210.345 167.546 210.759 167.906 211.47C169.642 214.898 175.058 225.218 179.125 228.439C184.038 232.335 189.976 237.436 189.976 237.436C195.761 274.945 207.169 307.389 222.924 335.928L212.829 283.682L195.905 221.457L167.546 210.759" fill="black"/>
</g>
<g opacity="0.3">
<path opacity="0.3" d="M118.898 343.414L86.8049 388.454C104.61 383.955 121.39 373.096 129.857 356.793C130.855 354.867 131.8 352.834 133.455 351.394C136.487 348.695 140.878 347.382 144.72 346.149C156.668 342.316 162.12 338.187 166.529 329.477C155.418 343.639 135.399 348.686 118.898 343.414Z" fill="black"/>
</g>
<path d="M213.8 198.433C213.8 198.433 223.958 196.238 237.328 213.225C249.024 228.079 263.672 251.598 263.672 251.598L228.439 266.65L213.962 203.669L213.8 198.433Z" fill="#455A64"/>
<path d="M36.5376 287.91C36.5376 287.91 48.6568 229.806 60.5961 220.638C72.7693 211.29 98.0154 205.631 98.0154 205.631L96.8278 302.477L36.5376 287.91Z" fill="#455A64"/>
<path d="M86.2651 247.207C86.3493 247.372 86.4128 247.548 86.4541 247.729C86.562 248.071 86.697 248.583 86.8769 249.249C87.2188 250.581 87.6777 252.506 88.1546 254.918C89.382 261.187 90.2412 267.523 90.7277 273.893C91.2367 280.264 91.3569 286.661 91.0876 293.048C91.0247 295.495 90.8357 297.474 90.7277 298.842C90.6738 299.481 90.6288 300.002 90.5838 300.407C90.5794 300.593 90.5522 300.777 90.5028 300.956C90.4871 300.774 90.4871 300.59 90.5028 300.407C90.5028 299.993 90.5028 299.508 90.5568 298.824C90.6108 297.456 90.7457 295.486 90.7727 293.039C90.9388 286.664 90.7706 280.285 90.2689 273.929C89.7841 267.575 88.9733 261.251 87.8396 254.98C87.4078 252.569 86.9939 250.635 86.706 249.294C86.571 248.664 86.4541 248.152 86.3641 247.756C86.3105 247.577 86.2773 247.393 86.2651 247.207Z" fill="#263238"/>
<path d="M175.247 304.393C175.269 304.575 175.269 304.76 175.247 304.942C175.247 305.302 175.247 305.842 175.247 306.525C175.186 308.465 174.966 310.397 174.591 312.302C173.397 318.638 170.674 324.587 166.659 329.631C162.643 334.675 157.456 338.662 151.549 341.246C149.776 342.036 147.944 342.685 146.07 343.189C145.404 343.378 144.882 343.468 144.531 343.549C144.352 343.599 144.168 343.629 143.982 343.639C144.148 343.558 144.323 343.497 144.504 343.459C144.846 343.342 145.404 343.225 146.016 343.009C147.86 342.448 149.664 341.759 151.414 340.949C157.217 338.305 162.313 334.325 166.285 329.335C170.257 324.346 172.992 318.487 174.267 312.239C174.663 310.352 174.931 308.44 175.067 306.516C175.13 305.833 175.13 305.302 175.166 304.942C175.17 304.756 175.197 304.572 175.247 304.393Z" fill="#263238"/>
<path d="M86.5711 253.766C86.1293 253.502 85.7108 253.201 85.3205 252.866C84.5377 252.272 83.3861 251.436 81.9465 250.437C78.1923 247.83 74.2531 245.499 70.1602 243.464C66.0568 241.448 61.8107 239.737 57.4562 238.345C55.7917 237.814 54.4241 237.445 53.4794 237.148C52.9834 237.029 52.4964 236.876 52.0219 236.689C52.5295 236.741 53.0321 236.834 53.5244 236.968C54.4871 237.175 55.8637 237.535 57.5551 238.03C61.96 239.335 66.2461 241.011 70.3671 243.041C74.4855 245.083 78.4251 247.466 82.1445 250.167C83.557 251.211 84.6817 252.083 85.4284 252.731C85.837 253.044 86.2192 253.39 86.5711 253.766Z" fill="white"/>
<path d="M175.967 221.214C175.897 221.238 175.824 221.256 175.751 221.268L175.094 221.385L172.575 221.799L163.299 223.283C155.462 224.543 144.657 226.36 132.754 228.574C120.85 230.787 110.117 232.973 102.352 234.611L93.1569 236.554L90.6557 237.076L90.0079 237.202H89.783C89.783 237.202 89.8549 237.202 89.9989 237.121L90.6377 236.959L93.1209 236.347C95.2803 235.834 98.4113 235.115 102.28 234.26C110.027 232.542 120.76 230.301 132.673 228.088C144.585 225.875 155.4 224.111 163.263 222.933C167.186 222.339 170.362 221.88 172.566 221.592L175.103 221.268L175.76 221.196C175.83 221.19 175.9 221.196 175.967 221.214Z" fill="white"/>
<path d="M236.455 213.728C236.554 213.809 233.855 217.021 230.436 220.926C227.017 224.831 224.138 227.863 224.066 227.782C225.951 225.283 227.96 222.881 230.085 220.584C232.091 218.193 234.217 215.904 236.455 213.728Z" fill="white"/>
<path d="M118.664 285.508L88.0737 322.747L88.6315 300.254L44.7522 289.89C44.7522 289.89 44.5632 302.486 44.6532 329.018C44.6532 336.09 46.7316 359.429 49.6287 370.271C53.3625 384.288 78.6896 396.911 92.9231 384.765C105.222 374.265 145.377 295.351 145.377 295.351L118.664 285.508Z" fill="#B5836D"/>
<path d="M118.664 285.508C118.565 285.706 118.444 285.894 118.304 286.066C118.061 286.426 117.683 286.965 117.179 287.595C116.172 288.909 114.678 290.762 112.816 293.057C109.1 297.627 103.891 303.853 98.1234 310.799L83.395 328.515L78.9774 333.913L77.7988 335.397C77.6648 335.573 77.5174 335.739 77.3579 335.892C77.4616 335.696 77.582 335.51 77.7178 335.334C78.0057 334.948 78.3746 334.435 78.8334 333.796C79.8321 332.482 81.2987 330.602 83.1431 328.299C86.823 323.692 92.0053 317.403 97.7635 310.493L118.664 285.508Z" fill="#7F594B"/>
<path d="M180.43 239.019C180.43 239.019 174.546 241.98 173.979 248.817C173.412 255.655 173.979 273.182 173.979 273.182L184.128 271.886L180.43 239.019Z" fill="#7F594B"/>
<path d="M179.566 256.015C179.341 252.227 178.666 248.359 176.804 245.075C175.219 242.516 173.132 240.306 170.668 238.579C167.913 236.48 164.835 234.845 161.554 233.738C157.028 232.252 152.191 231.981 147.528 232.953C142.864 233.926 138.538 236.107 134.984 239.279C131.43 242.451 128.772 246.501 127.276 251.024C125.781 255.547 125.501 260.383 126.465 265.048L126.402 264.787C126.402 264.985 126.483 265.174 126.519 265.372C126.555 265.57 126.564 265.588 126.591 265.696C127.958 272.075 129.992 277.267 135.021 281.576C138.332 284.41 142.66 285.733 146.933 286.57C153.492 287.865 160.609 288.108 166.565 285.067C171.551 282.35 175.386 277.921 177.362 272.597C179.289 267.295 180.041 261.637 179.566 256.015Z" fill="#FFBE8D"/>
<path d="M179.044 252.029C179.476 255.538 177.416 258.894 176.129 262.196C175.301 264.329 174.33 266.623 172.341 267.757C170.884 268.584 169.048 268.656 167.708 269.673C166.592 270.492 165.962 271.841 164.829 272.642C162.13 274.54 158.171 272.534 155.229 274.001C154.369 274.53 153.557 275.132 152.799 275.8C152.415 276.123 151.965 276.359 151.48 276.491C150.995 276.623 150.488 276.648 149.992 276.565C148.841 276.259 148.193 275.071 147.14 274.459C145.854 273.686 144.243 273.893 142.75 273.857C140.347 273.758 138.023 272.977 136.049 271.605C134.074 270.233 132.532 268.327 131.602 266.11C131.602 266.11 129.2 269.079 128.003 267.909C127.203 267.053 126.641 266.001 126.375 264.859L126.438 265.12C125.474 260.455 125.754 255.619 127.249 251.096C128.745 246.573 131.403 242.523 134.957 239.351C138.512 236.179 142.837 233.998 147.501 233.025C152.164 232.053 157.001 232.324 161.527 233.81C164.808 234.917 167.886 236.552 170.641 238.651C173.105 240.378 175.193 242.588 176.777 245.147C177.97 247.273 178.74 249.61 179.044 252.029Z" fill="#7E57C2"/>
<g opacity="0.3">
<path opacity="0.3" d="M174.123 247.675C173.869 246.728 173.426 245.843 172.818 245.075C169.587 240.585 164.967 237.284 159.673 235.681C154.428 234.107 149.201 234.944 144.081 236.905C143.479 237.066 142.964 237.457 142.648 237.994C142.331 238.531 142.239 239.171 142.39 239.775C142.573 240.371 142.909 240.909 143.363 241.337C143.817 241.764 144.375 242.066 144.981 242.213C146.199 242.497 147.469 242.479 148.679 242.159C149.902 241.908 151.099 241.539 152.332 241.404C155.302 241.23 158.247 242.043 160.708 243.716C163.138 245.386 165.447 247.226 167.618 249.222C168.414 249.983 169.353 250.579 170.38 250.977C170.898 251.166 171.458 251.213 172 251.113C172.543 251.014 173.049 250.771 173.466 250.41C173.79 250.042 174.019 249.6 174.133 249.124C174.248 248.647 174.244 248.15 174.123 247.675Z" fill="white"/>
</g>
<g opacity="0.3">
<path opacity="0.3" d="M155.301 259.749C152.907 259.092 150.46 260.343 148.229 261.422C145.998 262.502 143.28 263.429 141.13 262.178C139.187 261.054 138.089 258.327 135.84 258.246C135.118 258.279 134.427 258.549 133.874 259.014C133.321 259.479 132.936 260.114 132.781 260.82C132.512 262.254 132.771 263.736 133.509 264.994C134.61 267.022 136.314 268.658 138.385 269.675C140.457 270.692 142.793 271.041 145.071 270.672C147.212 270.276 149.219 269.25 151.369 269.034C153.294 268.854 155.526 269.241 156.929 267.909C158.054 266.848 159.124 266.02 159.628 263.789C159.988 262.088 159.196 260.514 155.301 259.749Z" fill="white"/>
</g>
<g opacity="0.3">
<path opacity="0.3" d="M167.267 259.992C166.925 258.759 165.297 258.139 164.019 258.246H163.938C163.57 258.36 163.233 258.554 162.95 258.814C162.667 259.075 162.446 259.396 162.304 259.753C162.161 260.111 162.101 260.496 162.127 260.879C162.153 261.263 162.264 261.636 162.453 261.971C162.771 262.526 163.276 262.95 163.877 263.168C164.479 263.385 165.138 263.382 165.737 263.159C166.319 262.89 166.79 262.427 167.069 261.849C167.348 261.272 167.418 260.615 167.267 259.992Z" fill="white"/>
</g>
<g opacity="0.3">
<path opacity="0.3" d="M145.548 258.48C147.617 257.216 149.966 256.479 152.387 256.337C154.808 256.194 157.227 256.649 159.43 257.662C161.184 255.846 163.456 254.617 165.935 254.144C164.905 252.174 163.433 250.47 161.634 249.165C159.835 247.859 157.759 246.988 155.567 246.619C153.375 246.251 151.128 246.395 149.001 247.04C146.874 247.685 144.925 248.814 143.307 250.338C141.922 251.661 140.743 253.613 141.418 255.403C141.994 256.942 143.685 257.707 145.215 258.309" fill="black"/>
</g>
<path d="M169.984 254.378C168.887 254.201 167.774 254.137 166.664 254.189C165.452 254.313 164.276 254.67 163.2 255.241C161.856 255.976 160.571 256.816 159.358 257.752L159.25 257.815L159.125 257.77C158.497 257.538 157.857 257.34 157.208 257.176C155.499 256.743 153.728 256.603 151.972 256.762C150.536 256.903 149.124 257.226 147.77 257.725C145.449 258.624 144.171 259.461 144.117 259.38C144.394 259.139 144.696 258.928 145.017 258.75C145.88 258.233 146.783 257.785 147.716 257.41C149.086 256.86 150.523 256.496 151.99 256.33C153.798 256.142 155.625 256.273 157.388 256.717C158.058 256.89 158.719 257.097 159.367 257.338H159.143C160.383 256.394 161.701 255.557 163.083 254.837C164.205 254.271 165.429 253.934 166.682 253.847C167.516 253.806 168.351 253.878 169.165 254.063C169.45 254.133 169.725 254.239 169.984 254.378Z" fill="#263238"/>
<path d="M165.872 253.712C164.989 252.414 163.953 251.227 162.786 250.176C161.497 249.072 160.027 248.198 158.441 247.594C156.505 246.86 154.428 246.577 152.367 246.766C150.303 246.962 148.304 247.594 146.501 248.619C145.032 249.461 143.728 250.561 142.651 251.867C141.913 252.741 141.365 253.758 141.04 254.855C140.824 255.637 140.833 256.096 140.788 256.096C140.769 255.986 140.769 255.873 140.788 255.763C140.799 255.443 140.835 255.124 140.896 254.81C141.166 253.662 141.688 252.589 142.426 251.67C143.492 250.29 144.815 249.129 146.321 248.251C148.165 247.163 150.227 246.496 152.358 246.298C154.499 246.101 156.656 246.409 158.657 247.198C160.274 247.824 161.765 248.738 163.056 249.897C163.925 250.678 164.688 251.571 165.323 252.551C165.496 252.817 165.653 253.094 165.791 253.379C165.835 253.485 165.862 253.597 165.872 253.712Z" fill="#263238"/>
<path d="M131.098 263.753C131.006 263.387 130.948 263.014 130.927 262.637C130.816 261.618 130.765 260.594 130.774 259.569C130.78 258.043 130.888 256.519 131.098 255.007C131.62 251.292 132.731 247.684 134.391 244.319C135.069 242.952 135.839 241.632 136.694 240.369C137.263 239.517 137.882 238.7 138.548 237.922C138.772 237.619 139.032 237.344 139.322 237.103C139.394 237.157 138.359 238.381 136.973 240.558C136.163 241.828 135.433 243.147 134.787 244.508C133.997 246.175 133.324 247.894 132.772 249.654C132.235 251.423 131.82 253.227 131.53 255.052C131.3 256.542 131.159 258.044 131.107 259.551C131.026 262.151 131.188 263.744 131.098 263.753Z" fill="white"/>
<path d="M138.224 272.147C138.023 271.658 137.867 271.152 137.756 270.636C137.581 270.044 137.44 269.444 137.333 268.836C137.207 268.125 137.018 267.316 136.928 266.407C136.786 265.423 136.696 264.432 136.658 263.438C136.568 262.367 136.604 261.216 136.658 260.01C136.764 257.388 137.104 254.78 137.675 252.218C138.281 249.667 139.118 247.177 140.176 244.778C140.698 243.689 141.166 242.636 141.724 241.719C142.194 240.84 142.711 239.987 143.271 239.163C143.748 238.381 144.27 237.742 144.702 237.157C145.065 236.656 145.456 236.175 145.872 235.717C146.199 235.302 146.563 234.916 146.96 234.566C146.687 235.007 146.387 235.431 146.061 235.834C145.737 236.23 145.359 236.734 144.954 237.319C144.549 237.904 144.054 238.561 143.595 239.343C143.136 240.126 142.588 240.954 142.102 241.899C141.616 242.843 141.121 243.869 140.617 244.949C138.536 249.717 137.356 254.83 137.135 260.028C137.135 261.216 137.063 262.358 137.135 263.42C137.207 264.482 137.252 265.471 137.351 266.371C137.45 267.271 137.576 268.08 137.684 268.791C137.792 269.502 137.909 270.114 138.026 270.591C138.13 271.104 138.196 271.624 138.224 272.147Z" fill="white"/>
<path d="M148.184 274.783C147.75 274.103 147.417 273.363 147.194 272.588C146.556 270.751 146.154 268.84 145.997 266.902C145.834 264.964 145.922 263.014 146.258 261.099C146.351 260.299 146.56 259.517 146.879 258.777C146.825 259.571 146.726 260.361 146.582 261.144C146.354 263.042 146.315 264.959 146.465 266.866C146.624 268.77 146.974 270.654 147.509 272.489C147.776 273.241 148.001 274.007 148.184 274.783Z" fill="white"/>
<path d="M151.576 243.941C151.626 242.06 152.054 240.209 152.835 238.498C153.474 236.73 154.455 235.106 155.724 233.72C155.84 233.801 154.41 235.843 153.267 238.678C152.125 241.512 151.711 243.968 151.576 243.941Z" fill="white"/>
<path d="M161.095 247.207C160.841 245.517 160.939 243.792 161.383 242.142C161.677 240.454 162.311 238.845 163.245 237.409C163.38 237.472 162.426 239.532 161.842 242.24C161.257 244.949 161.239 247.207 161.095 247.207Z" fill="white"/>
<path d="M159.916 272.48C159.543 272.03 159.239 271.527 159.016 270.987C157.736 268.443 156.945 265.68 156.686 262.844C156.586 262.264 156.586 261.67 156.686 261.09C156.83 261.09 156.992 263.789 157.91 266.902C158.827 270.015 160.051 272.408 159.916 272.48Z" fill="white"/>
<path d="M172.143 244.499C172.064 244.899 171.946 245.291 171.792 245.668C171.505 246.729 171.31 247.813 171.208 248.907C171.077 250.535 171.038 252.169 171.091 253.802C171.179 255.821 171.14 257.843 170.974 259.857C170.876 260.905 170.677 261.942 170.38 262.952C170.242 263.445 170.064 263.927 169.849 264.392C169.724 264.63 169.557 264.844 169.354 265.021C169.241 265.115 169.11 265.184 168.969 265.226C168.829 265.267 168.681 265.281 168.536 265.264C168.04 265.129 167.618 264.807 167.357 264.365C167.078 264.014 166.826 263.663 166.583 263.321C166.149 262.683 165.755 262.019 165.404 261.333C164.9 260.335 164.5 259.289 164.208 258.21C164.08 257.823 164.005 257.421 163.983 257.014C164.447 258.445 165.022 259.838 165.701 261.18C166.063 261.846 166.466 262.489 166.907 263.105C167.141 263.429 167.393 263.771 167.672 264.104C167.951 264.437 168.239 264.778 168.571 264.823C168.904 264.868 169.237 264.554 169.471 264.158C169.668 263.721 169.831 263.27 169.957 262.808C170.241 261.821 170.431 260.808 170.524 259.785C170.689 257.792 170.74 255.792 170.677 253.793C170.644 252.143 170.716 250.494 170.893 248.853C171.028 247.745 171.278 246.653 171.64 245.596C171.769 245.214 171.937 244.846 172.143 244.499Z" fill="white"/>
<path d="M186.692 260.001L183.246 251.373C183.246 251.373 179.926 253.037 180.106 258.939C180.286 264.841 179.206 266.686 179.206 266.686C179.206 266.686 175.697 265.948 174.78 272.039C173.862 278.13 167.771 284.401 167.771 284.401L149.497 285.706C149.497 285.706 138.962 281.963 134.715 278.463C130.468 274.963 131.764 270.366 130.846 261.854C129.929 253.343 124.548 257.428 124.548 257.428C124.548 257.428 125.448 264.994 123.064 271.823C120.679 278.652 118.637 284.734 118.637 285.472L136.353 302.45C137.299 300.41 138.809 298.684 140.705 297.474C142.6 296.264 144.802 295.621 147.05 295.621C147.05 295.621 172.512 295.81 175.283 293.776C178.055 291.743 179.161 287.136 179.161 287.136C179.161 287.136 185.234 278.301 186.89 275.602C189.04 272.147 186.692 260.001 186.692 260.001Z" fill="#B5836D"/>
<path d="M178.288 267.199C178.288 267.199 178.342 267.136 178.477 267.046C178.69 266.939 178.923 266.878 179.161 266.866C179.601 266.866 180.034 266.97 180.425 267.17C180.816 267.371 181.154 267.661 181.41 268.017C182.07 269.13 182.315 270.44 182.103 271.715C181.986 273.11 181.833 274.63 181.653 276.214C181.367 278.942 180.895 281.647 180.241 284.311C179.98 285.337 179.719 286.156 179.521 286.714C179.435 287.009 179.314 287.293 179.161 287.559C179.089 287.559 179.476 286.291 179.917 284.23C180.476 281.554 180.899 278.852 181.186 276.133C181.356 274.54 181.527 273.02 181.671 271.634C181.89 270.453 181.702 269.232 181.141 268.17C180.92 267.839 180.628 267.561 180.285 267.358C179.942 267.156 179.558 267.034 179.161 267.001C178.863 267.029 178.57 267.095 178.288 267.199Z" fill="#7F594B"/>
<path d="M134.004 304.861C134.291 304.111 134.689 303.407 135.183 302.774C136.298 301.188 137.627 299.765 139.133 298.545C139.972 297.859 140.876 297.256 141.832 296.746C142.61 296.353 143.432 296.051 144.279 295.846C144.604 295.758 144.935 295.695 145.269 295.657C145.518 295.615 145.771 295.597 146.025 295.603C146.447 295.603 146.672 295.603 146.672 295.657C146.672 295.711 145.773 295.738 144.369 296.17C143.558 296.419 142.774 296.751 142.03 297.159C141.124 297.672 140.261 298.256 139.448 298.905C137.969 300.102 136.635 301.467 135.471 302.972C134.544 304.123 134.058 304.897 134.004 304.861Z" fill="#7F594B"/>
<path d="M208.06 153.942C209.701 154.655 211.149 155.747 212.286 157.128C213.423 158.509 214.216 160.14 214.601 161.887C216.05 167.951 213.485 172.071 210.588 174.789C207.889 177.344 195.293 189.391 185.45 190.543C175.607 191.694 169.435 192.639 162.957 187.915C157.19 183.705 157.712 174.852 162.957 170.218C168.203 165.584 180.34 158.522 186.521 155.049C192.702 151.576 202.437 149.992 208.06 153.942Z" fill="#FFBE8D"/>
<path d="M209.635 157.946C209.428 158.988 208.961 159.962 208.276 160.775C207.592 161.588 206.713 162.215 205.721 162.597C203.643 163.353 201.222 163.92 200.116 165.854C199.432 167.078 199.306 168.832 198.01 169.381C196.958 169.831 195.662 169.183 194.618 169.651C192.351 170.686 194.259 174.95 192.18 176.327C191.011 177.092 189.481 176.327 188.338 175.508C187.196 174.69 185.864 173.709 184.542 174.186C182.463 174.896 182.634 178.243 180.727 179.341C179.62 179.989 178.199 179.611 177.056 179.026C175.985 178.314 174.806 177.779 173.565 177.443C172.042 177.344 170.525 177.714 169.219 178.504C167.92 179.3 166.454 179.787 164.937 179.926C163.416 179.926 160.339 179.026 160.276 177.542C160.276 177.542 158.018 174.977 162.876 170.182C166.592 166.52 179.188 158.944 179.188 158.944C179.188 158.944 191.199 150.253 201.834 151.585C201.87 151.648 211.029 152.412 209.635 157.946Z" fill="#7E57C2"/>
<path d="M196.76 160.303C196.76 160.375 195.509 160.906 193.62 162.102C191.73 163.299 189.265 165.134 186.422 167.078C184.035 168.801 181.36 170.084 178.522 170.866C177.656 171.077 176.769 171.195 175.877 171.217C175.549 171.245 175.218 171.224 174.896 171.154C176.088 171.033 177.27 170.828 178.432 170.542C181.2 169.686 183.811 168.385 186.161 166.691C188.968 164.766 191.46 162.903 193.431 161.815C194.201 161.373 194.997 160.98 195.815 160.636C196.111 160.477 196.43 160.365 196.76 160.303Z" fill="#263238"/>
<g opacity="0.3">
<path opacity="0.3" d="M196.742 156.875C196.141 156.74 195.514 156.791 194.942 157.019C190.633 158.306 187.187 161.464 183.723 164.334C180.259 167.204 176.354 169.993 171.874 170.281C173.77 171.185 175.927 171.383 177.956 170.839C185.801 168.49 190.363 162.741 196.724 160.303C197.07 160.124 197.364 159.859 197.577 159.532C197.79 159.206 197.915 158.83 197.938 158.441C197.89 158.099 197.755 157.775 197.546 157.501C197.336 157.227 197.059 157.011 196.742 156.875Z" fill="black"/>
</g>
<path d="M165.215 178.882C164.787 179.097 164.296 179.154 163.83 179.044C163.252 178.973 162.697 178.773 162.206 178.46C161.715 178.147 161.301 177.728 160.993 177.233C160.685 176.739 160.491 176.182 160.427 175.604C160.362 175.025 160.427 174.439 160.618 173.889C160.915 173.043 161.347 172.674 161.374 172.71C161.401 172.746 161.131 173.187 160.942 173.979C160.808 174.484 160.778 175.011 160.856 175.528C160.933 176.045 161.116 176.54 161.393 176.984C161.669 177.427 162.034 177.81 162.464 178.107C162.894 178.404 163.38 178.61 163.893 178.711C164.649 178.9 165.206 178.801 165.215 178.882Z" fill="white"/>
<path d="M178.927 178.216C178.212 178.322 177.481 178.209 176.831 177.893C175.715 177.506 174.933 176.93 175.032 176.822C175.72 176.94 176.389 177.151 177.02 177.452C177.688 177.618 178.33 177.875 178.927 178.216Z" fill="white"/>
<path d="M184.236 169.228C183.795 169.632 183.286 169.955 182.733 170.182C181.447 170.815 180.087 171.283 178.684 171.576C177.276 171.862 175.837 171.971 174.402 171.9C173.808 171.907 173.218 171.812 172.656 171.621C174.642 171.602 176.624 171.434 178.585 171.118C180.514 170.633 182.403 170.002 184.236 169.228Z" fill="white"/>
<path d="M190.525 174.762C190.525 174.878 189.688 175.022 188.725 174.591C187.763 174.159 187.34 173.43 187.448 173.358C187.556 173.286 188.095 173.799 188.923 174.168C189.751 174.537 190.516 174.627 190.525 174.762Z" fill="white"/>
<path d="M197.488 167.618C197.488 167.753 197.147 167.87 196.706 167.888C196.265 167.906 195.914 167.807 195.905 167.681C195.896 167.555 196.256 167.429 196.688 167.411C197.12 167.393 197.479 167.492 197.488 167.618Z" fill="white"/>
<path d="M207.421 159.25C207.475 159.25 207.421 159.7 207.052 160.294C206.545 161.046 205.846 161.648 205.028 162.039C204.227 162.415 203.375 162.673 202.5 162.804C201.834 162.912 201.42 162.93 201.402 162.867C201.384 162.804 201.789 162.669 202.419 162.48C203.244 162.249 204.047 161.948 204.821 161.581C205.572 161.216 206.239 160.702 206.782 160.069C207.187 159.61 207.349 159.223 207.421 159.25Z" fill="white"/>
<g opacity="0.2">
<path opacity="0.2" d="M184.541 156.506C184.209 156.722 183.876 156.947 183.552 157.181L184.541 156.506Z" fill="white"/>
<path opacity="0.2" d="M204.686 153.069C203.704 152.424 202.55 152.089 201.375 152.107C195.44 151.754 189.545 153.294 184.542 156.506C183.863 156.91 183.273 157.445 182.805 158.081C182.577 158.41 182.48 158.812 182.532 159.209C182.583 159.607 182.78 159.97 183.084 160.231C183.804 160.735 184.784 160.375 185.567 159.988C188.158 158.674 190.615 157.037 193.368 156.11C196.121 155.184 199.351 155.067 201.771 156.677C202.545 157.199 203.328 157.91 204.254 157.811C204.767 157.689 205.218 157.386 205.524 156.958C205.83 156.529 205.97 156.005 205.919 155.48C205.894 155.015 205.771 154.559 205.559 154.144C205.346 153.728 205.049 153.362 204.686 153.069Z" fill="white"/>
</g>
<g opacity="0.2">
<path opacity="0.2" d="M179.764 173.655C179.598 173.565 179.413 173.516 179.224 173.511L172.071 172.692C169.858 172.431 167.573 172.188 165.431 172.854C164.891 172.912 164.386 173.152 164.001 173.534C163.615 173.917 163.37 174.42 163.308 174.959C163.329 175.45 163.541 175.913 163.9 176.25C164.258 176.586 164.733 176.769 165.225 176.759C166.104 176.55 166.91 176.105 167.555 175.472C169.054 174.399 170.917 173.962 172.737 174.258C174.789 174.591 176.759 175.85 178.801 175.454C179.233 175.401 179.629 175.185 179.908 174.851C179.98 174.765 180.034 174.664 180.066 174.556C180.098 174.448 180.108 174.334 180.094 174.222C180.081 174.11 180.045 174.002 179.988 173.904C179.931 173.807 179.855 173.722 179.764 173.655Z" fill="white"/>
</g>
<path d="M213.629 166.043C213.531 165.81 213.371 165.607 213.166 165.457C212.962 165.306 212.721 165.214 212.469 165.188C211.497 165.404 211.668 166.547 211.929 167.051C211.993 167.158 212.077 167.252 212.178 167.327C212.278 167.401 212.392 167.455 212.514 167.485C212.635 167.516 212.761 167.521 212.885 167.502C213.008 167.483 213.127 167.44 213.234 167.375C213.439 167.229 213.59 167.019 213.662 166.777C213.733 166.536 213.722 166.277 213.629 166.043Z" fill="#EB996E"/>
<path d="M201.123 176.534C201.068 176.4 200.976 176.283 200.859 176.198C200.741 176.112 200.602 176.06 200.458 176.048C199.9 176.165 199.999 176.822 200.143 177.119C200.18 177.18 200.23 177.234 200.288 177.276C200.347 177.318 200.413 177.349 200.483 177.365C200.553 177.382 200.626 177.385 200.697 177.373C200.769 177.362 200.837 177.337 200.898 177.299C201.017 177.216 201.104 177.095 201.145 176.956C201.186 176.817 201.178 176.668 201.123 176.534Z" fill="#EB996E"/>
<path d="M209.419 165.224C209.354 165.095 209.258 164.984 209.141 164.899C209.023 164.814 208.887 164.759 208.744 164.739C208.186 164.865 208.285 165.521 208.438 165.809C208.474 165.871 208.522 165.925 208.58 165.968C208.637 166.012 208.702 166.043 208.772 166.06C208.841 166.078 208.914 166.082 208.985 166.071C209.056 166.06 209.124 166.036 209.185 165.998C209.302 165.912 209.388 165.79 209.43 165.65C209.473 165.511 209.469 165.361 209.419 165.224Z" fill="#EB996E"/>
<path d="M191.064 231.588C191.064 231.588 218.443 321.965 220.143 327.093C221.844 332.221 232.739 362.488 255.511 355.569C281.234 347.769 262.016 295.963 262.016 295.963L251.22 256.726L233.927 262.376L219.981 219.253L191.064 231.588Z" fill="#B5836D"/>
<path d="M161.949 188.203C161.949 188.203 165.728 207.781 167.906 210.741C170.083 213.701 181.941 225.578 181.941 225.578L194.798 234.08L220.107 219.639L215.564 199.477L209.914 175.643L203.4 180.682L204.092 188.005C204.092 188.005 194.582 172.179 191.028 175.643C187.475 179.107 193.809 186.224 195.788 192.153C197.767 198.082 196.184 201.249 196.184 201.249C196.184 201.249 194.6 201.645 192.423 197.893C190.848 195.194 185.027 182.787 180.052 178.495C179.619 178.112 179.081 177.866 178.507 177.789C177.934 177.712 177.35 177.807 176.831 178.063C176.312 178.319 175.881 178.723 175.592 179.225C175.304 179.726 175.171 180.302 175.211 180.88L175.418 183.849L183.129 203.229L185.9 207.961L178.504 202.437C178.504 202.437 175.148 192.414 171.639 186.845C170.954 185.736 169.86 184.942 168.594 184.634C167.328 184.325 165.991 184.528 164.874 185.198L166.52 191.757C166.52 191.757 166.52 188.005 161.949 188.203Z" fill="#B5836D"/>
<path d="M181.905 218.479C181.487 218.321 181.09 218.109 180.727 217.849C179.998 217.399 178.981 216.679 177.758 215.753C176.534 214.826 175.058 213.728 173.448 212.523C172.587 211.846 171.882 210.994 171.379 210.021C171.115 209.508 170.907 208.968 170.758 208.411L170.299 206.746C169.093 202.248 168.221 198.073 167.456 195.113C167.078 193.629 166.754 192.414 166.556 191.613C166.407 191.193 166.299 190.759 166.232 190.318C166.433 190.716 166.599 191.132 166.727 191.559C167.015 192.369 167.393 193.548 167.816 195.023C168.661 197.974 169.615 202.113 170.785 206.621C171.028 207.717 171.378 208.786 171.828 209.815C172.295 210.734 172.951 211.544 173.754 212.19C175.364 213.386 176.804 214.547 177.992 215.492C179.179 216.436 180.169 217.201 180.862 217.696C181.554 218.191 181.923 218.452 181.905 218.479Z" fill="#7F594B"/>
<path d="M193.251 213.009C193.251 213.063 192.819 213.153 192.108 213.099C191.165 213.022 190.247 212.756 189.409 212.316C188.579 211.885 187.842 211.295 187.241 210.579C186.791 210.022 186.62 209.608 186.665 209.581C188.352 211.495 190.689 212.716 193.224 213.009H193.251Z" fill="#7F594B"/>
<path d="M205.136 202.437C203.152 202.212 201.215 201.678 199.396 200.853C200.396 200.897 201.384 201.088 202.329 201.42C203.311 201.613 204.258 201.956 205.136 202.437Z" fill="#7F594B"/>
<path d="M209.806 201.645C209.333 201.089 208.953 200.46 208.681 199.783C207.94 198.197 207.294 196.569 206.747 194.906C206.081 192.972 205.478 191.226 204.947 190.003C204.633 189.353 204.357 188.686 204.119 188.005C204.594 188.562 204.976 189.191 205.253 189.868C205.991 191.454 206.634 193.082 207.178 194.744C207.844 196.679 208.456 198.424 208.978 199.648C209.292 200.297 209.568 200.964 209.806 201.645Z" fill="#7F594B"/>
<path d="M263.501 335.19C263.493 335.122 263.493 335.052 263.501 334.984C263.501 334.822 263.6 334.633 263.663 334.39C263.78 333.868 264.059 333.121 264.221 332.113C264.802 329.294 264.881 326.395 264.455 323.548C263.996 319.949 262.565 315.792 260.793 311.312C259.893 309.063 258.993 306.705 258.04 304.231C257.608 302.98 257.14 301.748 256.618 300.497C256.096 299.247 255.466 298.032 254.765 296.835C252.098 292.327 249.204 287.958 246.091 283.745C243.284 279.804 240.792 276.223 238.894 273.083C237.364 270.623 236.034 268.045 234.917 265.372C234.512 264.473 234.323 263.654 234.134 263.15C234.062 262.916 234.008 262.718 233.954 262.565C233.929 262.499 233.914 262.429 233.909 262.358C233.951 262.415 233.982 262.479 233.999 262.547L234.224 263.114C234.44 263.618 234.656 264.383 235.124 265.3C236.298 267.934 237.663 270.477 239.209 272.912C241.134 276.016 243.644 279.57 246.469 283.493C247.873 285.463 249.357 287.523 250.851 289.701C252.344 291.878 253.847 294.145 255.197 296.601C255.907 297.816 256.492 299.076 257.068 300.308C257.644 301.541 258.076 302.837 258.499 304.078C259.398 306.543 260.343 308.901 261.198 311.15C262.952 315.649 264.365 319.832 264.797 323.503C265.197 326.385 265.065 329.315 264.41 332.149C264.24 332.918 264.023 333.675 263.762 334.417L263.564 335.002C263.551 335.067 263.529 335.13 263.501 335.19Z" fill="#7F594B"/>
<path d="M181.977 225.578C181.977 225.578 181.779 225.407 181.42 225.047L179.809 223.463C178.406 222.06 176.327 219.981 173.7 217.255C172.386 215.897 170.938 214.376 169.39 212.667C168.531 211.812 167.814 210.825 167.267 209.743C166.762 208.54 166.33 207.308 165.971 206.054C164.478 200.871 163.155 194.888 161.815 188.23V188.041H162.022C163.114 187.951 164.207 188.209 165.144 188.779C165.625 189.121 166.023 189.569 166.305 190.089C166.587 190.608 166.747 191.185 166.772 191.775H166.412C165.899 189.742 165.333 187.511 164.757 185.216V185.072L164.883 185C165.291 184.728 165.729 184.501 166.187 184.326C166.667 184.155 167.172 184.066 167.681 184.065C168.727 184.047 169.746 184.39 170.569 185.036C170.974 185.37 171.32 185.768 171.595 186.215C171.874 186.647 172.161 187.115 172.413 187.529C172.935 188.428 173.421 189.328 173.889 190.273C175.776 194.193 177.423 198.226 178.819 202.347L178.738 202.239L186.143 207.754L185.81 208.042L183.039 203.319C181.024 198.271 178.936 193.026 176.795 187.645C176.198 186.301 175.74 184.899 175.427 183.462C175.28 182.731 175.178 181.992 175.122 181.248C175.038 180.449 175.256 179.646 175.733 178.999C176.216 178.353 176.916 177.903 177.704 177.731C178.5 177.561 179.33 177.703 180.025 178.126C180.196 178.234 180.349 178.369 180.511 178.486L180.916 178.882C181.186 179.152 181.465 179.413 181.707 179.701C182.22 180.268 182.697 180.853 183.165 181.5C185.575 184.82 187.735 188.314 189.625 191.955L192.432 197.263C192.88 198.127 193.417 198.941 194.034 199.693C194.338 200.055 194.685 200.378 195.068 200.655C195.406 200.919 195.819 201.07 196.247 201.087L196.094 201.204C196.742 199.245 196.853 197.148 196.418 195.131C196.045 193.126 195.388 191.183 194.466 189.364C193.566 187.565 192.567 185.765 191.676 183.966C191.223 183.09 190.82 182.189 190.471 181.266C190.101 180.328 189.9 179.332 189.877 178.324C189.865 177.811 189.959 177.302 190.152 176.826C190.346 176.351 190.635 175.921 191.002 175.562C191.195 175.376 191.426 175.231 191.678 175.138C191.931 175.046 192.2 175.006 192.468 175.022C192.974 175.057 193.466 175.205 193.908 175.454C195.522 176.461 196.952 177.736 198.136 179.224C200.435 181.977 202.523 184.901 204.38 187.969L204.012 188.095C203.778 185.576 203.544 183.138 203.328 180.772V180.673L203.409 180.61L209.932 175.571L210.148 175.409L210.211 175.67C213.387 189.22 216.023 200.197 217.66 207.844C218.497 211.65 219.145 214.61 219.595 216.634C219.811 217.633 219.973 218.434 220.09 218.929C220.206 219.424 220.233 219.711 220.233 219.711C220.233 219.711 220.161 219.451 220.036 218.938C219.91 218.425 219.73 217.651 219.496 216.661C219.028 214.637 218.344 211.686 217.471 207.889C215.771 200.26 213.09 189.292 209.869 175.751L210.148 175.85L203.634 180.907L203.706 180.745C203.94 183.102 204.176 185.54 204.416 188.059L204.497 188.896L204.048 188.176C202.197 185.129 200.119 182.227 197.83 179.494C196.675 178.051 195.285 176.813 193.719 175.832C193.371 175.571 192.948 175.43 192.513 175.43C192.078 175.43 191.655 175.571 191.308 175.832C190.984 176.154 190.729 176.539 190.559 176.963C190.389 177.387 190.307 177.841 190.318 178.297C190.347 179.253 190.542 180.197 190.894 181.087C191.237 182.009 191.633 182.91 192.081 183.786C192.981 185.585 193.98 187.313 194.879 189.184C195.825 191.042 196.498 193.027 196.877 195.077C197.337 197.188 197.212 199.384 196.517 201.429V201.537H196.409C195.85 201.57 195.298 201.394 194.861 201.042C194.446 200.745 194.07 200.394 193.746 199.999C193.099 199.228 192.538 198.389 192.072 197.497L189.13 192.135C187.251 188.521 185.107 185.05 182.715 181.752C181.846 180.56 180.833 179.478 179.701 178.531C179.105 178.179 178.398 178.061 177.72 178.201C177.041 178.34 176.439 178.728 176.03 179.287C175.131 180.403 175.589 181.986 175.805 183.372C176.107 184.785 176.557 186.164 177.146 187.484C179.278 192.882 181.366 198.109 183.372 203.166L186.134 207.898L186.692 208.852L185.792 208.195L178.406 202.671H178.352V202.608C176.97 198.505 175.338 194.491 173.466 190.588C173.007 189.688 172.521 188.734 172.009 187.888C171.56 187.007 170.971 186.204 170.263 185.513C169.708 185.074 169.049 184.783 168.351 184.668C167.652 184.553 166.935 184.618 166.268 184.856C165.831 185.02 165.414 185.235 165.027 185.495L165.117 185.279C165.683 187.574 166.241 189.778 166.754 191.847L166.385 191.901C166.361 191.371 166.218 190.852 165.965 190.385C165.713 189.917 165.358 189.513 164.928 189.202C164.052 188.673 163.032 188.434 162.013 188.518L162.175 188.311C163.488 194.96 164.784 200.907 166.259 206.117C166.604 207.362 167.025 208.585 167.519 209.779C168.048 210.841 168.747 211.811 169.588 212.649C171.118 214.367 172.557 215.897 173.862 217.273L179.899 223.571L181.474 225.191C181.806 225.425 181.977 225.578 181.977 225.578Z" fill="#7F594B"/>
<path d="M195.959 152.925C195.281 152.589 194.675 152.121 194.178 151.55C193.681 150.979 193.302 150.315 193.062 149.596L192.351 145.305L191.955 149.803C191.522 151.291 190.562 152.57 189.256 153.402C189.957 153.75 190.578 154.237 191.083 154.834C191.587 155.432 191.964 156.126 192.189 156.875L192.657 160.375L193.368 156.686C193.738 155.224 194.669 153.967 195.959 153.186L196.148 153.078L195.959 152.925Z" fill="white"/>
<path d="M202.707 392.988L201.483 357.62L333.355 357.27V392.521L202.707 392.988Z" fill="#7E57C2"/>
<path d="M256.78 357.621L227.269 289.953H300.371L333.355 357.27L256.78 357.621Z" fill="#7E57C2"/>
<path d="M227.269 289.953L217.336 305.518L238.201 353.455L256.78 357.621L227.269 289.953Z" fill="#7E57C2"/>
<path d="M333.355 357.27H332.959H331.826L327.444 357.333L311.33 357.477L258.166 357.791H256.627L256.564 357.648L235.726 309.782C233.099 303.673 230.967 298.734 229.482 295.288L227.809 291.338C227.629 290.906 227.494 290.564 227.386 290.313C227.334 290.196 227.292 290.076 227.26 289.953C227.26 289.953 227.323 290.061 227.431 290.295L227.899 291.302C228.304 292.202 228.898 293.534 229.653 295.216L236.032 309.656C241.386 321.893 248.79 338.789 256.987 357.522L256.771 357.387H258.148L311.321 357.207H327.435H331.817H332.95C333.087 357.215 333.222 357.236 333.355 357.27Z" fill="#263238"/>
<path d="M256.78 393.051C256.654 393.051 256.546 385.116 256.546 375.336C256.546 365.556 256.654 357.62 256.78 357.62C256.906 357.62 257.014 365.547 257.014 375.336C257.014 385.125 256.915 393.051 256.78 393.051Z" fill="#263238"/>
<path d="M297.096 325.914C297.159 324.783 297.092 323.648 296.898 322.531C296.639 321.228 296.149 319.982 295.45 318.852C294.529 317.351 293.336 316.036 291.932 314.974C288.22 312.226 283.578 311.044 279.003 311.681C277.698 311.864 276.418 312.196 275.188 312.67C273.92 313.191 272.726 313.874 271.634 314.704C270.471 315.555 269.492 316.633 268.756 317.872C268.02 319.111 267.541 320.486 267.35 321.914C267.158 323.343 267.257 324.795 267.641 326.185C268.025 327.574 268.685 328.871 269.583 329.999C270.413 331.091 271.384 332.069 272.471 332.905C274.85 334.657 277.634 335.778 280.564 336.163C283.493 336.549 286.472 336.186 289.224 335.109C290.856 334.453 292.354 333.501 293.641 332.302C294.612 331.395 295.413 330.323 296.008 329.135C296.491 328.106 296.857 327.026 297.096 325.914C297.107 325.989 297.107 326.065 297.096 326.139C297.096 326.319 297.033 326.535 296.988 326.796C296.935 327.151 296.847 327.501 296.728 327.84C296.656 328.047 296.602 328.272 296.512 328.497L296.188 329.216C295.61 330.441 294.814 331.551 293.839 332.491C292.539 333.743 291.012 334.735 289.341 335.415C284.952 337.163 280.05 337.108 275.701 335.262C274.458 334.731 273.281 334.057 272.192 333.256C271.066 332.4 270.061 331.395 269.205 330.269C268.268 329.096 267.579 327.745 267.178 326.298C266.778 324.85 266.675 323.337 266.875 321.849C267.075 320.361 267.574 318.929 268.343 317.639C269.111 316.349 270.133 315.228 271.346 314.344C272.471 313.486 273.705 312.784 275.017 312.257C277.84 311.178 280.892 310.837 283.883 311.267C286.875 311.697 289.707 312.883 292.112 314.713C293.532 315.813 294.731 317.172 295.648 318.717C296.338 319.882 296.814 321.162 297.051 322.495C297.15 322.978 297.201 323.469 297.204 323.962C297.237 324.321 297.237 324.682 297.204 325.042L297.132 325.698C297.123 325.842 297.105 325.923 297.096 325.914Z" fill="white"/>
<path d="M297.096 325.914C297.096 325.914 296.943 325.86 296.664 325.869C296.459 325.89 296.26 325.954 296.08 326.056C295.9 326.158 295.744 326.297 295.621 326.463C295.188 326.981 294.806 327.538 294.478 328.128C294.044 328.936 293.482 329.668 292.814 330.296C292.427 330.667 292.002 330.996 291.545 331.277C291.033 331.602 290.442 331.782 289.836 331.799C289.505 331.792 289.18 331.717 288.88 331.579C288.579 331.442 288.311 331.244 288.09 330.998C287.708 330.505 287.245 330.079 286.723 329.738C286.156 329.488 285.521 329.44 284.923 329.603C284.273 329.789 283.662 330.094 283.124 330.503C282.539 330.899 281.963 331.358 281.324 331.754C280.662 332.196 279.896 332.459 279.102 332.518C278.69 332.563 278.273 332.509 277.885 332.362C277.497 332.215 277.15 331.979 276.871 331.673C276.405 331.036 276.156 330.266 276.16 329.477C276.158 328.786 276.074 328.097 275.908 327.426C275.846 327.128 275.711 326.851 275.517 326.617C275.322 326.383 275.074 326.201 274.792 326.085C274.206 325.968 273.597 326.081 273.092 326.4C272.546 326.713 271.963 326.955 271.355 327.12C270.741 327.234 270.107 327.135 269.556 326.841C269.073 326.577 268.65 326.215 268.314 325.779C267.747 325.03 267.432 324.119 267.415 323.179C267.39 322.488 267.451 321.796 267.595 321.119C267.711 320.57 267.819 320.147 267.9 319.859C267.932 319.712 267.984 319.57 268.053 319.436C268.053 319.436 267.954 320.048 267.774 321.155C267.668 321.818 267.635 322.491 267.676 323.161C267.715 324.04 268.029 324.883 268.575 325.572C268.875 325.996 269.285 326.329 269.761 326.535C270.237 326.741 270.761 326.813 271.274 326.742C271.841 326.573 272.385 326.334 272.894 326.031C273.492 325.651 274.216 325.522 274.909 325.671C275.259 325.806 275.572 326.024 275.819 326.306C276.067 326.588 276.242 326.926 276.331 327.291C276.507 327.994 276.601 328.716 276.61 329.441C276.605 330.13 276.816 330.803 277.213 331.367C277.446 331.619 277.735 331.812 278.057 331.931C278.379 332.05 278.725 332.091 279.066 332.05C280.541 331.988 281.675 330.917 282.881 330.116C283.483 329.697 284.157 329.392 284.869 329.216C285.58 329.025 286.335 329.092 287.001 329.405C287.561 329.772 288.056 330.228 288.468 330.755C288.648 330.968 288.871 331.142 289.122 331.264C289.373 331.386 289.647 331.455 289.926 331.466C290.971 331.348 291.942 330.867 292.67 330.107C293.329 329.508 293.891 328.81 294.334 328.038C294.693 327.449 295.106 326.895 295.567 326.382C295.714 326.213 295.895 326.075 296.097 325.979C296.3 325.883 296.521 325.831 296.745 325.824C296.862 325.829 296.975 325.86 297.078 325.914C297.069 325.887 297.105 325.914 297.096 325.914Z" fill="white"/>
<path d="M290.223 320.795C289.641 321.159 288.993 321.4 288.315 321.506C286.694 321.858 285.015 321.858 283.394 321.506C281.761 321.149 280.225 320.44 278.895 319.427C278.33 319.037 277.844 318.542 277.465 317.97C277.528 317.916 278.067 318.465 279.084 319.157C280.414 320.05 281.896 320.69 283.457 321.047C285.019 321.398 286.634 321.453 288.216 321.209C289.467 321.011 290.196 320.741 290.223 320.795Z" fill="white"/>
<path d="M257.977 315.451L258.714 314.128C258.809 313.916 258.947 313.727 259.119 313.572C259.291 313.416 259.493 313.298 259.713 313.225C259.933 313.152 260.166 313.125 260.397 313.147C260.628 313.168 260.851 313.237 261.054 313.35C261.257 313.463 261.434 313.616 261.574 313.801C261.714 313.985 261.814 314.197 261.868 314.422C261.923 314.648 261.929 314.882 261.888 315.11C261.847 315.338 261.759 315.555 261.629 315.748L260.892 317.079L257.977 315.451ZM261.054 315.451C261.133 315.332 261.188 315.198 261.213 315.057C261.239 314.917 261.235 314.772 261.202 314.633C261.169 314.494 261.107 314.363 261.021 314.249C260.935 314.135 260.826 314.04 260.701 313.97C260.576 313.9 260.438 313.857 260.296 313.843C260.153 313.829 260.01 313.845 259.874 313.889C259.738 313.934 259.613 314.006 259.506 314.101C259.399 314.196 259.314 314.313 259.254 314.443L258.912 315.064L260.712 316.062L261.054 315.451Z" fill="white"/>
<path d="M263.978 311.438L264.454 311.834L262.799 313.831L260.226 311.699L261.836 309.746L262.313 310.151L261.198 311.501L261.755 311.96L262.745 310.772L263.204 311.15L262.214 312.347L262.817 312.841L263.978 311.438Z" fill="white"/>
<path d="M262.601 309L263.177 308.496L264.976 310.538L266.236 309.431L266.65 309.908L264.805 311.519L262.601 309Z" fill="white"/>
<path d="M265.039 307.002L265.678 306.561L267.577 309.315L266.938 309.755L265.039 307.002Z" fill="white"/>
<path d="M267.217 307.515C267.108 307.308 267.043 307.081 267.025 306.848C267.008 306.614 267.038 306.38 267.115 306.159C267.192 305.938 267.313 305.735 267.471 305.563C267.63 305.391 267.822 305.253 268.035 305.158C268.258 305.027 268.508 304.95 268.765 304.931C269.023 304.912 269.281 304.953 269.52 305.05L269.295 305.68C269.154 305.615 269.001 305.582 268.845 305.582C268.69 305.582 268.537 305.615 268.395 305.68C268.261 305.738 268.14 305.824 268.04 305.931C267.94 306.038 267.864 306.165 267.815 306.303C267.766 306.441 267.745 306.587 267.755 306.734C267.765 306.88 267.805 307.022 267.872 307.152C267.94 307.283 268.033 307.398 268.146 307.49C268.26 307.583 268.391 307.651 268.532 307.691C268.673 307.731 268.821 307.742 268.966 307.722C269.111 307.703 269.251 307.654 269.376 307.578C269.52 307.505 269.645 307.401 269.743 307.273C269.841 307.146 269.909 306.998 269.943 306.84L270.591 307.02C270.512 307.38 270.324 307.707 270.054 307.957C269.783 308.207 269.442 308.368 269.077 308.418C268.712 308.468 268.341 308.405 268.013 308.237C267.685 308.069 267.417 307.805 267.244 307.479L267.217 307.515Z" fill="white"/>
<path d="M270.006 304.303L270.726 304.024L271.913 307.146L271.193 307.425L270.006 304.303Z" fill="white"/>
<path d="M271.931 305.311C271.828 304.968 271.829 304.603 271.935 304.261C272.04 303.92 272.245 303.617 272.523 303.392C272.801 303.167 273.14 303.031 273.496 302.999C273.852 302.968 274.209 303.043 274.523 303.215C274.836 303.388 275.09 303.65 275.254 303.968C275.418 304.286 275.483 304.645 275.441 305C275.4 305.356 275.254 305.69 275.021 305.962C274.788 306.234 274.48 306.43 274.136 306.525C273.911 306.596 273.675 306.621 273.44 306.598C273.206 306.575 272.979 306.505 272.773 306.391C272.567 306.277 272.386 306.123 272.241 305.937C272.096 305.752 271.991 305.538 271.931 305.311ZM274.72 304.591C274.665 304.393 274.552 304.217 274.396 304.083C274.24 303.95 274.048 303.865 273.845 303.839C273.641 303.814 273.434 303.849 273.251 303.941C273.067 304.032 272.914 304.176 272.812 304.354C272.709 304.532 272.662 304.736 272.675 304.941C272.687 305.146 272.76 305.342 272.884 305.506C273.008 305.669 273.178 305.793 273.372 305.86C273.565 305.928 273.775 305.937 273.974 305.887C274.11 305.856 274.238 305.797 274.35 305.714C274.463 305.631 274.557 305.526 274.627 305.406C274.697 305.285 274.741 305.151 274.757 305.013C274.774 304.874 274.761 304.733 274.72 304.6V304.591Z" fill="white"/>
<path d="M276.16 304.501L275.935 302.648L276.7 302.558L276.916 304.357C276.997 304.987 277.303 305.257 277.761 305.158C278.22 305.059 278.472 304.816 278.4 304.186L278.184 302.387L278.94 302.288L279.156 304.15C279.194 304.354 279.189 304.563 279.142 304.764C279.096 304.966 279.008 305.155 278.886 305.322C278.763 305.488 278.607 305.628 278.428 305.732C278.249 305.835 278.051 305.901 277.845 305.925C277.64 305.949 277.432 305.931 277.234 305.871C277.036 305.812 276.852 305.712 276.694 305.579C276.536 305.445 276.407 305.281 276.315 305.095C276.223 304.91 276.171 304.708 276.16 304.501Z" fill="white"/>
<path d="M279.723 305.248L279.984 304.663C280.308 304.882 280.69 304.998 281.081 304.996C281.54 304.996 281.729 304.834 281.72 304.636C281.72 304.006 279.786 304.465 279.768 303.223C279.768 302.657 280.209 302.18 281.162 302.171C281.567 302.157 281.969 302.253 282.323 302.45L282.089 303.034C281.815 302.878 281.506 302.791 281.189 302.783C280.731 302.783 280.56 302.962 280.56 303.178C280.56 303.79 282.503 303.34 282.521 304.564C282.521 305.122 282.062 305.608 281.117 305.617C280.626 305.642 280.138 305.513 279.723 305.248Z" fill="white"/>
<path d="M284.806 302.369L286.3 302.648C286.528 302.673 286.748 302.746 286.947 302.86C287.146 302.974 287.32 303.129 287.456 303.313C287.593 303.497 287.691 303.708 287.743 303.931C287.795 304.155 287.8 304.387 287.759 304.613C287.717 304.839 287.63 305.053 287.502 305.244C287.374 305.435 287.208 305.597 287.015 305.72C286.821 305.844 286.604 305.927 286.378 305.963C286.151 305.999 285.919 305.989 285.697 305.932L284.203 305.662L284.806 302.369ZM285.769 305.302C285.909 305.342 286.056 305.353 286.2 305.334C286.345 305.314 286.484 305.264 286.608 305.188C286.732 305.111 286.838 305.009 286.921 304.889C287.003 304.769 287.059 304.633 287.086 304.489C287.113 304.346 287.109 304.199 287.075 304.057C287.041 303.915 286.978 303.782 286.889 303.666C286.801 303.55 286.689 303.454 286.561 303.384C286.433 303.314 286.292 303.272 286.147 303.259L285.454 303.133L285.076 305.176L285.769 305.302Z" fill="white"/>
<path d="M288.324 304.762C288.441 304.424 288.656 304.129 288.941 303.913C289.226 303.698 289.569 303.572 289.926 303.553C290.283 303.533 290.637 303.62 290.945 303.803C291.252 303.985 291.498 304.255 291.651 304.578C291.804 304.901 291.858 305.263 291.805 305.616C291.752 305.969 291.595 306.299 291.354 306.563C291.113 306.827 290.798 307.013 290.451 307.098C290.104 307.182 289.739 307.162 289.404 307.038C289.179 306.966 288.971 306.849 288.794 306.693C288.616 306.537 288.472 306.347 288.371 306.134C288.27 305.921 288.214 305.689 288.206 305.453C288.198 305.217 288.238 304.982 288.324 304.762ZM291.023 305.806C291.092 305.613 291.102 305.404 291.053 305.205C291.004 305.006 290.897 304.826 290.746 304.688C290.595 304.549 290.407 304.458 290.205 304.426C290.002 304.393 289.795 304.421 289.609 304.506C289.422 304.59 289.265 304.728 289.156 304.902C289.047 305.075 288.992 305.277 288.997 305.482C289.002 305.687 289.067 305.885 289.184 306.053C289.301 306.221 289.465 306.351 289.656 306.426C289.785 306.478 289.923 306.502 290.062 306.499C290.201 306.495 290.337 306.463 290.464 306.405C290.59 306.347 290.703 306.264 290.796 306.161C290.889 306.058 290.96 305.937 291.005 305.806H291.023Z" fill="white"/>
<path d="M295.864 306.687L294.064 309.504L293.534 309.162L293.21 306.561L292.13 308.271L291.482 307.866L293.282 305.05L293.821 305.392L294.136 307.983L295.216 306.274L295.864 306.687Z" fill="white"/>
<path d="M295.558 308.811L296.835 307.443L297.402 307.965L296.143 309.315C295.711 309.782 295.738 310.16 296.08 310.475C296.422 310.79 296.799 310.79 297.231 310.331L298.491 308.982L299.049 309.503L297.807 310.898C297.672 311.043 297.509 311.161 297.329 311.243C297.148 311.326 296.953 311.372 296.755 311.379C296.556 311.386 296.358 311.354 296.172 311.284C295.986 311.215 295.816 311.11 295.67 310.975C295.525 310.839 295.408 310.677 295.325 310.496C295.243 310.315 295.197 310.12 295.189 309.922C295.182 309.724 295.214 309.526 295.284 309.34C295.353 309.154 295.458 308.983 295.594 308.838L295.558 308.811Z" fill="white"/>
<path d="M299.688 311.24L299.022 310.403L299.508 310.016L301.307 312.284L300.812 312.671L300.146 311.843L298.032 313.534L297.555 312.931L299.688 311.24Z" fill="white"/>
<path d="M298.995 314.209L299.634 314.119C299.613 314.513 299.71 314.905 299.913 315.244C300.155 315.631 300.38 315.703 300.56 315.595C301.091 315.271 299.706 313.849 300.758 313.192C301.235 312.895 301.883 313.03 302.378 313.84C302.599 314.181 302.724 314.576 302.738 314.983L302.117 315.091C302.105 314.773 302.012 314.463 301.847 314.191C301.613 313.804 301.37 313.741 301.19 313.849C300.668 314.173 302.09 315.604 301.01 316.251C300.542 316.539 299.895 316.395 299.391 315.586C299.121 315.178 298.983 314.697 298.995 314.209Z" fill="white"/>
<path d="M303.331 325.294C303.261 325.348 303.182 325.39 303.097 325.42L302.333 325.761V325.698C302.321 326.892 302.164 328.079 301.865 329.234C301.38 331.116 300.567 332.898 299.463 334.498C298.049 336.594 296.21 338.369 294.064 339.707C291.552 341.239 288.731 342.194 285.805 342.505C282.33 342.891 278.812 342.492 275.512 341.336C272.832 340.382 270.316 339.019 268.053 337.296C266.533 336.143 265.123 334.851 263.843 333.436C263.393 332.932 263.051 332.536 262.835 332.248C262.716 332.112 262.611 331.964 262.52 331.808C262.52 331.808 263.033 332.347 263.969 333.31C265.293 334.663 266.725 335.906 268.251 337.026C270.507 338.689 273 340.002 275.647 340.922C278.89 342.04 282.342 342.421 285.751 342.037C288.614 341.737 291.378 340.816 293.848 339.338C295.958 338.048 297.775 336.332 299.184 334.3C300.287 332.742 301.117 331.008 301.64 329.171C301.953 328.039 302.152 326.879 302.234 325.707V325.662L303.017 325.384C303.113 325.33 303.221 325.299 303.331 325.294Z" fill="white"/>
<path d="M202.707 381.886C202.599 381.814 206.243 376.326 210.849 369.623C215.456 362.92 219.262 357.539 219.37 357.62C219.478 357.701 215.834 363.181 211.227 369.884C206.621 376.586 202.815 381.976 202.707 381.886Z" fill="white"/>
<path d="M210.309 392.961C210.201 392.88 215.762 384.954 222.735 375.255C229.707 365.556 235.439 357.746 235.538 357.827C235.637 357.908 230.085 365.826 223.112 375.525C216.14 385.224 210.408 393.033 210.309 392.961Z" fill="white"/>
<path d="M251.364 357.62C251.463 357.692 246.172 365.664 239.541 375.417C232.91 385.17 227.44 393.033 227.332 392.961C227.224 392.889 232.515 384.918 239.154 375.156C245.794 365.394 251.256 357.54 251.364 357.62Z" fill="white"/>
<path d="M270.816 357.827C270.755 357.963 270.676 358.09 270.582 358.205L269.844 359.231L267.091 362.974C264.778 366.132 261.647 370.558 258.22 375.462C254.792 380.365 251.616 384.765 249.222 387.887C248.035 389.444 247.054 390.694 246.352 391.54C246.028 391.927 245.767 392.251 245.542 392.512C245.318 392.772 245.255 392.844 245.237 392.835C245.299 392.701 245.378 392.574 245.47 392.458L246.208 391.432C246.901 390.487 247.828 389.219 248.961 387.689C251.274 384.522 254.405 380.095 257.833 375.192C261.261 370.288 264.437 365.889 266.83 362.776C268.026 361.21 269.007 359.96 269.7 359.114L270.51 358.142C270.598 358.025 270.701 357.919 270.816 357.827Z" fill="white"/>
<path d="M292.796 357.593C292.731 357.724 292.653 357.848 292.562 357.962L291.833 358.988C291.194 359.888 290.277 361.147 289.134 362.731C286.885 365.907 283.933 370.396 280.73 375.408C277.527 380.419 274.531 384.891 272.21 388.004C271.05 389.57 270.087 390.82 269.394 391.666L268.593 392.638C268.509 392.755 268.409 392.861 268.296 392.952C268.296 392.952 268.359 392.817 268.521 392.575L269.25 391.558C269.898 390.658 270.816 389.399 271.949 387.815C274.199 384.639 277.15 380.14 280.344 375.138C283.538 370.136 286.552 365.655 288.873 362.542C290.034 360.976 290.987 359.717 291.68 358.88L292.481 357.908C292.679 357.683 292.778 357.584 292.796 357.593Z" fill="white"/>
<path d="M315.801 358.061C315.801 358.061 315.739 358.196 315.577 358.43L314.857 359.447C314.218 360.347 313.309 361.579 312.158 363.154C309.935 366.303 307.011 370.747 303.844 375.75C300.677 380.752 297.699 385.143 295.396 388.247C294.244 389.794 293.3 391.036 292.616 391.846L291.824 392.8C291.635 393.015 291.536 393.123 291.518 393.114C291.577 392.982 291.652 392.858 291.743 392.746L292.463 391.729C293.111 390.829 294.019 389.597 295.162 388.022C297.393 384.873 300.317 380.428 303.484 375.426C306.651 370.424 309.629 366.033 311.924 362.938C313.075 361.381 314.029 360.14 314.713 359.339L315.505 358.376C315.589 358.258 315.689 358.152 315.801 358.061Z" fill="white"/>
<path d="M333.355 360.482C333.454 360.554 328.532 367.859 322.351 376.794C316.17 385.728 311.069 392.908 310.97 392.836C310.871 392.764 315.783 385.458 321.965 376.524C328.146 367.589 333.247 360.383 333.355 360.482Z" fill="white"/>
<g opacity="0.3">
<path opacity="0.3" d="M256.78 357.62V393.051L333.355 392.521V357.27L256.78 357.62Z" fill="black"/>
</g>
</svg>
