<svg width="24" height="26" viewBox="0 0 24 26" fill="none" xmlns="http://www.w3.org/2000/svg">
<g clip-path="url(#clip0)">
<path d="M3.59996 0.576965L2.59998 23.7334H5.99996L5.39996 0.576965H3.59996Z" fill="#FFD15C"/>
<path d="M7.34998 0.576965L20.15 1.67716L21.4 20.0137L8.69998 25.7242L7.34998 0.576965Z" fill="#FFD15C"/>
<path d="M16.8 14.6699C16.8 14.6699 18.55 11.7884 17.65 9.58802C17.2999 8.80217 16.5499 8.54023 15.85 9.01174C15.3 9.37849 15 10.1119 15.1 10.8454C14.65 10.3739 13.9999 10.3215 13.3999 10.7406C12.6 11.2645 12.3 12.4171 12.7 13.3077C13.8 15.6653 16.8 14.6699 16.8 14.6699Z" fill="#4ABAA5"/>
<path d="M18.3501 17.6038C18.3501 17.6038 20.0001 14.6699 19.1001 12.5743C18.8001 11.8409 18.0501 11.6313 17.4501 12.1028C16.9501 12.5219 16.6501 13.2554 16.75 13.9364C16.3501 13.5173 15.7 13.4649 15.1501 13.9364C14.4001 14.5127 14.1501 15.6653 14.5 16.4512C15.55 18.7563 18.3501 17.6038 18.3501 17.6038Z" fill="white"/>
<path d="M13.5 19.6469C13.5 19.6469 16.35 17.3942 16.3 14.6699C16.3 13.7269 15.65 13.0982 14.85 13.203C14.2 13.3077 13.65 13.9364 13.45 14.6699C13.25 13.9888 12.65 13.5697 11.9 13.7269C10.95 13.8841 10.15 14.9318 10.2 15.9797C10.25 19.1754 13.5 19.6469 13.5 19.6469Z" fill="#F3705A"/>
<path d="M12.3 4.76816C12.6866 4.76816 12.9999 4.43979 12.9999 4.03471C12.9999 3.62964 12.6866 3.30127 12.3 3.30127C11.9134 3.30127 11.6 3.62964 11.6 4.03471C11.6 4.43979 11.9134 4.76816 12.3 4.76816Z" fill="#415A6B"/>
<path d="M18.2 4.03424C18.2 4.34833 18 4.61005 17.75 4.61005C17.5 4.61005 17.25 4.34833 17.25 4.03424C17.25 3.72016 17.45 3.45844 17.7 3.45844C18 3.45844 18.2 3.72016 18.2 4.03424Z" fill="#415A6B"/>
<path d="M15.25 9.27373C13.6 9.48331 12.1 7.75443 12 5.34448L11.95 4.03471C11.95 3.87754 12.0499 3.72037 12.1999 3.72037C12.3499 3.72037 12.4999 3.82513 12.4999 3.9823L12.55 5.29207C12.6499 7.33528 13.9 8.85458 15.25 8.69741C15.7999 8.645 16.35 8.2783 16.75 7.70198C17.2999 6.96853 17.5999 5.86834 17.55 4.76815L17.5 4.03471C17.5 3.87754 17.5999 3.77277 17.7 3.77277C17.8 3.77277 17.9 3.87754 17.95 4.03471L18 4.76815C18.05 6.02551 17.75 7.17811 17.15 8.06873C16.6 8.74981 15.95 9.16892 15.25 9.27373Z" fill="white"/>
<path d="M7.35002 0.576965H5.40002L6.00002 23.7334L8.70002 25.7242L7.35002 0.576965Z" fill="#F7B64C"/>
<path d="M8.69996 25.7242L5.99996 23.7334H2.59998L8.69996 25.7242Z" fill="#EFA245"/>
</g>
<defs>
<clipPath id="clip0">
<rect width="24" height="25.1472" fill="white" transform="translate(0 0.576965)"/>
</clipPath>
</defs>
</svg>
